<?xml version="1.0" encoding="UTF-8" ?>
<!DOCTYPE svg PUBLIC "-//W3C//DTD SVG 1.1//EN" "http://www.w3.org/Graphics/SVG/1.1/DTD/svg11.dtd">
<svg width="640pt" height="640pt" viewBox="0 0 640 640" version="1.1" xmlns="http://www.w3.org/2000/svg">
<g id="#ffffffff">
<path fill="#ffffff" opacity="1.00" d=" M 329.65 243.70 C 329.76 247.81 327.67 251.50 326.64 255.38 C 321.36 271.56 318.52 288.36 315.82 305.12 C 315.00 309.13 314.82 313.32 313.16 317.11 C 311.92 297.46 317.00 278.06 323.47 259.67 C 325.46 254.32 327.13 248.83 329.65 243.70 Z" />
<path fill="#ffffff" opacity="1.00" d=" M 387.85 316.43 C 388.41 317.02 388.97 317.62 389.54 318.21 L 388.35 318.27 C 378.78 330.49 369.52 342.99 361.15 356.09 C 346.43 379.78 335.18 405.65 327.62 432.49 C 326.93 435.36 326.37 438.29 325.10 440.98 C 324.67 432.22 326.67 423.56 328.74 415.11 C 336.91 385.01 354.66 358.71 373.81 334.53 C 378.34 328.84 383.29 323.47 387.64 317.65 L 387.85 316.43 Z" />
<path fill="#ffffff" opacity="1.00" d=" M 264.76 370.33 C 254.10 355.13 241.91 341.07 231.00 326.08 C 241.89 339.19 253.17 351.97 263.72 365.36 C 278.86 384.49 293.12 404.65 302.47 427.33 C 305.03 434.11 308.59 440.74 309.00 448.12 C 294.94 421.82 282.11 394.70 264.76 370.33 Z" />
<path fill="#ffffff" opacity="1.00" d=" M 189.11 414.94 C 215.60 434.93 247.98 444.88 274.93 464.11 C 284.54 471.28 294.01 479.09 300.75 489.14 C 294.88 485.56 289.99 480.62 284.36 476.70 C 272.01 466.82 258.99 457.78 245.44 449.64 C 244.43 449.07 243.83 448.22 243.63 447.06 C 243.04 447.10 241.87 447.19 241.28 447.23 C 223.43 437.26 205.01 427.96 189.11 414.94 Z" />
<path fill="#ffffff" opacity="1.00" d=" M 428.81 423.55 C 429.37 424.05 429.94 424.57 430.50 425.09 C 427.78 425.34 425.85 427.42 423.59 428.70 C 409.31 437.59 394.13 444.93 379.96 454.01 C 367.82 461.63 356.07 469.88 344.93 478.90 C 340.18 482.06 336.33 486.35 331.53 489.43 C 333.63 485.16 337.27 481.89 340.26 478.25 C 359.23 459.50 383.63 447.90 407.33 436.37 C 414.40 432.51 421.69 428.98 428.53 424.71 L 428.81 423.55 Z" />
</g>
<g id="#5f3d94ff">
<path fill="#5f3d94" opacity="1.00" d=" M 257.93 177.92 C 259.30 181.08 260.58 184.43 263.11 186.88 C 265.33 189.19 268.32 190.46 271.20 191.72 C 265.14 194.28 260.22 199.11 257.73 205.22 C 255.37 199.10 250.50 194.46 244.69 191.62 C 251.13 189.57 255.62 184.08 257.93 177.92 Z" />
<path fill="#5f3d94" opacity="1.00" d=" M 410.52 273.51 C 415.28 270.18 419.94 266.72 424.55 263.19 C 423.66 285.95 421.33 308.78 415.93 330.95 C 410.72 352.25 399.72 372.48 383.02 386.92 C 371.24 397.69 357.18 405.60 345.48 416.46 C 337.83 423.54 331.50 432.25 328.16 442.18 C 326.11 447.58 325.15 453.30 323.44 458.80 C 322.79 452.52 323.18 446.20 322.68 439.92 C 322.31 416.89 317.77 393.80 321.36 370.82 C 324.33 348.18 335.55 326.73 352.82 311.73 C 370.37 296.58 391.76 286.97 410.52 273.51 M 388.11 316.16 C 388.80 316.10 390.17 315.99 390.86 315.93 C 393.35 311.52 397.41 308.16 399.41 303.46 C 395.14 307.22 392.37 312.36 388.11 316.16 M 387.85 316.43 L 387.64 317.65 C 383.29 323.47 378.34 328.84 373.81 334.53 C 354.66 358.71 336.91 385.01 328.74 415.11 C 326.67 423.56 324.67 432.22 325.10 440.98 C 326.37 438.29 326.93 435.36 327.62 432.49 C 335.18 405.65 346.43 379.78 361.15 356.09 C 369.52 342.99 378.78 330.49 388.35 318.27 L 389.54 318.21 C 388.97 317.62 388.41 317.02 387.85 316.43 Z" />
<path fill="#5f3d94" opacity="1.00" d=" M 271.29 269.38 C 276.43 267.19 282.12 272.91 280.13 278.06 C 278.99 282.66 272.92 284.81 269.19 281.85 C 264.78 278.71 266.00 270.83 271.29 269.38 Z" />
</g>
<g id="#63a64aff">
<path fill="#63a64a" opacity="1.00" d=" M 385.39 178.41 C 389.00 176.84 394.12 179.85 393.58 184.03 C 394.25 188.59 389.05 192.10 385.02 190.05 C 380.24 188.01 380.49 180.15 385.39 178.41 Z" />
<path fill="#63a64a" opacity="1.00" d=" M 343.70 188.72 C 344.32 187.71 345.02 186.74 345.72 185.78 C 349.21 195.19 351.21 205.05 352.93 214.91 C 356.35 234.45 356.45 255.88 346.53 273.64 C 339.31 287.77 325.91 297.45 318.38 311.37 C 315.69 316.26 314.98 321.90 312.86 327.00 C 311.97 320.27 310.94 313.54 309.09 307.00 C 305.77 294.80 300.88 282.85 300.25 270.08 C 299.00 254.12 305.02 238.31 314.97 225.98 C 324.98 213.92 335.95 202.45 343.70 188.72 M 329.65 243.70 C 327.13 248.83 325.46 254.32 323.47 259.67 C 317.00 278.06 311.92 297.46 313.16 317.11 C 314.82 313.32 315.00 309.13 315.82 305.12 C 318.52 288.36 321.36 271.56 326.64 255.38 C 327.67 251.50 329.76 247.81 329.65 243.70 Z" />
<path fill="#63a64a" opacity="1.00" d=" M 274.39 215.48 C 280.43 212.49 288.39 218.26 286.92 225.01 C 286.48 231.70 277.82 235.69 272.61 231.32 C 266.90 227.54 268.13 218.05 274.39 215.48 Z" />
<path fill="#63a64a" opacity="1.00" d=" M 249.36 260.22 C 251.12 258.92 254.73 258.86 255.63 261.30 C 257.18 264.12 254.17 267.87 251.08 267.14 C 248.14 266.50 247.25 262.22 249.36 260.22 Z" />
<path fill="#63a64a" opacity="1.00" d=" M 206.37 287.13 C 218.54 294.55 230.69 302.05 243.23 308.85 C 257.39 317.13 271.48 326.09 282.75 338.16 C 295.86 352.12 305.04 369.91 307.83 388.94 C 310.37 404.87 308.92 421.07 310.34 437.10 C 310.62 445.61 312.70 453.90 313.71 462.32 C 309.68 456.16 307.51 448.90 302.86 443.12 C 298.96 438.39 294.95 433.70 290.08 429.95 C 283.60 424.89 276.44 420.80 269.39 416.60 C 256.50 409.44 244.25 400.66 235.00 389.06 C 225.17 377.36 218.66 363.21 214.53 348.59 C 209.18 328.57 206.57 307.83 206.37 287.13 M 264.76 370.33 C 282.11 394.70 294.94 421.82 309.00 448.12 C 308.59 440.74 305.03 434.11 302.47 427.33 C 293.12 404.65 278.86 384.49 263.72 365.36 C 253.17 351.97 241.89 339.19 231.00 326.08 C 241.91 341.07 254.10 355.13 264.76 370.33 Z" />
<path fill="#63a64a" opacity="1.00" d=" M 156.84 379.09 C 162.85 382.15 168.85 385.24 175.07 387.84 C 193.29 395.64 213.08 398.78 231.33 406.48 C 254.49 416.18 273.74 434.03 286.61 455.44 C 291.75 463.65 295.75 472.50 299.56 481.39 C 300.97 484.87 302.72 488.28 303.22 492.05 C 283.29 484.09 261.10 486.78 240.78 480.29 C 215.67 472.38 194.99 453.92 180.77 432.14 C 170.16 415.82 162.17 397.78 156.84 379.09 M 189.11 414.94 C 205.01 427.96 223.43 437.26 241.28 447.23 C 241.87 447.19 243.04 447.10 243.63 447.06 C 243.83 448.22 244.43 449.07 245.44 449.64 C 258.99 457.78 272.01 466.82 284.36 476.70 C 289.99 480.62 294.88 485.56 300.75 489.14 C 294.01 479.09 284.54 471.28 274.93 464.11 C 247.98 444.88 215.60 434.93 189.11 414.94 Z" />
<path fill="#63a64a" opacity="1.00" d=" M 446.89 391.59 C 456.80 388.30 466.12 383.58 475.56 379.18 C 470.19 397.72 462.15 415.52 451.68 431.74 C 438.21 451.73 419.91 469.40 397.16 478.23 C 378.88 485.36 358.92 484.59 339.93 488.45 C 336.11 489.17 332.55 490.78 328.87 491.97 C 334.40 475.68 341.92 459.94 352.01 445.96 C 362.79 430.86 377.11 418.18 393.71 409.82 C 410.50 401.21 429.19 397.73 446.89 391.59 M 430.43 422.73 C 431.01 423.34 431.61 423.93 432.24 424.51 C 436.22 419.44 442.64 416.89 446.88 411.97 C 441.05 415.01 436.36 419.84 430.43 422.73 M 428.81 423.55 L 428.53 424.71 C 421.69 428.98 414.40 432.51 407.33 436.37 C 383.63 447.90 359.23 459.50 340.26 478.25 C 337.27 481.89 333.63 485.16 331.53 489.43 C 336.33 486.35 340.18 482.06 344.93 478.90 C 356.07 469.88 367.82 461.63 379.96 454.01 C 394.13 444.93 409.31 437.59 423.59 428.70 C 425.85 427.42 427.78 425.34 430.50 425.09 C 429.94 424.57 429.37 424.05 428.81 423.55 Z" />
</g>
<g id="#8c76aff5">
<path fill="#8c76af" opacity="0.96" d=" M 388.11 316.16 C 392.37 312.36 395.14 307.22 399.41 303.46 C 397.41 308.16 393.35 311.52 390.86 315.93 C 390.17 315.99 388.80 316.10 388.11 316.16 Z" />
</g>
<g id="#8bb97af5">
<path fill="#8bb97a" opacity="0.96" d=" M 430.43 422.73 C 436.36 419.84 441.05 415.01 446.88 411.97 C 442.64 416.89 436.22 419.44 432.24 424.51 C 431.61 423.93 431.01 423.34 430.43 422.73 Z" />
</g>
</svg>
