<?xml version="1.0" encoding="UTF-8" ?>
<!DOCTYPE svg PUBLIC "-//W3C//DTD SVG 1.1//EN" "http://www.w3.org/Graphics/SVG/1.1/DTD/svg11.dtd">
<svg width="1024pt" height="1024pt" viewBox="0 0 1024 1024" version="1.1" xmlns="http://www.w3.org/2000/svg">
<g id="#ffffffff">
<path fill="#ffffff" opacity="1.00" d=" M 518.70 411.69 C 521.62 403.81 524.18 395.76 527.83 388.16 C 528.58 394.45 525.31 400.01 523.74 405.87 C 521.94 412.27 519.50 418.48 518.11 425.00 C 510.41 452.77 507.01 481.45 501.83 509.74 C 500.17 505.46 501.54 500.65 499.73 496.49 C 499.97 496.56 500.44 496.71 500.68 496.78 C 500.54 469.25 508.07 442.47 516.80 416.59 C 516.39 416.72 515.57 416.97 515.16 417.09 C 517.58 416.40 517.85 413.69 518.70 411.69 Z" />
<path fill="#ffffff" opacity="1.00" d=" M 593.52 540.49 C 609.91 520.22 627.25 500.71 643.00 479.93 C 637.85 488.85 630.99 496.61 624.82 504.81 C 605.20 530.50 585.37 556.20 569.32 584.32 C 561.58 597.65 554.79 611.53 548.50 625.59 C 542.43 639.45 536.46 653.39 532.01 667.87 C 528.23 677.65 525.26 687.75 522.98 697.98 C 522.29 700.90 521.44 703.80 520.10 706.50 C 519.37 701.04 520.13 695.54 520.62 690.10 C 524.28 661.33 534.73 633.82 548.42 608.39 C 560.72 584.06 577.38 562.34 593.52 540.49 Z" />
<path fill="#ffffff" opacity="1.00" d=" M 359.52 509.58 C 359.79 509.27 360.32 508.64 360.58 508.33 C 365.91 517.68 373.28 525.68 380.11 533.95 C 387.41 542.64 394.95 551.13 402.01 560.01 C 410.36 569.07 417.52 579.11 425.45 588.53 C 440.56 608.38 455.56 628.43 467.84 650.19 C 475.78 664.98 483.25 680.05 489.04 695.84 C 492.06 702.97 494.50 710.46 494.77 718.27 C 490.14 710.15 485.97 701.79 481.83 693.41 C 473.90 679.12 466.87 664.34 458.96 650.03 C 450.27 634.82 441.52 619.64 431.95 604.97 C 413.06 576.63 391.01 550.61 370.38 523.56 C 366.89 518.80 364.06 513.46 359.52 509.58 Z" />
<path fill="#ffffff" opacity="1.00" d=" M 285.26 648.93 C 296.11 658.47 307.45 667.49 319.54 675.40 C 335.44 685.64 352.45 693.98 369.17 702.79 C 382.54 708.76 395.37 715.84 408.33 722.63 C 415.94 726.97 423.71 731.05 430.80 736.21 C 440.06 742.07 448.82 748.67 456.99 755.96 C 466.58 764.08 475.53 773.22 482.24 783.89 C 471.16 776.39 461.32 767.25 450.39 759.53 C 441.48 751.99 431.80 745.42 422.23 738.75 C 411.91 731.12 400.73 724.80 389.91 717.93 C 392.02 715.63 387.84 714.82 386.44 716.16 C 373.50 708.56 360.18 701.65 347.08 694.35 L 347.81 693.46 C 347.38 693.58 346.53 693.83 346.11 693.95 C 338.38 688.91 330.57 684.01 322.73 679.16 C 309.44 670.15 296.78 660.14 285.26 648.93 Z" />
<path fill="#ffffff" opacity="1.00" d=" M 677.79 683.94 C 695.04 674.45 710.53 662.18 725.93 650.02 C 704.21 669.28 680.22 686.02 654.56 699.60 C 642.41 706.50 630.25 713.36 618.12 720.30 C 604.07 729.08 590.03 737.92 576.60 747.65 C 567.56 753.83 559.28 761.00 550.53 767.55 C 543.23 772.51 537.24 779.12 529.85 783.97 C 531.48 779.03 535.50 775.58 538.56 771.56 C 546.69 761.31 557.17 753.32 567.40 745.29 C 574.79 739.63 582.70 734.71 590.61 729.81 C 590.48 730.21 590.23 731.01 590.11 731.41 C 592.04 728.08 595.83 726.76 598.94 724.82 C 607.89 719.65 617.39 715.52 626.31 710.27 C 643.76 702.06 660.95 693.33 677.79 683.94 Z" />
</g>
<g id="#5f3d94ff">
<path fill="#5f3d94" opacity="1.00" d=" M 412.58 284.90 C 414.82 289.90 416.66 295.38 420.86 299.14 C 424.42 303.00 429.35 305.10 434.14 306.98 C 423.88 310.08 416.15 318.56 412.26 328.33 C 408.99 318.39 401.00 310.53 391.34 306.72 C 401.64 303.70 409.33 294.93 412.58 284.90 Z" />
<path fill="#5f3d94" opacity="1.00" d=" M 638.11 450.18 C 652.51 441.51 666.08 431.52 679.32 421.17 C 678.33 442.20 676.56 463.20 673.79 484.07 C 670.84 504.80 667.35 525.58 660.62 545.46 C 655.72 560.50 648.61 574.78 639.94 587.99 C 628.21 605.52 612.73 620.30 595.77 632.72 C 586.50 640.24 576.27 646.47 567.09 654.12 C 552.36 664.92 539.24 678.30 530.40 694.39 C 524.06 706.92 520.46 720.62 517.68 734.32 C 516.54 717.25 516.93 700.11 515.56 683.05 C 514.24 660.38 511.34 637.72 512.44 614.97 C 512.97 592.80 517.71 570.72 526.54 550.36 C 538.77 522.71 560.03 499.66 585.21 483.18 C 602.24 471.23 620.77 461.64 638.11 450.18 M 593.52 540.49 C 577.38 562.34 560.72 584.06 548.42 608.39 C 534.73 633.82 524.28 661.33 520.62 690.10 C 520.13 695.54 519.37 701.04 520.10 706.50 C 521.44 703.80 522.29 700.90 522.98 697.98 C 525.26 687.75 528.23 677.65 532.01 667.87 C 536.46 653.39 542.43 639.45 548.50 625.59 C 554.79 611.53 561.58 597.65 569.32 584.32 C 585.37 556.20 605.20 530.50 624.82 504.81 C 630.99 496.61 637.85 488.85 643.00 479.93 C 627.25 500.71 609.91 520.22 593.52 540.49 Z" />
<path fill="#5f3d94" opacity="1.00" d=" M 433.37 431.50 C 438.62 428.99 445.80 431.65 447.72 437.26 C 449.98 442.74 447.26 449.41 441.99 451.99 C 437.44 454.16 431.44 452.71 428.59 448.48 C 424.71 442.92 426.70 433.89 433.37 431.50 Z" />
</g>
<g id="#63a64aff">
<path fill="#63a64a" opacity="1.00" d=" M 616.44 285.83 C 621.99 283.26 629.94 287.52 629.59 293.96 C 629.95 297.54 628.41 301.28 625.42 303.33 C 621.26 305.73 615.02 305.06 612.41 300.71 C 609.08 295.86 610.71 288.04 616.44 285.83 Z" />
<path fill="#63a64a" opacity="1.00" d=" M 544.55 311.35 C 547.62 306.88 549.87 301.90 553.06 297.50 C 556.01 306.63 559.20 315.72 560.83 325.20 C 565.93 348.68 569.79 372.86 566.83 396.90 C 565.65 404.70 564.58 412.58 562.02 420.07 C 556.42 437.05 546.35 452.24 534.25 465.29 C 525.36 475.82 515.59 485.88 509.13 498.17 C 505.23 506.14 502.94 514.78 500.94 523.40 C 499.45 513.20 497.88 503.00 495.39 492.99 C 489.21 470.99 480.13 449.18 480.51 425.95 C 480.20 407.02 486.18 388.18 496.56 372.41 C 501.99 363.79 508.59 355.98 515.47 348.49 C 525.58 336.45 535.84 324.47 544.55 311.35 M 518.70 411.69 C 517.85 413.69 517.58 416.40 515.16 417.09 C 515.57 416.97 516.39 416.72 516.80 416.59 C 508.07 442.47 500.54 469.25 500.68 496.78 C 500.44 496.71 499.97 496.56 499.73 496.49 C 501.54 500.65 500.17 505.46 501.83 509.74 C 507.01 481.45 510.41 452.77 518.11 425.00 C 519.50 418.48 521.94 412.27 523.74 405.87 C 525.31 400.01 528.58 394.45 527.83 388.16 C 524.18 395.76 521.62 403.81 518.70 411.69 Z" />
<path fill="#63a64a" opacity="1.00" d=" M 439.53 344.77 C 446.92 341.59 456.70 346.14 458.58 354.07 C 459.41 358.70 458.81 363.95 455.66 367.64 C 452.86 370.51 449.22 373.22 444.97 372.80 C 440.28 373.04 435.99 370.41 433.08 366.92 C 430.78 363.51 430.06 359.17 430.70 355.15 C 431.74 350.52 435.35 346.79 439.53 344.77 Z" />
<path fill="#63a64a" opacity="1.00" d=" M 398.45 417.42 C 400.80 414.22 407.31 414.08 408.79 418.24 C 410.40 421.02 408.41 423.85 407.12 426.28 C 405.11 426.58 403.01 427.81 401.01 427.07 C 397.79 425.28 395.89 420.50 398.45 417.42 Z" />
<path fill="#63a64a" opacity="1.00" d=" M 330.24 459.50 C 341.72 466.90 353.44 473.95 365.27 480.77 C 376.44 487.75 388.37 493.44 399.45 500.59 C 409.93 506.48 419.62 513.63 429.35 520.65 C 458.78 542.70 481.77 574.43 490.01 610.58 C 491.83 618.40 493.12 626.36 493.77 634.38 C 495.47 647.79 494.13 661.35 495.25 674.80 C 495.30 685.81 496.07 696.79 496.86 707.77 C 498.36 718.57 500.32 729.30 501.75 740.12 C 498.38 732.97 494.84 725.91 491.22 718.89 C 486.70 709.85 479.45 702.66 472.82 695.19 C 461.21 683.91 447.02 675.85 433.23 667.57 C 416.34 658.21 399.87 647.57 386.34 633.65 C 375.35 622.69 365.97 610.06 358.73 596.33 C 349.33 578.72 343.26 559.53 339.12 540.05 C 333.68 513.55 330.66 486.54 330.24 459.50 M 359.52 509.58 C 364.06 513.46 366.89 518.80 370.38 523.56 C 391.01 550.61 413.06 576.63 431.95 604.97 C 441.52 619.64 450.27 634.82 458.96 650.03 C 466.87 664.34 473.90 679.12 481.83 693.41 C 485.97 701.79 490.14 710.15 494.77 718.27 C 494.50 710.46 492.06 702.97 489.04 695.84 C 483.25 680.05 475.78 664.98 467.84 650.19 C 455.56 628.43 440.56 608.38 425.45 588.53 C 417.52 579.11 410.36 569.07 402.01 560.01 C 394.95 551.13 387.41 542.64 380.11 533.95 C 373.28 525.68 365.91 517.68 360.58 508.33 C 360.32 508.64 359.79 509.27 359.52 509.58 Z" />
<path fill="#63a64a" opacity="1.00" d=" M 251.16 606.80 C 270.05 617.09 289.93 625.64 310.63 631.56 C 330.49 637.47 350.70 642.45 369.86 650.47 C 384.68 657.08 399.09 664.94 411.66 675.29 C 441.42 698.73 462.95 731.19 477.19 766.02 C 480.24 772.85 483.40 779.71 485.19 787.01 C 465.17 778.83 443.28 777.96 422.08 775.37 C 403.69 773.18 385.03 769.90 368.26 761.70 C 340.80 749.16 317.28 728.89 299.06 704.95 C 283.81 684.77 271.63 662.38 262.33 638.88 C 258.31 628.29 253.82 617.83 251.16 606.80 M 285.26 648.93 C 296.78 660.14 309.44 670.15 322.73 679.16 C 330.57 684.01 338.38 688.91 346.11 693.95 C 346.53 693.83 347.38 693.58 347.81 693.46 L 347.08 694.35 C 360.18 701.65 373.50 708.56 386.44 716.16 C 387.84 714.82 392.02 715.63 389.91 717.93 C 400.73 724.80 411.91 731.12 422.23 738.75 C 431.80 745.42 441.48 751.99 450.39 759.53 C 461.32 767.25 471.16 776.39 482.24 783.89 C 475.53 773.22 466.58 764.08 456.99 755.96 C 448.82 748.67 440.06 742.07 430.80 736.21 C 423.71 731.05 415.94 726.97 408.33 722.63 C 395.37 715.84 382.54 708.76 369.17 702.79 C 352.45 693.98 335.44 685.64 319.54 675.40 C 307.45 667.49 296.11 658.47 285.26 648.93 Z" />
<path fill="#63a64a" opacity="1.00" d=" M 738.41 617.49 C 746.01 614.34 753.15 610.21 760.70 606.94 C 755.32 625.18 748.39 642.96 739.96 660.01 C 732.50 674.72 724.45 689.27 714.25 702.28 C 696.79 725.09 675.29 745.39 649.59 758.59 C 631.81 768.04 611.88 772.56 592.00 774.83 C 576.69 777.01 561.17 777.65 546.02 780.92 C 539.14 781.76 532.88 784.85 526.30 786.82 C 537.53 755.42 552.55 724.87 574.53 699.53 C 579.74 693.74 584.85 687.84 590.90 682.89 C 606.83 668.18 625.66 656.85 645.71 648.73 C 653.60 646.02 661.34 642.87 669.39 640.60 C 673.88 639.05 678.80 638.54 682.88 635.94 C 682.71 636.19 682.37 636.70 682.20 636.96 C 701.22 631.36 720.36 625.82 738.41 617.49 M 677.79 683.94 C 660.95 693.33 643.76 702.06 626.31 710.27 C 617.39 715.52 607.89 719.65 598.94 724.82 C 595.83 726.76 592.04 728.08 590.11 731.41 C 590.23 731.01 590.48 730.21 590.61 729.81 C 582.70 734.71 574.79 739.63 567.40 745.29 C 557.17 753.32 546.69 761.31 538.56 771.56 C 535.50 775.58 531.48 779.03 529.85 783.97 C 537.24 779.12 543.23 772.51 550.53 767.55 C 559.28 761.00 567.56 753.83 576.60 747.65 C 590.03 737.92 604.07 729.08 618.12 720.30 C 630.25 713.36 642.41 706.50 654.56 699.60 C 680.22 686.02 704.21 669.28 725.93 650.02 C 710.53 662.18 695.04 674.45 677.79 683.94 Z" />
</g>
</svg>
