<?xml version="1.0" encoding="UTF-8" ?>
<!DOCTYPE svg PUBLIC "-//W3C//DTD SVG 1.1//EN" "http://www.w3.org/Graphics/SVG/1.1/DTD/svg11.dtd">
<svg width="960pt" height="540pt" viewBox="0 0 960 540" version="1.1" xmlns="http://www.w3.org/2000/svg">
<g id="#ffffffff">
<path fill="#ffffff" opacity="1.00" d=" M 0.00 0.00 L 960.00 0.00 L 960.00 540.00 L 0.00 540.00 L 0.00 0.00 M 235.34 116.47 C 230.99 117.66 229.92 123.94 233.09 126.89 C 236.12 129.79 242.03 128.28 242.77 123.96 C 244.44 119.52 239.71 114.99 235.34 116.47 M 107.36 116.50 C 105.13 122.33 100.78 127.44 94.79 129.60 C 100.18 132.58 104.91 136.89 107.20 142.73 C 109.74 136.91 114.44 132.38 120.13 129.64 C 117.49 128.48 114.75 127.33 112.70 125.23 C 110.13 122.88 108.88 119.55 107.36 116.50 M 188.94 134.02 C 181.80 144.37 173.37 153.73 165.26 163.32 C 156.09 174.47 149.85 188.45 149.86 203.06 C 149.42 217.23 154.63 230.62 158.55 243.99 C 160.55 250.61 161.30 257.50 162.65 264.25 C 164.25 258.58 165.61 252.73 168.64 247.60 C 172.72 240.59 178.36 234.68 183.59 228.54 C 191.60 219.77 198.23 209.49 201.47 197.99 C 203.98 188.23 204.82 178.07 204.09 168.03 C 202.84 153.13 199.99 138.30 195.21 124.12 C 192.93 127.29 191.17 130.80 188.94 134.02 M 483.08 146.05 C 475.37 153.10 469.57 161.88 462.75 169.73 C 449.46 186.04 435.92 202.14 422.02 217.93 C 410.28 215.61 398.81 212.04 387.69 207.65 C 385.73 210.38 384.27 213.42 383.16 216.59 C 393.73 222.36 406.12 222.41 417.84 222.67 C 401.59 237.87 385.05 253.81 364.05 262.20 C 354.19 266.39 342.66 268.38 332.41 264.40 C 327.35 262.30 321.95 258.75 320.87 252.97 C 319.95 249.45 321.29 245.94 322.82 242.82 C 315.61 247.44 311.87 256.92 314.59 265.14 C 317.32 271.52 324.32 274.73 330.84 275.65 C 340.70 276.91 350.72 274.60 359.84 270.89 C 374.82 264.59 387.64 254.31 399.80 243.73 C 407.03 238.36 412.58 231.20 419.24 225.21 C 420.58 224.09 421.95 222.52 423.92 222.96 C 438.46 223.36 453.00 223.77 467.55 223.59 C 466.67 234.15 465.14 244.65 463.64 255.14 C 463.25 259.17 461.99 263.21 459.31 266.31 C 453.97 269.30 447.59 268.27 441.73 268.43 C 441.75 269.36 441.77 270.30 441.79 271.24 C 456.86 271.17 471.93 270.87 487.00 271.24 C 490.27 271.35 493.55 271.12 496.75 270.42 C 491.71 267.16 484.68 270.11 480.19 265.77 C 477.29 262.15 478.24 257.18 478.64 252.92 C 480.71 237.27 482.52 221.58 484.62 205.92 C 487.69 185.34 489.49 164.55 493.74 144.15 C 490.18 144.09 485.92 143.33 483.08 146.05 M 124.38 153.47 C 120.79 155.04 117.98 158.88 118.67 162.92 C 118.93 168.25 124.80 172.17 129.83 170.71 C 133.89 169.43 136.74 165.29 136.24 161.01 C 136.33 155.27 129.47 151.32 124.38 153.47 M 530.57 200.55 C 524.42 205.69 520.01 213.04 518.65 220.96 C 520.85 219.60 521.66 217.06 522.85 214.92 C 525.44 209.85 528.38 204.38 533.70 201.75 C 535.56 200.41 537.52 202.10 539.21 202.87 C 538.74 207.01 537.80 211.08 536.49 215.03 C 530.42 233.76 524.16 252.42 517.87 271.07 C 521.72 271.10 525.57 271.07 529.42 271.18 C 532.57 263.32 534.90 255.14 538.50 247.46 C 544.53 233.10 553.24 220.05 562.82 207.83 C 565.78 204.11 570.05 201.76 574.53 200.33 C 575.28 201.59 575.99 202.87 576.74 204.16 C 574.24 207.63 570.93 211.46 571.92 216.09 C 572.68 221.05 579.00 223.43 583.22 221.22 C 590.73 217.24 592.90 206.02 587.44 199.51 C 584.73 196.27 580.06 195.88 576.17 196.52 C 569.94 197.79 564.61 201.81 560.73 206.72 C 554.04 214.47 549.39 223.64 543.66 232.06 C 545.66 222.26 551.46 213.18 550.63 202.91 C 550.67 199.69 548.00 197.02 544.98 196.36 C 539.84 195.05 534.48 197.24 530.57 200.55 M 638.54 196.75 C 631.73 198.26 625.76 202.18 620.51 206.61 C 608.67 216.13 601.13 230.85 600.44 246.04 C 600.27 253.86 602.21 262.40 608.30 267.78 C 615.70 274.57 627.08 275.09 636.08 271.45 C 655.00 262.92 669.67 244.06 670.97 223.04 C 671.42 214.22 668.06 204.69 660.58 199.53 C 654.23 195.01 645.84 195.01 638.54 196.75 M 699.32 202.30 C 694.55 207.66 690.33 213.92 689.23 221.16 C 691.87 219.28 692.94 216.18 694.39 213.43 C 697.06 207.74 701.08 202.08 707.52 200.45 C 708.26 201.89 709.75 203.24 709.41 205.00 C 707.66 216.46 702.61 227.02 699.04 237.96 C 694.97 248.98 691.31 260.14 687.21 271.14 C 691.16 271.13 695.11 271.13 699.06 271.08 C 701.94 263.11 704.76 255.10 708.42 247.44 C 715.48 233.22 724.31 219.80 735.05 208.09 C 738.85 203.83 744.39 201.01 750.20 201.42 C 752.12 206.92 751.02 212.80 749.14 218.14 C 742.87 235.75 736.51 253.34 730.41 271.01 C 734.47 271.02 738.53 271.17 742.59 270.91 C 745.83 261.90 749.04 252.86 753.09 244.17 C 759.87 231.19 767.94 218.71 778.15 208.15 C 781.85 205.18 785.77 200.95 790.97 201.62 C 794.12 201.79 795.72 205.19 795.07 207.99 C 794.07 213.14 791.86 217.96 789.97 222.82 C 786.36 231.17 783.28 239.72 780.09 248.23 C 778.31 253.33 776.84 258.67 777.04 264.12 C 777.35 269.19 781.89 273.56 787.00 273.52 C 793.93 273.83 800.06 269.39 803.79 263.87 C 807.18 258.97 810.83 253.95 811.88 247.94 C 807.75 250.77 806.67 255.98 803.79 259.83 C 800.80 264.58 795.55 269.58 789.43 267.70 C 789.02 266.21 788.03 264.73 788.56 263.15 C 791.00 251.88 796.39 241.59 800.55 230.91 C 803.51 223.22 807.32 215.40 806.79 206.94 C 806.72 201.97 803.13 196.99 798.09 196.14 C 791.84 194.96 785.51 197.69 781.01 201.94 C 771.69 209.84 765.13 220.25 758.23 230.18 C 760.10 220.91 765.55 211.64 762.61 201.99 C 761.19 197.20 755.47 195.41 750.96 196.02 C 742.67 197.01 736.38 203.10 730.99 208.96 C 724.20 215.89 719.85 224.68 714.01 232.34 C 714.33 228.30 716.69 224.89 717.59 221.00 C 720.27 213.54 723.61 205.07 719.60 197.42 C 712.64 194.67 704.29 196.75 699.32 202.30 M 865.87 197.64 C 850.85 203.21 838.66 214.88 830.63 228.56 C 825.51 237.44 821.79 247.69 823.06 258.09 C 823.54 264.28 827.15 270.60 833.14 272.87 C 838.59 274.82 844.54 273.26 849.51 270.69 C 848.68 269.75 847.87 268.82 847.05 267.89 C 842.92 269.18 836.79 268.63 835.54 263.66 C 833.72 255.21 837.00 246.78 839.80 238.92 C 845.31 225.53 852.52 212.03 864.42 203.27 C 869.02 199.71 875.38 198.14 880.96 200.15 C 883.74 201.04 885.43 204.11 885.11 206.94 C 883.85 217.60 879.45 227.57 874.29 236.87 C 874.59 238.23 875.63 239.60 875.18 241.05 C 873.23 247.92 871.04 254.79 870.19 261.91 C 869.65 265.81 870.86 270.33 874.43 272.44 C 878.70 274.90 884.20 273.76 888.14 271.14 C 895.79 266.23 900.18 257.82 903.58 249.68 L 903.17 248.94 L 901.87 248.78 C 898.11 255.96 894.33 263.68 887.39 268.34 C 885.36 269.45 881.76 269.68 880.95 266.97 C 879.65 263.09 881.46 259.09 882.54 255.38 C 888.99 236.23 895.30 217.00 902.87 198.25 C 899.08 198.46 895.26 198.21 891.49 198.66 C 889.97 199.71 889.33 201.59 888.34 203.09 C 886.89 200.83 885.79 197.83 882.98 196.98 C 877.46 194.99 871.30 195.74 865.87 197.64 M 99.35 198.18 C 97.37 199.43 97.47 202.34 99.00 203.91 C 100.70 206.16 104.87 204.78 105.08 201.94 C 106.43 198.62 101.91 196.05 99.35 198.18 M 234.82 227.77 C 220.12 236.59 205.01 245.51 193.71 258.66 C 181.40 272.32 173.93 289.85 171.15 307.92 C 167.97 328.21 170.89 348.71 172.05 369.03 C 172.67 378.07 172.21 387.17 173.37 396.18 C 174.56 388.53 176.79 381.04 179.98 373.99 C 185.80 361.88 195.89 352.54 206.55 344.68 C 219.51 335.13 233.13 326.04 243.41 313.45 C 254.96 299.62 262.25 282.64 266.18 265.15 C 270.87 244.21 272.88 222.78 274.02 201.38 C 261.64 211.17 248.38 219.74 234.82 227.77 M 120.52 207.65 C 114.89 209.50 114.75 218.69 120.41 220.59 C 125.18 222.76 130.55 217.86 129.68 212.94 C 129.39 208.65 124.36 205.98 120.52 207.65 M 55.94 225.32 C 56.27 242.27 58.13 259.19 61.57 275.80 C 64.51 289.66 69.14 303.30 76.48 315.48 C 84.11 328.12 94.69 338.91 106.97 347.08 C 119.51 355.52 133.73 361.65 144.74 372.22 C 149.13 376.88 153.64 381.62 156.60 387.37 C 158.78 391.54 160.85 395.76 162.81 400.05 C 162.35 394.72 161.32 389.46 160.56 384.18 C 157.67 364.50 160.16 344.43 156.77 324.82 C 153.10 303.01 140.89 283.19 124.33 268.75 C 114.63 260.46 103.87 253.50 92.84 247.13 C 80.35 240.19 68.05 232.90 55.94 225.32 M 848.04 267.11 C 848.98 267.99 849.93 268.87 850.90 269.75 C 859.80 262.54 866.87 253.37 873.05 243.80 C 874.19 242.21 873.97 240.20 874.03 238.37 C 866.42 248.73 859.58 260.63 848.04 267.11 M 450.77 289.15 C 450.91 289.54 451.19 290.33 451.33 290.72 C 454.50 291.09 457.75 291.10 460.76 292.29 C 461.87 296.19 460.66 300.15 460.15 304.04 C 456.92 323.44 453.83 342.90 449.87 362.16 C 448.94 367.70 442.61 367.09 438.38 367.43 L 438.39 369.46 C 446.58 368.82 454.79 369.19 463.00 368.91 C 471.94 368.85 480.99 369.66 489.85 368.07 C 489.36 367.56 488.36 366.53 487.86 366.02 C 489.42 366.21 490.87 366.80 492.21 367.63 C 500.05 366.20 507.50 361.47 511.25 354.32 C 514.22 348.49 514.34 340.47 509.30 335.72 C 504.64 330.34 497.21 329.58 490.76 327.84 C 497.45 326.35 504.41 324.40 509.52 319.58 C 514.40 315.29 516.46 307.95 514.20 301.82 C 511.59 296.20 506.03 292.25 500.01 291.07 C 489.20 288.36 478.00 289.63 466.99 289.38 C 461.58 289.34 456.18 289.03 450.77 289.15 M 544.17 300.07 C 540.17 301.79 540.46 307.98 544.06 309.98 C 547.27 311.37 551.12 309.06 552.23 305.92 C 552.82 301.86 547.91 297.81 544.17 300.07 M 786.06 311.42 C 784.66 316.11 783.99 321.01 782.40 325.65 C 779.60 326.34 776.55 325.92 773.67 326.33 C 775.00 329.17 779.09 327.09 781.57 327.67 C 780.81 336.77 778.37 345.60 776.59 354.53 C 775.66 358.88 775.41 363.91 778.18 367.68 C 780.74 370.49 784.99 370.95 788.57 370.43 C 794.59 369.45 798.49 364.09 801.04 358.99 C 798.31 358.73 797.68 361.74 796.41 363.48 C 794.65 366.74 790.58 368.60 786.99 367.72 C 784.37 366.72 783.02 363.71 783.51 361.04 C 784.41 353.60 786.43 346.36 787.93 339.03 C 788.72 335.48 789.19 331.84 790.52 328.44 C 794.72 327.34 799.17 328.16 803.45 327.57 C 803.64 327.25 804.02 326.62 804.20 326.30 C 799.73 325.83 795.25 326.15 790.78 326.29 C 791.79 321.24 792.87 316.20 793.98 311.18 C 791.34 311.32 788.70 311.41 786.06 311.42 M 6.61 317.46 C 8.80 326.01 12.30 334.16 15.60 342.32 C 27.14 369.15 45.01 394.41 70.66 409.31 C 79.97 414.81 90.19 418.82 100.87 420.68 C 118.09 424.04 136.16 423.33 152.73 429.74 C 150.61 422.72 147.39 416.12 144.47 409.42 C 132.87 384.24 114.19 361.53 89.25 348.73 C 69.08 337.86 45.86 335.14 24.94 326.16 C 18.67 323.60 12.65 320.52 6.61 317.46 M 307.64 325.47 C 292.92 331.84 277.22 335.34 262.04 340.31 C 247.96 344.85 234.54 351.70 223.12 361.15 C 201.53 378.59 187.75 403.71 178.61 429.51 C 181.54 430.82 180.88 427.63 181.39 426.22 C 189.22 414.84 200.27 406.20 211.61 398.54 C 236.62 381.80 265.88 372.42 290.10 354.37 C 293.03 352.22 295.79 349.81 298.93 347.95 C 295.69 350.77 292.28 353.39 288.87 356.00 C 269.05 371.31 245.82 381.22 225.03 395.05 C 212.29 403.07 200.39 412.29 188.62 421.64 C 186.35 423.56 184.20 425.67 181.53 427.05 C 182.06 427.48 182.60 427.91 183.16 428.33 C 187.95 425.99 193.36 425.58 198.54 424.68 C 216.52 422.35 235.24 421.72 251.91 413.82 C 275.35 402.75 293.81 382.91 306.53 360.63 C 314.17 347.00 320.52 332.57 324.72 317.50 C 319.01 320.14 313.45 323.07 307.64 325.47 M 530.10 331.04 C 529.08 333.09 527.43 335.41 528.55 337.75 C 528.59 337.27 528.66 336.30 528.69 335.82 C 530.70 333.43 532.24 330.66 534.41 328.40 C 535.81 327.89 537.32 327.79 538.79 327.54 C 539.23 338.70 533.79 348.99 532.21 359.88 C 531.89 362.26 531.92 364.79 532.82 367.05 C 534.65 370.58 539.44 371.23 542.84 369.76 C 547.19 368.29 548.92 363.63 551.32 360.14 C 551.01 359.85 550.40 359.26 550.10 358.96 C 547.87 362.64 546.02 367.89 540.85 367.83 C 539.21 365.56 539.21 362.73 539.85 360.12 C 541.98 350.72 546.05 341.73 546.72 332.03 C 547.08 329.16 545.73 326.31 543.76 324.30 C 538.35 322.97 532.73 326.38 530.10 331.04 M 563.29 349.85 C 561.93 356.90 564.38 365.51 571.36 368.68 C 580.57 373.47 592.58 368.48 597.02 359.47 C 592.96 361.77 590.26 366.06 585.68 367.46 C 581.74 368.99 576.52 368.67 573.83 365.04 C 570.62 360.62 571.82 354.84 571.89 349.76 C 581.08 349.28 591.26 349.00 598.58 342.60 C 602.66 339.60 605.00 333.63 602.20 329.02 C 599.25 324.31 592.93 323.86 587.94 324.29 C 575.18 326.04 565.47 337.57 563.29 349.85 M 619.58 326.63 C 616.39 328.91 615.27 332.85 613.19 335.99 C 613.72 335.87 614.79 335.62 615.32 335.50 C 616.87 331.14 620.27 326.12 625.63 327.17 C 622.54 341.38 618.13 355.24 614.55 369.32 C 616.94 369.25 619.33 369.20 621.73 369.11 C 625.65 356.04 629.87 342.44 639.15 332.08 C 641.01 330.08 642.95 327.62 645.88 327.35 C 648.46 326.94 652.13 327.99 652.54 331.01 C 652.74 342.78 645.05 353.11 645.48 364.91 C 645.70 369.35 651.13 371.67 654.93 370.06 C 659.77 368.84 661.90 363.89 664.20 359.98 C 664.05 359.52 663.77 358.60 663.62 358.14 C 661.40 361.47 659.90 365.81 656.01 367.55 C 654.03 368.29 652.58 365.68 653.02 363.98 C 654.13 353.66 660.38 344.52 660.70 334.05 C 660.84 330.53 659.67 326.30 656.16 324.80 C 651.25 322.78 645.37 324.27 641.45 327.68 C 636.51 331.71 633.90 337.78 629.34 342.16 C 630.45 338.12 632.23 334.20 632.46 329.96 C 632.49 327.57 631.80 324.49 629.09 323.89 C 625.68 323.17 622.31 324.71 619.58 326.63 M 685.93 331.95 C 678.92 338.88 674.22 349.26 676.78 359.17 C 678.34 365.93 685.24 370.56 692.03 370.26 C 699.43 370.66 705.94 365.95 710.09 360.19 C 709.46 360.27 708.20 360.44 707.57 360.53 C 704.58 364.55 700.10 367.75 694.98 368.11 C 692.06 368.29 688.67 367.64 686.95 365.02 C 683.72 360.60 684.68 354.81 685.04 349.72 C 695.10 349.64 706.50 348.50 713.72 340.63 C 717.90 336.65 717.35 328.53 711.90 325.95 C 703.10 321.83 692.54 325.42 685.93 331.95 M 740.96 325.13 C 734.64 327.01 729.33 334.23 732.08 340.83 C 734.82 347.90 742.75 350.29 747.60 355.50 C 750.18 358.23 750.05 362.81 747.59 365.58 C 745.02 369.32 740.00 369.02 736.00 369.43 C 734.30 368.32 732.63 367.16 731.02 365.95 C 731.97 363.87 733.02 361.83 734.15 359.84 C 733.64 358.61 733.12 357.38 732.62 356.16 C 729.74 354.26 726.37 356.34 724.93 359.01 C 724.19 362.92 726.82 366.67 730.09 368.55 C 734.64 370.88 740.13 371.28 745.05 370.00 C 751.83 368.20 758.65 361.72 756.84 354.15 C 754.40 347.63 747.52 344.77 742.50 340.60 C 739.45 338.34 737.29 333.99 739.60 330.46 C 742.52 324.63 750.56 324.46 755.64 327.41 C 755.23 329.91 753.49 331.79 751.89 333.61 C 753.32 335.38 754.67 337.49 756.97 338.22 C 761.30 337.80 762.83 331.86 760.10 328.83 C 755.52 323.29 747.33 323.13 740.96 325.13 M 829.19 329.15 C 820.86 334.74 814.49 343.76 813.36 353.86 C 812.82 358.90 813.56 364.81 817.71 368.24 C 822.67 371.86 829.77 370.67 834.24 366.80 C 839.59 362.66 842.49 356.43 845.81 350.73 C 845.14 356.57 842.61 362.36 844.43 368.29 C 846.76 369.32 849.18 371.08 851.86 370.41 C 856.39 369.45 859.46 365.54 861.47 361.62 C 862.00 360.47 863.03 359.06 861.88 357.92 C 859.45 361.93 857.16 366.28 852.97 368.73 C 849.21 366.16 850.86 361.38 851.78 357.79 C 854.74 346.91 858.06 336.14 861.31 325.35 C 858.48 325.60 855.66 325.87 852.84 326.06 C 852.78 326.79 852.66 328.25 852.60 328.99 C 851.28 327.45 850.34 325.27 848.22 324.76 C 841.60 322.63 834.69 325.55 829.19 329.15 M 873.58 336.14 C 876.63 332.90 878.22 328.12 882.71 326.44 C 883.17 328.87 883.98 331.38 883.34 333.87 C 880.57 345.82 877.14 357.60 873.94 369.44 C 876.45 369.26 878.98 369.12 881.51 368.94 C 883.99 358.14 887.93 347.61 893.80 338.17 C 896.70 332.81 900.88 327.13 907.49 326.54 C 906.56 329.49 905.13 332.24 904.12 335.15 C 904.48 337.44 906.33 340.32 909.01 339.91 C 914.75 339.10 917.71 331.25 914.21 326.74 C 911.06 323.02 905.14 323.79 901.57 326.48 C 895.44 330.48 892.97 337.64 888.95 343.38 C 889.64 338.24 891.81 333.20 890.91 327.94 C 890.41 324.75 886.64 323.71 883.88 323.77 C 878.52 325.62 874.52 330.57 873.58 336.14 M 382.10 325.40 C 380.45 325.85 377.64 324.90 377.19 327.23 C 378.79 327.74 381.12 327.14 382.22 328.78 C 385.00 332.48 386.03 337.10 387.44 341.42 C 390.30 351.19 393.70 360.79 396.72 370.51 C 392.60 379.04 387.92 390.09 377.10 391.16 C 377.50 389.05 377.94 386.95 378.40 384.86 C 376.71 383.37 374.81 382.14 372.83 381.10 C 371.33 382.39 369.88 383.73 368.47 385.11 C 368.79 386.70 369.11 388.30 369.42 389.91 C 372.45 392.16 376.32 393.71 380.12 392.68 C 384.46 391.40 388.04 388.30 390.70 384.72 C 402.03 368.44 409.30 349.86 418.70 332.49 C 420.27 328.97 424.27 328.03 427.24 326.08 C 421.78 325.51 416.27 325.35 410.79 325.58 C 410.34 325.81 409.44 326.28 408.99 326.51 C 410.83 327.44 413.74 327.49 414.47 329.87 C 415.90 333.72 413.81 337.65 412.13 341.05 C 408.63 347.69 406.02 354.81 401.91 361.12 C 396.87 349.36 395.83 336.26 390.15 324.73 C 387.46 324.94 384.79 325.21 382.10 325.40 M 586.87 416.54 C 603.33 416.44 619.71 418.39 636.07 420.14 C 646.09 421.71 656.06 419.22 666.06 418.70 C 677.68 417.09 689.42 416.66 701.15 416.45 C 694.81 415.39 688.36 415.97 681.98 415.57 C 676.96 415.56 672.00 414.62 667.00 414.47 C 657.58 414.50 648.36 410.77 638.92 412.36 C 621.74 415.53 604.21 415.10 586.87 416.54 Z" />
<path fill="#ffffff" opacity="1.00" d=" M 451.31 188.35 C 459.74 178.15 467.95 167.74 476.95 158.03 C 474.11 179.01 471.14 199.98 468.09 220.94 C 453.95 221.32 439.85 220.00 425.77 218.98 C 433.64 208.25 442.94 198.68 451.31 188.35 Z" />
<path fill="#ffffff" opacity="1.00" d=" M 172.72 197.71 C 175.09 192.11 176.42 186.04 179.62 180.83 C 179.30 185.78 177.15 190.32 175.81 195.03 C 169.44 214.89 166.93 235.65 163.23 256.10 C 161.94 252.22 162.26 248.08 162.49 244.08 C 163.17 228.16 167.60 212.70 172.72 197.71 Z" />
<path fill="#ffffff" opacity="1.00" d=" M 642.40 198.57 C 645.68 197.61 649.50 197.68 652.49 199.50 C 656.46 202.67 657.63 208.09 657.71 212.94 C 657.02 229.75 651.78 246.43 642.26 260.35 C 637.98 266.20 631.59 271.40 623.99 271.35 C 619.76 271.36 616.06 268.39 614.64 264.50 C 612.69 259.23 612.81 253.43 613.48 247.93 C 615.02 236.02 619.21 224.53 625.20 214.14 C 629.17 207.42 634.80 201.12 642.40 198.57 Z" />
<path fill="#ffffff" opacity="1.00" d=" M 212.13 287.03 C 223.83 270.60 237.47 255.69 250.03 239.95 C 247.64 244.11 244.46 247.71 241.58 251.53 C 229.23 267.69 216.68 283.80 206.42 301.41 C 194.50 321.90 185.25 343.90 178.34 366.56 C 176.96 370.78 176.72 375.42 174.38 379.28 C 174.18 367.56 176.94 356.00 180.54 344.92 C 187.71 324.01 198.95 304.70 212.13 287.03 Z" />
<path fill="#ffffff" opacity="1.00" d=" M 78.00 261.02 C 98.89 285.65 120.50 309.92 137.75 337.34 C 145.31 349.68 151.55 362.82 156.52 376.40 C 157.81 379.79 158.55 383.37 158.72 386.99 C 144.54 360.29 131.52 332.79 113.89 308.10 C 102.51 291.96 89.52 277.04 78.00 261.02 Z" />
<path fill="#ffffff" opacity="1.00" d=" M 474.04 291.20 C 481.81 291.22 490.39 290.29 497.22 294.77 C 501.93 297.66 503.93 303.64 503.12 308.93 C 502.23 315.65 497.85 322.00 491.46 324.52 C 483.60 327.80 474.91 326.40 466.65 326.41 C 468.63 314.58 470.17 302.60 474.04 291.20 Z" />
<path fill="#ffffff" opacity="1.00" d=" M 586.74 326.70 C 589.56 325.14 592.70 326.47 595.37 327.67 C 596.68 332.35 595.99 337.85 592.19 341.20 C 587.30 346.46 579.75 347.90 572.86 347.34 C 575.21 339.38 578.51 330.25 586.74 326.70 Z" />
<path fill="#ffffff" opacity="1.00" d=" M 700.49 326.32 C 704.05 324.61 708.78 327.11 709.30 331.05 C 709.51 335.81 706.97 340.44 703.15 343.20 C 698.32 346.84 692.10 347.99 686.17 347.69 C 687.81 339.15 691.85 329.73 700.49 326.32 Z" />
<path fill="#ffffff" opacity="1.00" d=" M 840.44 326.68 C 843.86 325.02 849.85 325.50 850.62 330.04 C 850.26 340.19 845.15 349.35 839.94 357.79 C 837.27 361.86 833.85 366.10 828.92 367.34 C 825.14 368.46 821.48 364.66 821.63 360.99 C 821.42 352.95 823.98 344.99 828.25 338.23 C 831.37 333.58 834.89 328.57 840.44 326.68 Z" />
<path fill="#ffffff" opacity="1.00" d=" M 466.05 328.42 C 475.95 329.01 487.19 326.84 495.68 333.27 C 504.43 340.89 501.33 356.16 492.01 361.99 C 482.50 368.24 470.52 366.92 459.73 366.40 C 461.38 353.67 464.17 341.12 466.05 328.42 Z" />
<path fill="#ffffff" opacity="1.00" d=" M 29.30 345.09 C 32.08 347.14 34.68 349.42 37.41 351.55 C 56.44 366.80 79.26 376.02 100.60 387.44 C 115.50 395.15 129.66 404.56 141.60 416.42 C 144.87 419.76 148.07 423.26 150.37 427.37 C 140.55 420.73 131.70 412.75 122.06 405.84 C 114.81 400.73 107.63 395.50 100.01 390.95 C 97.50 389.29 94.50 388.13 92.78 385.53 C 92.15 385.41 90.90 385.17 90.27 385.05 C 68.91 373.48 47.04 362.00 29.30 345.09 Z" />
</g>
<g id="#63a64aff">
<path fill="#63a64a" opacity="1.00" d=" M 235.34 116.47 C 239.71 114.99 244.44 119.52 242.77 123.96 C 242.03 128.28 236.12 129.79 233.09 126.89 C 229.92 123.94 230.99 117.66 235.34 116.47 Z" />
<path fill="#63a64a" opacity="1.00" d=" M 188.94 134.02 C 191.17 130.80 192.93 127.29 195.21 124.12 C 199.99 138.30 202.84 153.13 204.09 168.03 C 204.82 178.07 203.98 188.23 201.47 197.99 C 198.23 209.49 191.60 219.77 183.59 228.54 C 178.36 234.68 172.72 240.59 168.64 247.60 C 165.61 252.73 164.25 258.58 162.65 264.25 C 161.30 257.50 160.55 250.61 158.55 243.99 C 154.63 230.62 149.42 217.23 149.86 203.06 C 149.85 188.45 156.09 174.47 165.26 163.32 C 173.37 153.73 181.80 144.37 188.94 134.02 M 172.72 197.71 C 167.60 212.70 163.17 228.16 162.49 244.08 C 162.26 248.08 161.94 252.22 163.23 256.10 C 166.93 235.65 169.44 214.89 175.81 195.03 C 177.15 190.32 179.30 185.78 179.62 180.83 C 176.42 186.04 175.09 192.11 172.72 197.71 Z" />
<path fill="#63a64a" opacity="1.00" d=" M 124.38 153.47 C 129.47 151.32 136.33 155.27 136.24 161.01 C 136.74 165.29 133.89 169.43 129.83 170.71 C 124.80 172.17 118.93 168.25 118.67 162.92 C 117.98 158.88 120.79 155.04 124.38 153.47 Z" />
<path fill="#63a64a" opacity="1.00" d=" M 99.35 198.18 C 101.91 196.05 106.43 198.62 105.08 201.94 C 104.87 204.78 100.70 206.16 99.00 203.91 C 97.47 202.34 97.37 199.43 99.35 198.18 Z" />
<path fill="#63a64a" opacity="1.00" d=" M 55.94 225.32 C 68.05 232.90 80.35 240.19 92.84 247.13 C 103.87 253.50 114.63 260.46 124.33 268.75 C 140.89 283.19 153.10 303.01 156.77 324.82 C 160.16 344.43 157.67 364.50 160.56 384.18 C 161.32 389.46 162.35 394.72 162.81 400.05 C 160.85 395.76 158.78 391.54 156.60 387.37 C 153.64 381.62 149.13 376.88 144.74 372.22 C 133.73 361.65 119.51 355.52 106.97 347.08 C 94.69 338.91 84.11 328.12 76.48 315.48 C 69.14 303.30 64.51 289.66 61.57 275.80 C 58.13 259.19 56.27 242.27 55.94 225.32 M 74.27 256.09 C 73.78 257.34 75.51 259.17 76.77 258.73 C 77.23 257.44 75.64 255.41 74.27 256.09 M 78.00 261.02 C 89.52 277.04 102.51 291.96 113.89 308.10 C 131.52 332.79 144.54 360.29 158.72 386.99 C 158.55 383.37 157.81 379.79 156.52 376.40 C 151.55 362.82 145.31 349.68 137.75 337.34 C 120.50 309.92 98.89 285.65 78.00 261.02 Z" />
<path fill="#63a64a" opacity="1.00" d=" M 6.61 317.46 C 12.65 320.52 18.67 323.60 24.94 326.16 C 45.86 335.14 69.08 337.86 89.25 348.73 C 114.19 361.53 132.87 384.24 144.47 409.42 C 147.39 416.12 150.61 422.72 152.73 429.74 C 136.16 423.33 118.09 424.04 100.87 420.68 C 90.19 418.82 79.97 414.81 70.66 409.31 C 45.01 394.41 27.14 369.15 15.60 342.32 C 12.30 334.16 8.80 326.01 6.61 317.46 M 29.30 345.09 C 47.04 362.00 68.91 373.48 90.27 385.05 C 90.90 385.17 92.15 385.41 92.78 385.53 C 94.50 388.13 97.50 389.29 100.01 390.95 C 107.63 395.50 114.81 400.73 122.06 405.84 C 131.70 412.75 140.55 420.73 150.37 427.37 C 148.07 423.26 144.87 419.76 141.60 416.42 C 129.66 404.56 115.50 395.15 100.60 387.44 C 79.26 376.02 56.44 366.80 37.41 351.55 C 34.68 349.42 32.08 347.14 29.30 345.09 Z" />
<path fill="#63a64a" opacity="1.00" d=" M 307.64 325.47 C 313.45 323.07 319.01 320.14 324.72 317.50 C 320.52 332.57 314.17 347.00 306.53 360.63 C 293.81 382.91 275.35 402.75 251.91 413.82 C 235.24 421.72 216.52 422.35 198.54 424.68 C 193.36 425.58 187.95 425.99 183.16 428.33 C 182.60 427.91 182.06 427.48 181.53 427.05 C 184.20 425.67 186.35 423.56 188.62 421.64 C 200.39 412.29 212.29 403.07 225.03 395.05 C 245.82 381.22 269.05 371.31 288.87 356.00 C 292.28 353.39 295.69 350.77 298.93 347.95 C 295.79 349.81 293.03 352.22 290.10 354.37 C 265.88 372.42 236.62 381.80 211.61 398.54 C 200.27 406.20 189.22 414.84 181.39 426.22 C 180.88 427.63 181.54 430.82 178.61 429.51 C 187.75 403.71 201.53 378.59 223.12 361.15 C 234.54 351.70 247.96 344.85 262.04 340.31 C 277.22 335.34 292.92 331.84 307.64 325.47 Z" />
</g>
<g id="#5f3d94ff">
<path fill="#5f3d94" opacity="1.00" d=" M 107.36 116.50 C 108.88 119.55 110.13 122.88 112.70 125.23 C 114.75 127.33 117.49 128.48 120.13 129.64 C 114.44 132.38 109.74 136.91 107.20 142.73 C 104.91 136.89 100.18 132.58 94.79 129.60 C 100.78 127.44 105.13 122.33 107.36 116.50 Z" />
<path fill="#5f3d94" opacity="1.00" d=" M 234.82 227.77 C 248.38 219.74 261.64 211.17 274.02 201.38 C 272.88 222.78 270.87 244.21 266.18 265.15 C 262.25 282.64 254.96 299.62 243.41 313.45 C 233.13 326.04 219.51 335.13 206.55 344.68 C 195.89 352.54 185.80 361.88 179.98 373.99 C 176.79 381.04 174.56 388.53 173.37 396.18 C 172.21 387.17 172.67 378.07 172.05 369.03 C 170.89 348.71 167.97 328.21 171.15 307.92 C 173.93 289.85 181.40 272.32 193.71 258.66 C 205.01 245.51 220.12 236.59 234.82 227.77 M 212.13 287.03 C 198.95 304.70 187.71 324.01 180.54 344.92 C 176.94 356.00 174.18 367.56 174.38 379.28 C 176.72 375.42 176.96 370.78 178.34 366.56 C 185.25 343.90 194.50 321.90 206.42 301.41 C 216.68 283.80 229.23 267.69 241.58 251.53 C 244.46 247.71 247.64 244.11 250.03 239.95 C 237.47 255.69 223.83 270.60 212.13 287.03 Z" />
<path fill="#5f3d94" opacity="1.00" d=" M 120.52 207.65 C 124.36 205.98 129.39 208.65 129.68 212.94 C 130.55 217.86 125.18 222.76 120.41 220.59 C 114.75 218.69 114.89 209.50 120.52 207.65 Z" />
</g>
<g id="#16082dff">
<path fill="#16082d" opacity="1.00" d=" M 483.08 146.05 C 485.92 143.33 490.18 144.09 493.74 144.15 C 489.49 164.55 487.69 185.34 484.62 205.92 C 482.52 221.58 480.71 237.27 478.64 252.92 C 478.24 257.18 477.29 262.15 480.19 265.77 C 484.68 270.11 491.71 267.16 496.75 270.42 C 493.55 271.12 490.27 271.35 487.00 271.24 C 471.93 270.87 456.86 271.17 441.79 271.24 C 441.77 270.30 441.75 269.36 441.73 268.43 C 447.59 268.27 453.97 269.30 459.31 266.31 C 461.99 263.21 463.25 259.17 463.64 255.14 C 465.14 244.65 466.67 234.15 467.55 223.59 C 453.00 223.77 438.46 223.36 423.92 222.96 C 421.95 222.52 420.58 224.09 419.24 225.21 C 412.58 231.20 407.03 238.36 399.80 243.73 C 387.64 254.31 374.82 264.59 359.84 270.89 C 350.72 274.60 340.70 276.91 330.84 275.65 C 324.32 274.73 317.32 271.52 314.59 265.14 C 311.87 256.92 315.61 247.44 322.82 242.82 C 321.29 245.94 319.95 249.45 320.87 252.97 C 321.95 258.75 327.35 262.30 332.41 264.40 C 342.66 268.38 354.19 266.39 364.05 262.20 C 385.05 253.81 401.59 237.87 417.84 222.67 C 406.12 222.41 393.73 222.36 383.16 216.59 C 384.27 213.42 385.73 210.38 387.69 207.65 C 398.81 212.04 410.28 215.61 422.02 217.93 C 435.92 202.14 449.46 186.04 462.75 169.73 C 469.57 161.88 475.37 153.10 483.08 146.05 M 451.31 188.35 C 442.94 198.68 433.64 208.25 425.77 218.98 C 439.85 220.00 453.95 221.32 468.09 220.94 C 471.14 199.98 474.11 179.01 476.95 158.03 C 467.95 167.74 459.74 178.15 451.31 188.35 Z" />
<path fill="#16082d" opacity="1.00" d=" M 530.57 200.55 C 534.48 197.24 539.84 195.05 544.98 196.36 C 548.00 197.02 550.67 199.69 550.63 202.91 C 551.46 213.18 545.66 222.26 543.66 232.06 C 549.39 223.64 554.04 214.47 560.73 206.72 C 564.61 201.81 569.94 197.79 576.17 196.52 C 580.06 195.88 584.73 196.27 587.44 199.51 C 592.90 206.02 590.73 217.24 583.22 221.22 C 579.00 223.43 572.68 221.05 571.92 216.09 C 570.93 211.46 574.24 207.63 576.74 204.16 C 575.99 202.87 575.28 201.59 574.53 200.33 C 570.05 201.76 565.78 204.11 562.82 207.83 C 553.24 220.05 544.53 233.10 538.50 247.46 C 534.90 255.14 532.57 263.32 529.42 271.18 C 525.57 271.07 521.72 271.10 517.87 271.07 C 524.16 252.42 530.42 233.76 536.49 215.03 C 537.80 211.08 538.74 207.01 539.21 202.87 C 537.52 202.10 535.56 200.41 533.70 201.75 C 528.38 204.38 525.44 209.85 522.85 214.92 C 521.66 217.06 520.85 219.60 518.65 220.96 C 520.01 213.04 524.42 205.69 530.57 200.55 Z" />
<path fill="#16082d" opacity="1.00" d=" M 638.54 196.75 C 645.84 195.01 654.23 195.01 660.58 199.53 C 668.06 204.69 671.42 214.22 670.97 223.04 C 669.67 244.06 655.00 262.92 636.08 271.45 C 627.08 275.09 615.70 274.57 608.30 267.78 C 602.21 262.40 600.27 253.86 600.44 246.04 C 601.13 230.85 608.67 216.13 620.51 206.61 C 625.76 202.18 631.73 198.26 638.54 196.75 M 642.40 198.57 C 634.80 201.12 629.17 207.42 625.20 214.14 C 619.21 224.53 615.02 236.02 613.48 247.93 C 612.81 253.43 612.69 259.23 614.64 264.50 C 616.06 268.39 619.76 271.36 623.99 271.35 C 631.59 271.40 637.98 266.20 642.26 260.35 C 651.78 246.43 657.02 229.75 657.71 212.94 C 657.63 208.09 656.46 202.67 652.49 199.50 C 649.50 197.68 645.68 197.61 642.40 198.57 Z" />
<path fill="#16082d" opacity="1.00" d=" M 699.32 202.30 C 704.29 196.75 712.64 194.67 719.60 197.42 C 723.61 205.07 720.27 213.54 717.59 221.00 C 716.69 224.89 714.33 228.30 714.01 232.34 C 719.85 224.68 724.20 215.89 730.99 208.96 C 736.38 203.10 742.67 197.01 750.96 196.02 C 755.47 195.41 761.19 197.20 762.61 201.99 C 765.55 211.64 760.10 220.91 758.23 230.18 C 765.13 220.25 771.69 209.84 781.01 201.94 C 785.51 197.69 791.84 194.96 798.09 196.14 C 803.13 196.99 806.72 201.97 806.79 206.94 C 807.32 215.40 803.51 223.22 800.55 230.91 C 796.39 241.59 791.00 251.88 788.56 263.15 C 788.03 264.73 789.02 266.21 789.43 267.70 C 795.55 269.58 800.80 264.58 803.79 259.83 C 806.67 255.98 807.75 250.77 811.88 247.94 C 810.83 253.95 807.18 258.97 803.79 263.87 C 800.06 269.39 793.93 273.83 787.00 273.52 C 781.89 273.56 777.35 269.19 777.04 264.12 C 776.84 258.67 778.31 253.33 780.09 248.23 C 783.28 239.72 786.36 231.17 789.97 222.82 C 791.86 217.96 794.07 213.14 795.07 207.99 C 795.72 205.19 794.12 201.79 790.97 201.62 C 785.77 200.95 781.85 205.18 778.15 208.15 C 767.94 218.71 759.87 231.19 753.09 244.17 C 749.04 252.86 745.83 261.90 742.59 270.91 C 738.53 271.17 734.47 271.02 730.41 271.01 C 736.51 253.34 742.87 235.75 749.14 218.14 C 751.02 212.80 752.12 206.92 750.20 201.42 C 744.39 201.01 738.85 203.83 735.05 208.09 C 724.31 219.80 715.48 233.22 708.42 247.44 C 704.76 255.10 701.94 263.11 699.06 271.08 C 695.11 271.13 691.16 271.13 687.21 271.14 C 691.31 260.14 694.97 248.98 699.04 237.96 C 702.61 227.02 707.66 216.46 709.41 205.00 C 709.75 203.24 708.26 201.89 707.52 200.45 C 701.08 202.08 697.06 207.74 694.39 213.43 C 692.94 216.18 691.87 219.28 689.23 221.16 C 690.33 213.92 694.55 207.66 699.32 202.30 Z" />
<path fill="#16082d" opacity="1.00" d=" M 865.87 197.64 C 871.30 195.74 877.46 194.99 882.98 196.98 C 885.79 197.83 886.89 200.83 888.34 203.09 C 889.33 201.59 889.97 199.71 891.49 198.66 C 895.26 198.21 899.08 198.46 902.87 198.25 C 895.30 217.00 888.99 236.23 882.54 255.38 C 881.46 259.09 879.65 263.09 880.95 266.97 C 881.76 269.68 885.36 269.45 887.39 268.34 C 894.33 263.68 898.11 255.96 901.87 248.78 L 903.17 248.94 L 903.58 249.68 C 900.18 257.82 895.79 266.23 888.14 271.14 C 884.20 273.76 878.70 274.90 874.43 272.44 C 870.86 270.33 869.65 265.81 870.19 261.91 C 871.04 254.79 873.23 247.92 875.18 241.05 C 875.63 239.60 874.59 238.23 874.29 236.87 C 879.45 227.57 883.85 217.60 885.11 206.94 C 885.43 204.11 883.74 201.04 880.96 200.15 C 875.38 198.14 869.02 199.71 864.42 203.27 C 852.52 212.03 845.31 225.53 839.80 238.92 C 837.00 246.78 833.72 255.21 835.54 263.66 C 836.79 268.63 842.92 269.18 847.05 267.89 C 847.87 268.82 848.68 269.75 849.51 270.69 C 844.54 273.26 838.59 274.82 833.14 272.87 C 827.15 270.60 823.54 264.28 823.06 258.09 C 821.79 247.69 825.51 237.44 830.63 228.56 C 838.66 214.88 850.85 203.21 865.87 197.64 Z" />
<path fill="#16082d" opacity="1.00" d=" M 848.04 267.11 C 859.58 260.63 866.42 248.73 874.03 238.37 C 873.97 240.20 874.19 242.21 873.05 243.80 C 866.87 253.37 859.80 262.54 850.90 269.75 C 849.93 268.87 848.98 267.99 848.04 267.11 Z" />
<path fill="#16082d" opacity="1.00" d=" M 450.77 289.15 C 456.18 289.03 461.58 289.34 466.99 289.38 C 478.00 289.63 489.20 288.36 500.01 291.07 C 506.03 292.25 511.59 296.20 514.20 301.82 C 516.46 307.95 514.40 315.29 509.52 319.58 C 504.41 324.40 497.45 326.35 490.76 327.84 C 497.21 329.58 504.64 330.34 509.30 335.72 C 514.34 340.47 514.22 348.49 511.25 354.32 C 507.50 361.47 500.05 366.20 492.21 367.63 C 490.87 366.80 489.42 366.21 487.86 366.02 C 488.36 366.53 489.36 367.56 489.85 368.07 C 480.99 369.66 471.94 368.85 463.00 368.91 C 454.79 369.19 446.58 368.82 438.39 369.46 L 438.38 367.43 C 442.61 367.09 448.94 367.70 449.87 362.16 C 453.83 342.90 456.92 323.44 460.15 304.04 C 460.66 300.15 461.87 296.19 460.76 292.29 C 457.75 291.10 454.50 291.09 451.33 290.72 C 451.19 290.33 450.91 289.54 450.77 289.15 M 474.04 291.20 C 470.17 302.60 468.63 314.58 466.65 326.41 C 474.91 326.40 483.60 327.80 491.46 324.52 C 497.85 322.00 502.23 315.65 503.12 308.93 C 503.93 303.64 501.93 297.66 497.22 294.77 C 490.39 290.29 481.81 291.22 474.04 291.20 M 466.05 328.42 C 464.17 341.12 461.38 353.67 459.73 366.40 C 470.52 366.92 482.50 368.24 492.01 361.99 C 501.33 356.16 504.43 340.89 495.68 333.27 C 487.19 326.84 475.95 329.01 466.05 328.42 Z" />
<path fill="#16082d" opacity="1.00" d=" M 544.17 300.07 C 547.91 297.81 552.82 301.86 552.23 305.92 C 551.12 309.06 547.27 311.37 544.06 309.98 C 540.46 307.98 540.17 301.79 544.17 300.07 Z" />
<path fill="#16082d" opacity="1.00" d=" M 786.06 311.42 C 788.70 311.41 791.34 311.32 793.98 311.18 C 792.87 316.20 791.79 321.24 790.78 326.29 C 795.25 326.15 799.73 325.83 804.20 326.30 C 804.02 326.62 803.64 327.25 803.45 327.57 C 799.17 328.16 794.72 327.34 790.52 328.44 C 789.19 331.84 788.72 335.48 787.93 339.03 C 786.43 346.36 784.41 353.60 783.51 361.04 C 783.02 363.71 784.37 366.72 786.99 367.72 C 790.58 368.60 794.65 366.74 796.41 363.48 C 797.68 361.74 798.31 358.73 801.04 358.99 C 798.49 364.09 794.59 369.45 788.57 370.43 C 784.99 370.95 780.74 370.49 778.18 367.68 C 775.41 363.91 775.66 358.88 776.59 354.53 C 778.37 345.60 780.81 336.77 781.57 327.67 C 779.09 327.09 775.00 329.17 773.67 326.33 C 776.55 325.92 779.60 326.34 782.40 325.65 C 783.99 321.01 784.66 316.11 786.06 311.42 Z" />
<path fill="#16082d" opacity="1.00" d=" M 530.10 331.04 C 532.73 326.38 538.35 322.97 543.76 324.30 C 545.73 326.31 547.08 329.16 546.72 332.03 C 546.05 341.73 541.98 350.72 539.85 360.12 C 539.21 362.73 539.21 365.56 540.85 367.83 C 546.02 367.89 547.87 362.64 550.10 358.96 C 550.40 359.26 551.01 359.85 551.32 360.14 C 548.92 363.63 547.19 368.29 542.84 369.76 C 539.44 371.23 534.65 370.58 532.82 367.05 C 531.92 364.79 531.89 362.26 532.21 359.88 C 533.79 348.99 539.23 338.70 538.79 327.54 C 537.32 327.79 535.81 327.89 534.41 328.40 C 532.24 330.66 530.70 333.43 528.69 335.82 C 528.66 336.30 528.59 337.27 528.55 337.75 C 527.43 335.41 529.08 333.09 530.10 331.04 Z" />
<path fill="#16082d" opacity="1.00" d=" M 563.29 349.85 C 565.47 337.57 575.18 326.04 587.94 324.29 C 592.93 323.86 599.25 324.31 602.20 329.02 C 605.00 333.63 602.66 339.60 598.58 342.60 C 591.26 349.00 581.08 349.28 571.89 349.76 C 571.82 354.84 570.62 360.62 573.83 365.04 C 576.52 368.67 581.74 368.99 585.68 367.46 C 590.26 366.06 592.96 361.77 597.02 359.47 C 592.58 368.48 580.57 373.47 571.36 368.68 C 564.38 365.51 561.93 356.90 563.29 349.85 M 586.74 326.70 C 578.51 330.25 575.21 339.38 572.86 347.34 C 579.75 347.90 587.30 346.46 592.19 341.20 C 595.99 337.85 596.68 332.35 595.37 327.67 C 592.70 326.47 589.56 325.14 586.74 326.70 Z" />
<path fill="#16082d" opacity="1.00" d=" M 619.58 326.63 C 622.31 324.71 625.68 323.17 629.09 323.89 C 631.80 324.49 632.49 327.57 632.46 329.96 C 632.23 334.20 630.45 338.12 629.34 342.16 C 633.90 337.78 636.51 331.71 641.45 327.68 C 645.37 324.27 651.25 322.78 656.16 324.80 C 659.67 326.30 660.84 330.53 660.70 334.05 C 660.38 344.52 654.13 353.66 653.02 363.98 C 652.58 365.68 654.03 368.29 656.01 367.55 C 659.90 365.81 661.40 361.47 663.62 358.14 C 663.77 358.60 664.05 359.52 664.20 359.98 C 661.90 363.89 659.77 368.84 654.93 370.06 C 651.13 371.67 645.70 369.35 645.48 364.91 C 645.05 353.11 652.74 342.78 652.54 331.01 C 652.13 327.99 648.46 326.94 645.88 327.35 C 642.95 327.62 641.01 330.08 639.15 332.08 C 629.87 342.44 625.65 356.04 621.73 369.11 C 619.33 369.20 616.94 369.25 614.55 369.32 C 618.13 355.24 622.54 341.38 625.63 327.17 C 620.27 326.12 616.87 331.14 615.32 335.50 C 614.79 335.62 613.72 335.87 613.19 335.99 C 615.27 332.85 616.39 328.91 619.58 326.63 Z" />
<path fill="#16082d" opacity="1.00" d=" M 685.93 331.95 C 692.54 325.42 703.10 321.83 711.90 325.95 C 717.35 328.53 717.90 336.65 713.72 340.63 C 706.50 348.50 695.10 349.64 685.04 349.72 C 684.68 354.81 683.72 360.60 686.95 365.02 C 688.67 367.64 692.06 368.29 694.98 368.11 C 700.10 367.75 704.58 364.55 707.57 360.53 C 708.20 360.44 709.46 360.27 710.09 360.19 C 705.94 365.95 699.43 370.66 692.03 370.26 C 685.24 370.56 678.34 365.93 676.78 359.17 C 674.22 349.26 678.92 338.88 685.93 331.95 M 700.49 326.32 C 691.85 329.73 687.81 339.15 686.17 347.69 C 692.10 347.99 698.32 346.84 703.15 343.20 C 706.97 340.44 709.51 335.81 709.30 331.05 C 708.78 327.11 704.05 324.61 700.49 326.32 Z" />
<path fill="#16082d" opacity="1.00" d=" M 740.96 325.13 C 747.33 323.13 755.52 323.29 760.10 328.83 C 762.83 331.86 761.30 337.80 756.97 338.22 C 754.67 337.49 753.32 335.38 751.89 333.61 C 753.49 331.79 755.23 329.91 755.64 327.41 C 750.56 324.46 742.52 324.63 739.60 330.46 C 737.29 333.99 739.45 338.34 742.50 340.60 C 747.52 344.77 754.40 347.63 756.84 354.15 C 758.65 361.72 751.83 368.20 745.05 370.00 C 740.13 371.28 734.64 370.88 730.09 368.55 C 726.82 366.67 724.19 362.92 724.93 359.01 C 726.37 356.34 729.74 354.26 732.62 356.16 C 733.12 357.38 733.64 358.61 734.15 359.84 C 733.02 361.83 731.97 363.87 731.02 365.95 C 732.63 367.16 734.30 368.32 736.00 369.43 C 740.00 369.02 745.02 369.32 747.59 365.58 C 750.05 362.81 750.18 358.23 747.60 355.50 C 742.75 350.29 734.82 347.90 732.08 340.83 C 729.33 334.23 734.64 327.01 740.96 325.13 Z" />
<path fill="#16082d" opacity="1.00" d=" M 829.19 329.15 C 834.69 325.55 841.60 322.63 848.22 324.76 C 850.34 325.27 851.28 327.45 852.60 328.99 C 852.66 328.25 852.78 326.79 852.84 326.06 C 855.66 325.87 858.48 325.60 861.31 325.35 C 858.06 336.14 854.74 346.91 851.78 357.79 C 850.86 361.38 849.21 366.16 852.97 368.73 C 857.16 366.28 859.45 361.93 861.88 357.92 C 863.03 359.06 862.00 360.47 861.47 361.62 C 859.46 365.54 856.39 369.45 851.86 370.41 C 849.18 371.08 846.76 369.32 844.43 368.29 C 842.61 362.36 845.14 356.57 845.81 350.73 C 842.49 356.43 839.59 362.66 834.24 366.80 C 829.77 370.67 822.67 371.86 817.71 368.24 C 813.56 364.81 812.82 358.90 813.36 353.86 C 814.49 343.76 820.86 334.74 829.19 329.15 M 840.44 326.68 C 834.89 328.57 831.37 333.58 828.25 338.23 C 823.98 344.99 821.42 352.95 821.63 360.99 C 821.48 364.66 825.14 368.46 828.92 367.34 C 833.85 366.10 837.27 361.86 839.94 357.79 C 845.15 349.35 850.26 340.19 850.62 330.04 C 849.85 325.50 843.86 325.02 840.44 326.68 Z" />
<path fill="#16082d" opacity="1.00" d=" M 873.58 336.14 C 874.52 330.57 878.52 325.62 883.88 323.77 C 886.64 323.71 890.41 324.75 890.91 327.94 C 891.81 333.20 889.64 338.24 888.95 343.38 C 892.97 337.64 895.44 330.48 901.57 326.48 C 905.14 323.79 911.06 323.02 914.21 326.74 C 917.71 331.25 914.75 339.10 909.01 339.91 C 906.33 340.32 904.48 337.44 904.12 335.15 C 905.13 332.24 906.56 329.49 907.49 326.54 C 900.88 327.13 896.70 332.81 893.80 338.17 C 887.93 347.61 883.99 358.14 881.51 368.94 C 878.98 369.12 876.45 369.26 873.94 369.44 C 877.14 357.60 880.57 345.82 883.34 333.87 C 883.98 331.38 883.17 328.87 882.71 326.44 C 878.22 328.12 876.63 332.90 873.58 336.14 Z" />
<path fill="#16082d" opacity="1.00" d=" M 382.10 325.40 C 384.79 325.21 387.46 324.94 390.15 324.73 C 395.83 336.26 396.87 349.36 401.91 361.12 C 406.02 354.81 408.63 347.69 412.13 341.05 C 413.81 337.65 415.90 333.72 414.47 329.87 C 413.74 327.49 410.83 327.44 408.99 326.51 C 409.44 326.28 410.34 325.81 410.79 325.58 C 416.27 325.35 421.78 325.51 427.24 326.08 C 424.27 328.03 420.27 328.97 418.70 332.49 C 409.30 349.86 402.03 368.44 390.70 384.72 C 388.04 388.30 384.46 391.40 380.12 392.68 C 376.32 393.71 372.45 392.16 369.42 389.91 C 369.11 388.30 368.79 386.70 368.47 385.11 C 369.88 383.73 371.33 382.39 372.83 381.10 C 374.81 382.14 376.71 383.37 378.40 384.86 C 377.94 386.95 377.50 389.05 377.10 391.16 C 387.92 390.09 392.60 379.04 396.72 370.51 C 393.70 360.79 390.30 351.19 387.44 341.42 C 386.03 337.10 385.00 332.48 382.22 328.78 C 381.12 327.14 378.79 327.74 377.19 327.23 C 377.64 324.90 380.45 325.85 382.10 325.40 Z" />
<path fill="#16082d" opacity="1.00" d=" M 586.87 416.54 C 604.21 415.10 621.74 415.53 638.92 412.36 C 648.36 410.77 657.58 414.50 667.00 414.47 C 672.00 414.62 676.96 415.56 681.98 415.57 C 688.36 415.97 694.81 415.39 701.15 416.45 C 689.42 416.66 677.68 417.09 666.06 418.70 C 656.06 419.22 646.09 421.71 636.07 420.14 C 619.71 418.39 603.33 416.44 586.87 416.54 Z" />
</g>
<g id="#a5ca99ff">
<path fill="#a5ca99" opacity="1.00" d=" M 74.27 256.09 C 75.64 255.41 77.23 257.44 76.77 258.73 C 75.51 259.17 73.78 257.34 74.27 256.09 Z" />
</g>
</svg>
