<?xml version="1.0" encoding="UTF-8" ?>
<!DOCTYPE svg PUBLIC "-//W3C//DTD SVG 1.1//EN" "http://www.w3.org/Graphics/SVG/1.1/DTD/svg11.dtd">
<svg width="1024pt" height="1024pt" viewBox="0 0 1024 1024" version="1.1" xmlns="http://www.w3.org/2000/svg">
<g id="#ffffffff">
<path fill="#ffffff" opacity="1.00" d=" M 0.00 0.00 L 1024.00 0.00 L 1024.00 1024.00 L 0.00 1024.00 L 0.00 0.00 M 402.01 300.97 C 399.07 303.97 394.86 304.91 391.33 306.97 C 401.24 310.26 408.77 318.61 412.37 328.26 C 416.11 318.46 423.95 310.11 434.11 306.98 C 429.99 305.29 425.71 303.62 422.37 300.58 C 417.40 296.63 414.91 290.68 412.70 284.92 C 410.40 290.99 406.99 296.72 402.01 300.97 M 616.45 285.80 C 610.74 288.00 609.09 295.82 612.39 300.68 C 614.99 305.05 621.20 305.71 625.39 303.37 C 628.34 301.28 630.01 297.61 629.58 294.00 C 630.06 287.54 622.00 283.28 616.45 285.80 M 546.85 307.73 C 535.12 326.20 520.50 342.58 506.18 359.04 C 497.20 370.43 489.10 382.85 484.91 396.87 C 480.22 411.09 479.47 426.41 481.48 441.18 C 484.53 463.07 494.06 483.36 498.00 505.04 C 498.88 511.11 500.29 517.09 500.77 523.21 C 503.71 513.20 505.85 502.64 511.67 493.77 C 520.85 479.04 533.62 467.03 544.22 453.39 C 550.11 445.90 554.70 437.49 558.69 428.87 C 563.21 418.96 565.32 408.19 566.75 397.45 C 569.88 373.03 565.91 348.44 560.70 324.60 C 559.19 315.42 555.90 306.69 553.25 297.81 C 550.18 300.39 549.16 304.54 546.85 307.73 M 439.47 344.79 C 435.53 346.78 432.10 350.16 430.83 354.47 C 429.94 358.69 430.71 363.29 433.04 366.93 C 436.06 370.35 440.27 373.16 445.05 372.79 C 449.31 373.25 452.86 370.42 455.70 367.62 C 458.94 363.74 459.49 358.22 458.41 353.43 C 456.16 345.83 446.67 341.70 439.47 344.79 M 402.24 415.26 C 396.45 415.68 395.78 424.02 400.35 426.66 C 405.25 429.63 411.53 423.05 408.75 418.18 C 407.89 415.37 404.78 414.85 402.24 415.26 M 660.94 434.89 C 635.14 454.08 606.01 468.17 579.89 486.88 C 553.74 505.13 532.54 531.14 522.20 561.48 C 513.80 584.65 511.50 609.55 512.34 634.04 C 513.03 654.38 515.34 674.63 516.31 694.96 C 516.71 708.04 516.91 721.13 517.64 734.20 C 521.43 716.92 525.86 699.04 536.57 684.57 C 547.34 668.72 562.80 657.03 578.02 645.77 C 598.45 631.37 618.87 616.15 634.13 596.07 C 647.97 577.93 657.81 556.91 663.88 534.95 C 673.72 497.90 677.33 459.50 679.27 421.32 C 673.20 425.88 667.28 430.69 660.94 434.89 M 433.33 431.53 C 426.22 434.08 424.50 444.22 429.46 449.55 C 433.30 453.95 440.97 454.20 444.93 449.82 C 448.73 446.40 449.54 440.43 447.14 435.99 C 444.69 431.19 438.13 429.21 433.33 431.53 M 330.24 459.78 C 330.72 487.56 333.83 515.32 339.66 542.49 C 346.00 571.57 357.27 600.28 376.80 623.11 C 391.82 641.81 411.79 655.83 432.69 667.24 C 448.73 677.06 465.90 686.22 478.02 700.99 C 481.66 705.04 485.29 709.15 488.27 713.72 C 493.27 722.23 497.38 731.21 501.75 740.04 C 500.13 725.99 496.52 712.16 496.27 697.98 C 494.93 685.35 495.63 672.63 494.75 659.98 C 495.04 642.95 493.75 625.83 489.71 609.25 C 480.78 571.94 456.26 539.49 425.14 517.60 C 408.80 505.50 391.20 495.27 373.32 485.64 C 362.11 478.86 350.74 472.33 339.57 465.48 C 336.44 463.60 333.66 461.15 330.24 459.78 M 251.20 606.89 C 253.72 617.66 258.18 627.83 262.03 638.17 C 277.80 677.74 301.28 715.42 335.33 741.76 C 348.97 752.18 364.06 760.74 380.17 766.71 C 392.44 770.63 405.09 773.52 417.92 774.76 C 440.33 778.04 463.74 778.08 484.91 787.04 C 484.68 782.70 482.41 778.90 481.04 774.88 C 474.27 758.78 467.22 742.69 457.83 727.91 C 449.54 714.09 439.48 701.32 428.01 690.00 C 407.73 669.05 381.97 653.72 354.32 644.68 C 334.68 637.74 314.23 633.40 294.62 626.38 C 279.60 621.20 265.23 614.29 251.20 606.89 M 739.81 616.85 C 723.44 624.41 706.25 630.04 688.91 634.91 C 686.92 635.19 684.64 637.10 682.77 635.80 C 682.81 637.33 680.96 637.05 680.03 637.56 C 656.53 643.95 633.26 652.28 612.83 665.79 C 595.53 677.43 579.85 691.67 567.34 708.40 C 549.10 731.82 536.31 758.97 526.31 786.78 C 532.16 785.32 537.51 782.22 543.53 781.40 C 568.81 776.02 595.00 776.37 620.07 769.81 C 636.77 765.75 652.34 758.02 666.60 748.55 C 689.76 732.35 709.30 711.24 724.60 687.54 C 740.22 662.51 752.32 635.31 760.69 607.01 C 753.54 609.88 746.94 613.95 739.81 616.85 Z" />
<path fill="#ffffff" opacity="1.00" d=" M 523.27 399.14 C 524.68 395.96 525.27 392.30 527.76 389.73 C 528.34 394.58 525.75 398.87 524.53 403.39 C 518.41 421.96 513.58 440.96 510.29 460.25 C 507.26 476.55 505.05 492.99 501.70 509.21 C 500.37 505.52 500.86 501.61 500.59 497.79 C 500.39 497.59 500.00 497.19 499.80 496.99 C 501.62 494.34 500.19 490.61 500.91 487.54 C 501.79 472.28 504.80 457.22 508.68 442.46 C 511.23 434.20 513.76 425.93 516.42 417.70 C 516.17 417.37 515.67 416.71 515.42 416.38 C 515.82 416.48 516.64 416.68 517.04 416.78 C 518.70 410.76 521.24 405.03 523.27 399.14 Z" />
<path fill="#ffffff" opacity="1.00" d=" M 642.83 480.11 C 639.29 486.56 634.57 492.23 630.07 498.02 C 612.14 521.30 594.14 544.58 578.30 569.35 C 561.49 595.93 548.06 624.54 536.80 653.87 C 534.39 659.36 533.17 665.29 530.92 670.85 C 528.66 676.29 527.31 682.03 525.52 687.63 C 523.59 693.80 523.10 700.44 520.18 706.28 C 519.08 696.16 521.13 685.97 522.96 676.03 C 527.73 652.56 536.80 630.16 548.05 609.08 C 560.43 584.48 577.24 562.53 593.54 540.46 C 609.87 520.27 627.17 500.84 642.83 480.11 Z" />
<path fill="#ffffff" opacity="1.00" d=" M 359.93 508.24 C 372.62 526.56 388.17 542.64 402.02 560.04 C 407.41 565.99 412.55 572.16 417.35 578.61 C 422.31 584.72 427.46 590.71 431.92 597.22 C 437.31 603.89 442.36 610.86 447.07 618.03 C 462.41 638.58 474.60 661.32 484.71 684.84 C 488.62 695.71 494.52 706.27 494.67 718.10 C 490.10 710.01 485.90 701.74 481.85 693.39 C 474.95 681.05 468.76 668.32 462.12 655.83 C 455.70 644.34 449.35 632.79 442.31 621.67 C 424.61 591.26 401.94 564.23 380.42 536.52 C 376.16 530.78 371.34 525.46 367.52 519.40 C 365.15 515.57 361.89 512.33 359.93 508.24 Z" />
<path fill="#ffffff" opacity="1.00" d=" M 285.31 648.97 C 299.24 661.26 314.06 672.69 330.23 681.90 C 342.68 689.30 355.72 695.62 368.47 702.47 C 386.48 710.70 403.89 720.13 421.13 729.84 C 425.64 732.57 429.89 735.71 434.32 738.58 C 444.80 745.15 454.11 753.37 463.36 761.52 C 470.27 768.39 477.24 775.46 482.16 783.93 C 479.18 781.51 475.80 779.64 472.89 777.15 C 465.09 770.50 456.85 764.40 448.68 758.23 C 443.52 753.65 437.85 749.70 432.19 745.77 C 418.57 735.64 404.17 726.61 389.67 717.80 C 392.20 716.27 388.20 714.32 387.28 716.35 C 377.27 711.30 367.79 705.27 357.75 700.27 C 354.34 697.94 349.90 696.85 347.24 693.63 C 346.96 693.71 346.39 693.86 346.11 693.93 C 335.29 686.68 323.80 680.44 313.43 672.54 C 303.48 665.42 294.06 657.52 285.31 648.97 Z" />
<path fill="#ffffff" opacity="1.00" d=" M 682.98 681.01 C 698.13 671.91 712.12 661.04 725.88 649.99 C 706.30 667.58 684.62 682.78 661.73 695.76 C 647.67 703.27 633.96 711.43 620.01 719.16 C 596.94 733.25 574.35 748.24 553.40 765.36 C 550.33 768.03 546.67 769.92 543.74 772.73 C 539.47 776.86 534.66 780.38 529.95 783.98 C 530.49 782.52 530.90 780.97 531.78 779.67 C 537.26 773.52 542.02 766.70 548.18 761.16 C 561.22 749.38 575.36 738.80 590.54 729.93 L 590.15 731.64 C 590.65 730.78 590.94 729.74 591.78 729.13 C 602.54 722.01 614.57 717.15 625.65 710.59 C 633.74 706.67 641.82 702.71 649.96 698.89 C 660.93 692.86 672.16 687.31 682.98 681.01 Z" />
</g>
<g id="#5f3d94ff">
<path fill="#5f3d94" opacity="1.00" d=" M 402.01 300.97 C 406.99 296.72 410.40 290.99 412.70 284.92 C 414.91 290.68 417.40 296.63 422.37 300.58 C 425.71 303.62 429.99 305.29 434.11 306.98 C 423.95 310.11 416.11 318.46 412.37 328.26 C 408.77 318.61 401.24 310.26 391.33 306.97 C 394.86 304.91 399.07 303.97 402.01 300.97 Z" />
<path fill="#5f3d94" opacity="1.00" d=" M 660.94 434.89 C 667.28 430.69 673.20 425.88 679.27 421.32 C 677.33 459.50 673.72 497.90 663.88 534.95 C 657.81 556.91 647.97 577.93 634.13 596.07 C 618.87 616.15 598.45 631.37 578.02 645.77 C 562.80 657.03 547.34 668.72 536.57 684.57 C 525.86 699.04 521.43 716.92 517.64 734.20 C 516.91 721.13 516.71 708.04 516.31 694.96 C 515.34 674.63 513.03 654.38 512.34 634.04 C 511.50 609.55 513.80 584.65 522.20 561.48 C 532.54 531.14 553.74 505.13 579.89 486.88 C 606.01 468.17 635.14 454.08 660.94 434.89 M 642.83 480.11 C 627.17 500.84 609.87 520.27 593.54 540.46 C 577.24 562.53 560.43 584.48 548.05 609.08 C 536.80 630.16 527.73 652.56 522.96 676.03 C 521.13 685.97 519.08 696.16 520.18 706.28 C 523.10 700.44 523.59 693.80 525.52 687.63 C 527.31 682.03 528.66 676.29 530.92 670.85 C 533.17 665.29 534.39 659.36 536.80 653.87 C 548.06 624.54 561.49 595.93 578.30 569.35 C 594.14 544.58 612.14 521.30 630.07 498.02 C 634.57 492.23 639.29 486.56 642.83 480.11 Z" />
<path fill="#5f3d94" opacity="1.00" d=" M 433.33 431.53 C 438.13 429.21 444.69 431.19 447.14 435.99 C 449.54 440.43 448.73 446.40 444.93 449.82 C 440.97 454.20 433.30 453.95 429.46 449.55 C 424.50 444.22 426.22 434.08 433.33 431.53 Z" />
</g>
<g id="#63a64aff">
<path fill="#63a64a" opacity="1.00" d=" M 616.45 285.80 C 622.00 283.28 630.06 287.54 629.58 294.00 C 630.01 297.61 628.34 301.28 625.39 303.37 C 621.20 305.71 614.99 305.05 612.39 300.68 C 609.09 295.82 610.74 288.00 616.45 285.80 Z" />
<path fill="#63a64a" opacity="1.00" d=" M 546.85 307.73 C 549.16 304.54 550.18 300.39 553.25 297.81 C 555.90 306.69 559.19 315.42 560.70 324.60 C 565.91 348.44 569.88 373.03 566.75 397.45 C 565.32 408.19 563.21 418.96 558.69 428.87 C 554.70 437.49 550.11 445.90 544.22 453.39 C 533.62 467.03 520.85 479.04 511.67 493.77 C 505.85 502.64 503.71 513.20 500.77 523.21 C 500.29 517.09 498.88 511.11 498.00 505.04 C 494.06 483.36 484.53 463.07 481.48 441.18 C 479.47 426.41 480.22 411.09 484.91 396.87 C 489.10 382.85 497.20 370.43 506.18 359.04 C 520.50 342.58 535.12 326.20 546.85 307.73 M 523.27 399.14 C 521.24 405.03 518.70 410.76 517.04 416.78 C 516.64 416.68 515.82 416.48 515.42 416.38 C 515.67 416.71 516.17 417.37 516.42 417.70 C 513.76 425.93 511.23 434.20 508.68 442.46 C 504.80 457.22 501.79 472.28 500.91 487.54 C 500.19 490.61 501.62 494.34 499.80 496.99 C 500.00 497.19 500.39 497.59 500.59 497.79 C 500.86 501.61 500.37 505.52 501.70 509.21 C 505.05 492.99 507.26 476.55 510.29 460.25 C 513.58 440.96 518.41 421.96 524.53 403.39 C 525.75 398.87 528.34 394.58 527.76 389.73 C 525.27 392.30 524.68 395.96 523.27 399.14 Z" />
<path fill="#63a64a" opacity="1.00" d=" M 439.47 344.79 C 446.67 341.70 456.16 345.83 458.41 353.43 C 459.49 358.22 458.94 363.74 455.70 367.62 C 452.86 370.42 449.31 373.25 445.05 372.79 C 440.27 373.16 436.06 370.35 433.04 366.93 C 430.71 363.29 429.94 358.69 430.83 354.47 C 432.10 350.16 435.53 346.78 439.47 344.79 Z" />
<path fill="#63a64a" opacity="1.00" d=" M 402.24 415.26 C 404.78 414.85 407.89 415.37 408.75 418.18 C 411.53 423.05 405.25 429.63 400.35 426.66 C 395.78 424.02 396.45 415.68 402.24 415.26 Z" />
<path fill="#63a64a" opacity="1.00" d=" M 330.24 459.78 C 333.66 461.15 336.44 463.60 339.57 465.48 C 350.74 472.33 362.11 478.86 373.32 485.64 C 391.20 495.27 408.80 505.50 425.14 517.60 C 456.26 539.49 480.78 571.94 489.71 609.25 C 493.75 625.83 495.04 642.95 494.75 659.98 C 495.63 672.63 494.93 685.35 496.27 697.98 C 496.52 712.16 500.13 725.99 501.75 740.04 C 497.38 731.21 493.27 722.23 488.27 713.72 C 485.29 709.15 481.66 705.04 478.02 700.99 C 465.90 686.22 448.73 677.06 432.69 667.24 C 411.79 655.83 391.82 641.81 376.80 623.11 C 357.27 600.28 346.00 571.57 339.66 542.49 C 333.83 515.32 330.72 487.56 330.24 459.78 M 359.93 508.24 C 361.89 512.33 365.15 515.57 367.52 519.40 C 371.34 525.46 376.16 530.78 380.42 536.52 C 401.94 564.23 424.61 591.26 442.31 621.67 C 449.35 632.79 455.70 644.34 462.12 655.83 C 468.76 668.32 474.95 681.05 481.85 693.39 C 485.90 701.74 490.10 710.01 494.67 718.10 C 494.52 706.27 488.62 695.71 484.71 684.84 C 474.60 661.32 462.41 638.58 447.07 618.03 C 442.36 610.86 437.31 603.89 431.92 597.22 C 427.46 590.71 422.31 584.72 417.35 578.61 C 412.55 572.16 407.41 565.99 402.02 560.04 C 388.17 542.64 372.62 526.56 359.93 508.24 Z" />
<path fill="#63a64a" opacity="1.00" d=" M 251.20 606.89 C 265.23 614.29 279.60 621.20 294.62 626.38 C 314.23 633.40 334.68 637.74 354.32 644.68 C 381.97 653.72 407.73 669.05 428.01 690.00 C 439.48 701.32 449.54 714.09 457.83 727.91 C 467.22 742.69 474.27 758.78 481.04 774.88 C 482.41 778.90 484.68 782.70 484.91 787.04 C 463.74 778.08 440.33 778.04 417.92 774.76 C 405.09 773.52 392.44 770.63 380.17 766.71 C 364.06 760.74 348.97 752.18 335.33 741.76 C 301.28 715.42 277.80 677.74 262.03 638.17 C 258.18 627.83 253.72 617.66 251.20 606.89 M 285.31 648.97 C 294.06 657.52 303.48 665.42 313.43 672.54 C 323.80 680.44 335.29 686.68 346.11 693.93 C 346.39 693.86 346.96 693.71 347.24 693.63 C 349.90 696.85 354.34 697.94 357.75 700.27 C 367.79 705.27 377.27 711.30 387.28 716.35 C 388.20 714.32 392.20 716.27 389.67 717.80 C 404.17 726.61 418.57 735.64 432.19 745.77 C 437.85 749.70 443.52 753.65 448.68 758.23 C 456.85 764.40 465.09 770.50 472.89 777.15 C 475.80 779.64 479.18 781.51 482.16 783.93 C 477.24 775.46 470.27 768.39 463.36 761.52 C 454.11 753.37 444.80 745.15 434.32 738.58 C 429.89 735.71 425.64 732.57 421.13 729.84 C 403.89 720.13 386.48 710.70 368.47 702.47 C 355.72 695.62 342.68 689.30 330.23 681.90 C 314.06 672.69 299.24 661.26 285.31 648.97 Z" />
<path fill="#63a64a" opacity="1.00" d=" M 739.81 616.85 C 746.94 613.95 753.54 609.88 760.69 607.01 C 752.32 635.31 740.22 662.51 724.60 687.54 C 709.30 711.24 689.76 732.35 666.60 748.55 C 652.34 758.02 636.77 765.75 620.07 769.81 C 595.00 776.37 568.81 776.02 543.53 781.40 C 537.51 782.22 532.16 785.32 526.31 786.78 C 536.31 758.97 549.10 731.82 567.34 708.40 C 579.85 691.67 595.53 677.43 612.83 665.79 C 633.26 652.28 656.53 643.95 680.03 637.56 C 680.96 637.05 682.81 637.33 682.77 635.80 C 684.64 637.10 686.92 635.19 688.91 634.91 C 706.25 630.04 723.44 624.41 739.81 616.85 M 682.98 681.01 C 672.16 687.31 660.93 692.86 649.96 698.89 C 641.82 702.71 633.74 706.67 625.65 710.59 C 614.57 717.15 602.54 722.01 591.78 729.13 C 590.94 729.74 590.65 730.78 590.15 731.64 L 590.54 729.93 C 575.36 738.80 561.22 749.38 548.18 761.16 C 542.02 766.70 537.26 773.52 531.78 779.67 C 530.90 780.97 530.49 782.52 529.95 783.98 C 534.66 780.38 539.47 776.86 543.74 772.73 C 546.67 769.92 550.33 768.03 553.40 765.36 C 574.35 748.24 596.94 733.25 620.01 719.16 C 633.96 711.43 647.67 703.27 661.73 695.76 C 684.62 682.78 706.30 667.58 725.88 649.99 C 712.12 661.04 698.13 671.91 682.98 681.01 Z" />
</g>
</svg>
