<?xml version="1.0" encoding="UTF-8" ?>
<!DOCTYPE svg PUBLIC "-//W3C//DTD SVG 1.1//EN" "http://www.w3.org/Graphics/SVG/1.1/DTD/svg11.dtd">
<svg width="544pt" height="274pt" viewBox="0 0 544 274" version="1.1" xmlns="http://www.w3.org/2000/svg">
<g id="#fdfdfdff">
</g>
<g id="#16082dff">
<path fill="#16082d" opacity="1.00" d=" M 157.26 22.24 C 159.65 19.79 163.39 20.75 166.44 20.56 C 163.00 37.20 161.49 54.16 159.00 70.96 C 157.03 85.25 155.46 99.60 153.51 113.89 C 153.30 117.25 152.57 121.23 154.93 124.04 C 158.68 127.82 164.87 124.94 168.88 128.04 C 165.67 128.99 162.30 128.85 158.99 128.77 C 146.72 128.37 134.43 128.77 122.15 128.84 C 122.13 128.20 122.09 126.91 122.07 126.26 C 127.15 126.14 132.60 127.00 137.24 124.39 C 138.76 122.09 140.21 119.66 140.43 116.84 C 141.87 107.34 143.21 97.81 144.08 88.25 C 131.23 88.43 118.38 88.10 105.54 87.65 C 99.43 92.22 94.97 98.56 89.07 103.36 C 83.49 107.72 78.46 112.75 72.60 116.74 C 60.85 125.48 47.04 132.89 32.02 132.83 C 25.20 132.83 17.25 130.39 14.10 123.81 C 11.63 116.80 14.83 107.82 21.55 104.42 C 18.42 108.46 18.54 114.20 21.96 118.04 C 27.07 123.24 34.80 125.22 41.93 124.55 C 48.42 124.28 54.46 121.67 60.36 119.20 C 69.79 114.41 78.58 108.41 86.49 101.39 C 91.76 96.98 96.46 91.94 101.72 87.51 C 91.82 87.23 81.29 87.26 72.38 82.33 C 73.17 79.52 74.43 76.89 76.23 74.59 C 85.69 78.27 95.41 81.41 105.39 83.29 C 117.29 69.83 128.85 56.07 140.18 42.11 C 145.93 35.54 150.77 28.12 157.26 22.24 M 130.76 57.81 C 123.58 66.76 115.50 75.01 108.70 84.25 C 120.62 85.00 132.52 86.29 144.50 85.89 C 147.18 68.17 149.49 50.39 152.08 32.65 C 144.54 40.66 137.80 49.37 130.76 57.81 Z" />
<path fill="#16082d" opacity="1.00" d=" M 201.21 66.17 C 205.47 63.97 212.76 63.66 214.61 69.10 C 216.26 78.26 210.61 86.53 208.98 95.28 C 214.34 86.71 219.16 77.62 226.38 70.41 C 231.16 66.13 238.51 62.88 244.62 66.30 C 250.70 70.95 249.66 81.54 243.47 85.67 C 239.87 88.36 233.57 86.64 232.79 81.93 C 231.85 78.04 234.53 74.70 236.80 71.89 C 236.43 71.09 235.68 69.48 235.30 68.68 C 230.07 69.57 226.04 73.18 223.17 77.43 C 215.86 87.02 209.20 97.23 204.56 108.40 C 201.47 114.95 199.40 121.90 196.88 128.68 C 193.52 128.72 190.15 128.66 186.79 128.61 C 191.66 114.40 196.34 100.14 201.04 85.87 C 202.60 80.90 204.53 75.97 204.89 70.71 C 203.62 69.86 202.06 68.69 200.50 69.64 C 194.16 72.74 192.05 79.98 188.63 85.59 C 188.31 85.56 187.67 85.51 187.36 85.48 C 189.34 77.70 193.98 70.06 201.21 66.17 Z" />
<path fill="#16082d" opacity="1.00" d=" M 288.48 65.56 C 295.03 63.76 302.69 63.64 308.41 67.81 C 314.77 72.28 317.52 80.43 317.08 87.96 C 316.06 105.16 304.23 120.54 289.14 128.20 C 281.08 132.11 270.22 132.09 263.47 125.61 C 258.11 120.71 256.68 112.95 257.07 106.00 C 257.86 95.19 262.77 84.81 270.31 77.07 C 275.57 72.18 281.37 67.39 288.48 65.56 M 292.11 67.24 C 284.29 70.19 279.15 77.64 275.66 84.91 C 271.30 93.66 268.46 103.26 267.82 113.03 C 267.90 117.83 268.06 123.40 271.92 126.85 C 275.62 129.84 280.79 128.79 284.66 126.73 C 289.92 123.69 293.61 118.61 296.26 113.25 C 301.89 103.43 304.76 92.23 305.63 80.99 C 305.91 76.27 305.08 70.86 301.21 67.70 C 298.43 66.21 295.03 66.06 292.11 67.24 Z" />
<path fill="#16082d" opacity="1.00" d=" M 340.64 70.51 C 344.92 65.56 352.09 63.30 358.27 65.92 C 362.01 72.23 359.04 79.54 356.77 85.80 C 355.79 87.94 356.01 90.97 353.74 92.24 C 353.94 92.27 354.34 92.35 354.55 92.39 C 354.25 93.26 353.67 95.02 353.38 95.89 C 358.20 89.53 361.82 82.28 367.31 76.42 C 371.68 71.69 376.43 66.67 382.92 65.09 C 387.39 63.85 393.66 64.93 395.07 70.06 C 397.42 78.30 392.79 86.09 391.23 94.00 C 396.99 84.79 403.25 75.64 411.73 68.71 C 415.57 65.40 420.98 63.73 425.96 64.99 C 429.83 66.10 432.46 70.02 432.57 73.97 C 433.06 81.43 429.58 88.26 427.00 95.04 C 423.37 104.26 418.69 113.20 416.80 123.00 C 417.06 123.62 417.58 124.86 417.84 125.48 C 421.36 127.08 424.87 124.74 427.30 122.28 C 430.32 119.04 432.14 114.96 434.30 111.15 C 434.80 110.02 435.99 109.53 436.95 108.90 C 435.96 114.13 432.72 118.54 429.75 122.83 C 426.61 127.28 421.63 130.96 415.95 130.63 C 411.20 131.00 407.03 126.74 407.11 122.07 C 407.03 113.94 410.86 106.53 413.49 99.03 C 416.12 91.59 419.77 84.53 421.99 76.96 C 422.85 74.45 423.00 70.80 419.91 69.83 C 415.22 68.29 411.50 72.65 408.07 75.14 C 399.30 84.43 392.24 95.27 386.42 106.62 C 383.20 113.81 380.65 121.27 377.82 128.62 C 374.37 128.59 370.92 128.54 367.47 128.53 C 372.63 113.49 378.06 98.56 383.39 83.59 C 384.88 79.07 386.13 74.08 384.21 69.48 C 379.18 68.96 374.47 71.74 371.25 75.40 C 364.01 83.24 357.96 92.13 352.66 101.38 C 347.63 109.94 344.29 119.33 340.96 128.64 C 337.54 128.75 334.13 128.70 330.71 128.69 C 334.26 119.47 337.18 110.02 340.69 100.79 C 343.68 91.51 347.95 82.57 349.59 72.90 C 350.05 71.32 349.01 70.05 348.20 68.82 C 340.36 70.17 337.78 78.64 334.37 84.68 C 333.91 85.07 332.98 85.85 332.52 86.24 C 333.19 80.20 336.82 75.03 340.64 70.51 Z" />
<path fill="#16082d" opacity="1.00" d=" M 483.82 65.65 C 488.26 64.42 493.22 63.85 497.60 65.63 C 499.81 66.45 500.64 68.86 501.82 70.69 C 502.70 69.42 503.09 67.60 504.56 66.87 C 507.78 66.68 511.02 66.74 514.25 66.53 C 507.65 82.97 502.11 99.82 496.48 116.61 C 495.68 119.76 493.88 123.73 496.57 126.47 C 498.25 127.12 500.28 126.90 501.67 125.69 C 507.09 121.58 510.38 115.44 513.18 109.38 C 513.64 109.56 514.55 109.93 515.01 110.11 C 511.69 117.73 507.55 126.00 499.69 129.78 C 496.01 131.58 490.69 131.61 488.01 128.07 C 485.90 125.58 486.02 122.08 486.48 119.04 C 487.45 113.77 488.80 108.57 490.44 103.47 C 491.05 102.10 490.20 100.77 489.68 99.55 C 494.05 91.96 497.61 83.70 498.87 75.00 C 499.48 72.38 498.29 69.40 495.70 68.40 C 491.38 66.80 486.25 67.68 482.50 70.30 C 477.96 73.33 474.22 77.41 470.94 81.73 C 464.68 90.99 459.76 101.26 457.18 112.15 C 456.53 115.87 455.83 119.99 457.47 123.55 C 459.43 126.58 463.50 126.91 466.63 125.65 C 467.36 126.49 468.11 127.32 468.87 128.15 C 464.68 130.65 459.50 131.81 454.78 130.15 C 449.56 128.12 446.47 122.51 446.19 117.10 C 445.23 108.40 448.36 99.89 452.61 92.46 C 459.67 80.44 470.48 70.21 483.82 65.65 Z" />
<path fill="#16082d" opacity="1.00" d=" M 489.39 100.61 C 489.96 102.24 489.79 104.13 488.80 105.57 C 483.46 113.61 477.63 121.50 469.96 127.49 C 469.03 126.73 468.13 125.93 467.24 125.14 C 470.59 123.76 473.22 121.20 475.79 118.72 C 480.84 113.09 485.45 107.07 489.39 100.61 Z" />
<path fill="#16082d" opacity="1.00" d=" M 130.08 143.81 C 137.38 143.74 144.68 144.28 151.98 144.04 C 159.00 143.74 166.14 144.00 172.97 145.79 C 177.54 146.92 181.51 150.16 183.73 154.29 C 185.59 159.10 184.44 164.97 180.94 168.76 C 176.47 173.66 169.85 175.73 163.51 176.87 C 169.40 178.01 176.09 178.94 180.07 183.96 C 184.14 188.02 183.70 194.65 181.31 199.46 C 178.02 205.52 171.63 209.65 164.87 210.73 C 163.89 209.79 162.63 209.35 161.30 209.29 C 162.24 209.86 163.19 210.42 164.14 210.99 C 155.16 212.59 146.04 211.50 136.99 211.83 C 131.10 211.81 125.21 211.90 119.32 212.25 C 119.29 211.81 119.23 210.93 119.20 210.49 C 122.28 209.65 126.96 211.12 128.45 207.42 C 129.43 205.40 129.75 203.15 130.12 200.97 C 132.77 185.62 135.67 170.31 138.02 154.91 C 138.24 152.27 139.34 149.34 138.23 146.83 C 135.76 145.40 132.83 145.56 130.09 145.44 C 130.09 145.03 130.08 144.22 130.08 143.81 M 143.46 175.56 C 151.43 175.53 160.33 177.07 167.36 172.34 C 173.87 167.88 176.98 157.53 171.85 150.98 C 166.26 144.76 157.23 145.75 149.69 145.77 C 146.40 155.41 145.08 165.55 143.46 175.56 M 142.92 177.33 C 141.35 188.13 138.89 198.78 137.56 209.61 C 147.09 209.82 157.92 211.27 165.98 204.99 C 173.27 199.46 175.19 186.53 167.13 180.83 C 159.94 176.22 151.00 177.82 142.92 177.33 Z" />
<path fill="#16082d" opacity="1.00" d=" M 209.08 153.23 C 212.44 151.22 216.33 154.42 216.25 157.93 C 215.49 160.74 212.06 162.91 209.23 161.76 C 206.09 160.10 205.65 154.82 209.08 153.23 Z" />
<path fill="#16082d" opacity="1.00" d=" M 411.62 175.22 C 412.91 171.16 413.66 166.97 414.68 162.85 C 417.01 162.81 419.34 162.70 421.68 162.53 C 420.77 166.81 419.80 171.08 418.95 175.37 C 422.62 175.25 426.29 175.23 429.97 175.27 C 429.96 175.65 429.96 176.39 429.96 176.77 C 426.27 177.04 422.54 176.66 418.89 177.19 C 418.00 178.56 417.87 180.31 417.44 181.87 C 416.01 189.64 413.77 197.26 412.71 205.10 C 412.32 207.44 413.62 210.04 415.97 210.75 C 419.08 211.24 422.41 209.63 423.79 206.76 C 424.85 205.49 425.26 202.37 427.56 203.53 C 425.58 207.40 422.82 211.31 418.51 212.75 C 415.20 213.63 411.39 213.47 408.58 211.31 C 405.81 208.27 405.92 203.85 406.61 200.06 C 408.13 192.31 410.29 184.65 410.98 176.76 C 408.93 176.79 406.90 176.81 404.86 176.86 C 404.74 176.50 404.49 175.77 404.37 175.41 C 406.78 175.21 409.20 175.16 411.62 175.22 Z" />
<path fill="#16082d" opacity="1.00" d=" M 241.92 174.92 C 245.93 173.20 250.54 173.18 254.65 174.55 C 257.75 175.62 260.01 178.76 259.65 182.09 C 259.58 186.63 255.61 189.79 252.00 191.84 C 246.19 195.13 239.35 195.06 232.89 195.51 C 232.89 200.05 231.64 205.33 235.05 209.03 C 238.21 212.21 243.44 211.40 246.98 209.27 C 249.70 207.76 251.31 204.77 254.32 203.73 C 252.49 207.90 248.41 210.35 244.54 212.35 C 238.86 214.14 231.69 213.01 227.93 208.04 C 224.47 203.30 224.62 196.86 226.37 191.49 C 229.14 184.29 234.38 177.45 241.92 174.92 M 233.74 193.26 C 239.32 193.81 245.44 192.72 249.49 188.55 C 253.01 185.78 254.22 180.78 252.50 176.67 C 250.49 175.83 248.28 174.58 246.10 175.67 C 238.73 178.34 235.79 186.38 233.74 193.26 Z" />
<path fill="#16082d" opacity="1.00" d=" M 275.36 174.52 C 278.03 172.90 282.94 172.14 284.03 175.99 C 285.20 180.49 282.76 184.89 281.66 189.17 C 286.17 184.15 289.05 177.22 295.53 174.32 C 298.87 173.16 303.13 172.72 306.04 175.14 C 308.34 177.39 308.61 180.93 308.28 183.96 C 307.33 191.94 303.01 199.04 301.86 206.98 C 301.54 208.64 302.04 210.55 304.04 210.62 C 307.60 209.27 308.73 205.25 310.85 202.45 C 311.01 203.21 311.62 204.06 310.96 204.78 C 309.14 208.05 307.22 212.09 303.12 212.81 C 299.80 214.11 295.20 211.92 295.30 208.04 C 295.01 198.64 300.82 190.35 301.27 181.03 C 302.36 176.07 294.91 175.10 292.30 178.15 C 282.80 187.05 278.87 199.97 275.15 212.06 C 273.08 212.06 271.02 212.09 268.96 212.17 C 271.98 200.22 275.77 188.47 278.38 176.43 C 273.68 175.38 271.11 179.77 269.79 183.50 C 269.16 183.53 267.91 183.60 267.28 183.63 C 267.76 183.26 268.25 182.90 268.74 182.55 C 270.00 179.25 271.91 175.90 275.36 174.52 Z" />
<path fill="#16082d" opacity="1.00" d=" M 451.11 178.10 C 455.93 174.82 462.16 172.21 467.98 174.22 C 469.70 174.59 470.26 176.47 471.32 177.65 C 471.37 177.05 471.47 175.87 471.51 175.28 C 473.98 175.03 476.44 174.80 478.91 174.62 C 475.99 184.36 472.96 194.08 470.35 203.91 C 469.90 206.48 468.77 209.95 471.85 211.25 C 475.35 209.53 476.98 205.94 478.91 202.80 C 479.83 201.64 480.16 204.08 479.52 204.46 C 477.87 208.15 475.27 211.99 471.10 212.99 C 468.77 213.71 466.63 212.37 464.65 211.36 C 462.56 206.23 464.93 200.97 465.94 195.89 C 463.19 200.41 461.13 205.48 456.98 208.98 C 453.48 212.61 447.72 214.38 443.05 212.01 C 439.60 210.48 438.27 206.46 437.87 203.00 C 437.25 193.04 443.09 183.61 451.11 178.10 M 462.45 175.44 C 460.09 176.19 457.74 177.25 456.00 179.06 C 449.32 185.93 444.87 195.36 445.19 205.05 C 445.03 207.51 446.86 209.45 448.94 210.44 C 453.59 210.91 457.10 207.04 459.66 203.67 C 464.47 196.15 469.18 187.99 469.71 178.87 C 469.35 175.49 465.18 174.61 462.45 175.44 Z" />
<path fill="#16082d" opacity="1.00" d=" M 67.80 174.97 C 71.32 174.80 74.81 174.34 78.33 174.08 C 83.29 183.77 84.02 195.02 88.36 204.98 C 91.97 199.34 94.24 192.97 97.41 187.09 C 98.90 184.14 100.62 179.97 97.98 177.15 C 96.94 176.34 92.61 176.17 95.43 174.82 C 99.95 174.83 104.50 174.79 109.02 174.99 C 109.18 175.16 109.51 175.51 109.67 175.68 C 107.22 177.10 104.03 177.74 102.78 180.60 C 95.61 193.63 90.14 207.58 82.14 220.17 C 79.65 224.45 76.75 228.82 72.16 231.07 C 68.51 233.21 63.76 232.31 60.68 229.57 C 60.41 228.25 60.13 226.94 59.83 225.64 C 60.87 224.34 62.09 223.19 63.38 222.14 C 65.37 222.71 67.13 223.82 68.38 225.48 C 67.99 227.13 67.63 228.78 67.31 230.45 C 76.53 229.79 80.40 220.09 83.85 212.91 C 80.88 204.14 78.02 195.34 75.37 186.47 C 74.28 183.14 73.35 179.57 70.91 176.93 C 69.73 176.63 68.53 176.47 67.31 176.45 C 67.43 176.08 67.68 175.34 67.80 174.97 Z" />
<path fill="#16082d" opacity="1.00" d=" M 195.48 184.92 C 195.97 178.25 202.18 172.19 209.14 173.73 C 210.35 175.62 211.86 177.59 211.53 180.00 C 211.02 188.32 207.59 196.06 205.66 204.08 C 205.34 206.20 204.55 209.15 206.75 210.54 C 211.03 210.93 212.28 206.06 214.21 203.22 C 214.52 203.47 215.14 203.95 215.46 204.19 C 213.32 207.20 211.92 211.41 208.04 212.54 C 204.87 213.91 200.02 212.95 199.17 209.15 C 197.98 203.31 200.69 197.64 201.96 192.03 C 203.05 186.99 205.23 182.02 204.57 176.76 C 203.74 176.83 202.07 176.99 201.23 177.06 C 198.99 179.44 197.35 182.27 195.48 184.92 Z" />
<path fill="#16082d" opacity="1.00" d=" M 337.23 175.29 C 341.80 173.13 347.35 173.03 351.94 175.15 C 356.45 177.40 356.99 184.11 353.57 187.55 C 347.53 194.42 337.70 195.42 329.10 195.47 C 328.64 200.40 327.77 206.47 332.21 209.95 C 337.89 212.86 344.76 209.38 348.09 204.48 C 348.66 204.40 349.80 204.24 350.37 204.16 C 347.05 209.23 341.32 213.24 335.06 212.95 C 330.83 213.19 326.63 211.19 323.99 207.92 C 320.74 203.37 320.74 197.31 322.28 192.13 C 324.78 184.87 329.93 178.19 337.23 175.29 M 342.37 175.50 C 334.98 178.20 331.47 186.35 330.03 193.52 C 338.20 194.42 348.65 190.13 349.50 180.94 C 350.09 177.04 345.94 174.10 342.37 175.50 Z" />
<path fill="#16082d" opacity="1.00" d=" M 376.49 174.41 C 381.81 172.88 388.70 172.81 392.61 177.34 C 395.20 179.94 394.10 185.60 389.92 185.65 C 388.03 185.03 386.98 183.22 385.70 181.83 C 386.63 180.63 387.56 179.43 388.52 178.25 C 388.56 177.81 388.64 176.93 388.68 176.49 C 384.27 173.68 376.91 174.44 375.06 179.95 C 373.45 183.51 376.47 186.86 379.26 188.67 C 383.22 191.68 388.23 194.12 390.07 199.07 C 391.47 204.20 387.67 209.34 383.15 211.43 C 379.01 213.82 373.91 213.76 369.43 212.45 C 365.78 211.40 362.53 207.98 362.71 204.03 C 362.82 201.74 365.24 201.07 366.79 199.94 C 367.41 200.13 368.65 200.52 369.28 200.71 C 369.81 201.74 370.37 202.77 370.82 203.85 C 370.13 205.65 368.80 207.17 368.30 209.05 C 369.25 210.48 370.98 211.07 372.34 212.02 C 375.87 211.79 380.38 212.03 382.36 208.41 C 384.56 205.84 383.99 201.81 381.46 199.68 C 377.13 195.62 370.48 193.34 368.66 187.17 C 366.87 181.58 371.35 176.08 376.49 174.41 Z" />
<path fill="#16082d" opacity="1.00" d=" M 489.17 184.35 C 489.67 179.25 493.30 174.98 498.03 173.20 C 500.46 173.40 503.53 173.98 504.05 176.86 C 504.82 181.47 502.97 186.02 502.18 190.51 C 505.20 185.51 507.44 179.73 512.28 176.13 C 515.32 173.47 520.59 172.43 523.65 175.58 C 527.07 179.52 524.24 186.91 518.90 187.19 C 516.61 187.14 515.76 184.87 514.96 183.12 C 516.08 180.80 517.10 178.42 517.90 175.96 C 512.67 176.17 509.23 180.71 506.95 184.93 C 501.64 193.13 498.24 202.40 495.99 211.87 C 493.80 211.98 491.61 212.11 489.43 212.24 C 492.28 202.20 495.04 192.14 497.48 181.99 C 498.07 179.94 497.45 177.88 496.93 175.90 C 492.85 177.13 491.78 181.50 489.17 184.35 Z" />
<path fill="#16082d" opacity="1.00" d=" M 287.09 249.10 C 294.64 247.09 302.29 249.21 309.80 250.25 C 313.84 250.38 317.91 250.46 321.91 251.14 C 329.37 251.63 336.87 251.21 344.32 251.91 C 333.91 252.67 323.42 252.42 313.09 254.16 C 305.35 254.33 297.73 256.40 289.96 255.64 C 284.97 255.13 280.02 254.34 275.00 254.09 C 271.69 253.46 268.29 253.62 264.96 253.19 C 257.98 252.01 250.87 252.77 243.86 251.98 C 258.29 251.30 272.77 251.16 287.09 249.10 Z" />
</g>
</svg>
