<svg xmlns="http://www.w3.org/2000/svg" xmlns:xlink="http://www.w3.org/1999/xlink" width="1024" height="1024">
	
	<path fill="#010101" d="M309.231 95.7277Q330.426 96.0835 351.623 95.81C362.94 95.6774 384.788 94.0982 395.039 96.7231C400.729 98.1801 405.166 101.508 409.838 104.921C417.621 103.447 435.81 98.1799 442.196 98.5938C443.337 98.6677 443.339 98.6502 444.124 99.5479C441.745 105.266 417.895 104.367 412.313 109.414L412.287 110.31C418.702 114.804 431.248 106.661 438.707 110.503L438.81 111.199C434.222 114.634 424.681 113.746 419.032 114.639C417.643 114.859 416.324 115.038 415.462 116.199C415.617 116.599 415.575 117.154 415.927 117.399C418.06 118.886 436.681 115.972 441.931 118.778C440.834 122.637 420.282 119.12 416.509 122.115C417.074 123.273 417.531 123.994 418.872 124.35C425.134 126.012 433.695 123.194 439.931 126.968L439.943 127.714C435.902 130.267 426.013 128.329 421.347 127.6C419.908 127.375 419.047 127.19 417.85 128.075C417.418 129.48 417.507 130.347 417.67 131.775C419.625 132.799 423.779 131.634 426.158 131.982C429.717 132.501 435.076 134.117 438.175 135.997C439.012 136.505 439.374 136.605 439.6 137.591C436.038 139.856 422.32 135.196 417.63 134.166Q417.987 148.244 418.859 162.3C429.034 162.567 452.397 162.773 459.623 169.994C461.091 171.461 462.413 173.331 462.857 175.386C464.424 182.643 463.922 196.853 464.139 204.791Q465.211 239.181 465.506 273.587C466.561 274.747 467.365 275.994 468.208 277.312Q468.462 312.461 469.304 347.601Q470.342 419.431 472.3 491.243L478.044 789.395C478.859 835.405 480.629 881.518 480.455 927.53C480.511 934.352 481.786 965.263 479.722 969.349C478.593 971.584 475.542 972.649 473.292 973.319C464.502 975.933 454.92 977.179 445.869 978.545C393.389 986.461 328.561 986.86 275.938 979.79C266.612 978.537 253.742 977.608 245.585 972.849C244.164 972.02 243.171 971.252 242.846 969.588C241.498 962.683 242.02 954.616 241.855 947.583L240.929 903.037L237.578 772.442L230.767 462.544C229.4 402.613 226.924 342.625 226.682 282.678C226.67 279.669 228.891 278.65 229.229 276.244C229.673 273.087 229.258 269.264 229.248 266.017L228.715 209.705C228.556 199.725 227.66 189.343 228.375 179.418C228.53 177.27 228.658 175.123 229.99 173.35C235.061 166.602 260.51 165.764 268.509 165.022C270.764 146.378 268.544 121.076 282.134 106.316C289.534 98.2789 298.691 96.1652 309.231 95.7277Z" data-index="1" style="opacity: 1;"></path>
	<path fill="#FEFEFE" d="M449.654 284.716L456.417 284.51L469.086 947.559C455.487 951.277 440.61 952.643 426.612 954.03Q408.026 955.98 389.358 956.837Q370.689 957.693 352.003 957.453Q333.316 957.214 314.676 955.878Q296.036 954.542 277.506 952.116Q271.013 951.129 264.508 950.228L251.716 287.943C269.81 287.49 288.058 288.341 306.186 288.203Q377.947 287.577 449.654 284.716Z" data-index="2" style="opacity: 1;"></path>
	<path fill="#010101" d="M424.429 431.784C428.098 431.569 431.831 431.244 435.503 431.256C437.503 431.262 439.462 431.528 440.883 433.07C442.265 434.57 442.1 438.513 442.184 440.479C443.8 478.309 444.026 516.373 444.858 554.243L449.438 747.02L452.604 857.369Q453.329 877.778 453.528 898.199C453.544 903.168 453.811 908.346 453.465 913.293C453.378 914.53 453.044 915.332 452.049 916.101C448.35 918.956 440.135 919.338 435.473 920.086C395.06 926.571 353.55 926.082 312.999 921.1C303.766 919.776 294.592 918.647 285.615 916.028C284.904 894.084 284.958 872.123 284.59 850.171L282.324 638.072L281.059 511.781Q280.482 484.503 280.457 457.219C280.435 450.972 280.121 444.647 280.3 438.411C280.358 436.388 280.647 434.869 281.704 433.145C289.186 431.776 297.79 432.847 305.371 433.09Q318.592 433.496 331.82 433.534Q378.152 434.092 424.429 431.784Z" data-index="3"></path>
	<path fill="#FEFEFE" d="M423.742 442.797L431.507 442.297C431.389 485.143 433.26 528.161 434.259 571L437.792 727.204Q440.477 817.071 442.02 906.965C429.894 908.722 417.809 910.714 405.598 911.783C374.514 914.502 342.314 913.245 311.443 908.866L296.813 906.583L291.513 443.469C335.361 444.868 379.935 445.644 423.742 442.797Z" data-index="4" style="opacity: 1;"></path>
	<path fill="#010101" d="M264.206 346.92C265.285 347.125 266.306 347.415 267.36 347.715C269.13 349.508 269.171 352.04 269.326 354.471C270.406 371.4 269.787 389.693 270.16 406.816L272.646 526.147L279.4 856.28L280.408 903.711C280.604 915.903 280.499 928.197 281.593 940.344C287.131 940.671 331.951 945.254 334.514 946.308L334.302 946.793L332.012 947.387C331.67 947.451 331.329 947.518 330.985 947.569C321.424 948.991 281.755 949.723 274.813 944.58C272.403 935.257 273.23 915.068 273.051 904.781L271.717 828.037L265.232 497.469C264.575 460.642 262.996 423.822 262.561 386.994C262.418 374.923 261.022 362.237 262.01 350.252C262.166 348.356 262.881 348.019 264.206 346.92Z" data-index="5" style="opacity: 1;"></path>
	<path fill="#FEFEFE" d="M307.523 107.209C321.306 106.492 336.303 107.501 350.237 107.518L375.857 107.466C380.817 107.456 386.3 107.059 391.192 107.943C394.062 108.462 397.051 109.992 399.245 111.894C401.171 113.562 402.633 115.654 403.453 118.071C406.378 126.688 405.775 151.021 406.445 161.645C387.231 161.41 368.028 160.575 348.807 160.366Q329.276 159.754 309.736 159.533C302.302 159.461 294.737 159.702 287.32 159.288C285.879 159.208 284.682 159.297 283.538 158.397C283.477 157.925 283.404 157.454 283.373 156.979C283.274 155.441 283.61 154.576 284.58 153.412C286.827 152.322 288.932 152.652 291.319 152.318C292.698 152.125 293.176 151.968 294.046 150.887L293.86 149.873C291.301 148.263 286.835 148.977 283.909 149.067C284.18 146.549 284.399 144.024 284.639 141.503C288.677 141.261 293.492 140.899 297.042 138.847L297.183 138.218C294.035 136.217 288.501 136.96 284.847 137.034C285.376 133.759 285.968 130.534 286.724 127.303C289.01 125.243 295.503 126.156 298.672 125.095C300.086 124.622 300.844 124.031 301.495 122.71C299.153 120.302 293.756 122.294 290.619 121.006C289.338 120.48 289.055 120.029 288.503 118.801C288.66 117.266 289.117 116.32 290.086 115.146C294.797 109.44 300.495 107.688 307.523 107.209Z" data-index="6" style="opacity: 1;"></path>
	<path fill="#010101" d="M342.531 113.597C343.917 113.473 345.54 113.239 346.924 113.429C349.04 113.72 351.318 115.504 352.506 117.214Q352.745 117.553 352.948 117.914Q353.152 118.275 353.318 118.655Q353.484 119.035 353.611 119.43Q353.738 119.824 353.825 120.23Q353.912 120.635 353.957 121.047Q354.002 121.459 354.006 121.874Q354.01 122.288 353.972 122.701Q353.934 123.114 353.854 123.521C353.257 126.704 351.184 128.402 348.61 130.1C347.272 130.358 345.739 130.645 344.379 130.447C342.195 130.129 340.13 128.593 338.92 126.791C337.455 124.61 337.094 121.824 337.723 119.294C338.432 116.447 340.157 115.107 342.531 113.597Z" data-index="7"></path>
	<path fill="#FEFEFE" d="M238.671 287.62C240.236 287.656 241.437 287.689 242.908 288.323C245.118 290.72 243.988 296.178 244.031 299.377L252.603 725.295L255.6 867.991C256.114 895.253 256.946 922.61 256.77 949.873C256.025 949.591 255.414 949.431 254.869 948.814C253.167 946.885 249.076 753.866 248.328 730.674L240.949 413.238L239.282 337.23Q238.639 320.572 238.387 303.904C238.316 298.579 237.836 292.887 238.671 287.62Z" data-index="8" style="opacity: 1;"></path>
	<path fill="#FEFEFE" d="M412.478 269.263C425.946 268.908 439.873 268.365 453.306 269.043C454.603 269.108 454.635 269.082 455.487 270C455.725 271.381 455.721 271.986 455.173 273.282C448.965 274.852 426.017 274.635 417.988 274.883Q350.383 276.823 282.75 276.605C279.089 276.598 242.762 276.799 242.133 276.606C240.77 276.185 240.601 275.869 239.856 274.745C239.742 273.25 239.608 273.223 240.515 272.057C247.074 269.298 392.668 269.418 412.478 269.263Z" data-index="9"></path>
	<path fill="#FEFEFE" d="M401.825 176.734C412.333 176.46 445.892 174.664 453.222 179.134L453.129 179.772C451.182 180.63 449.172 180.895 447.068 181.065C432.686 182.225 417.724 181.577 403.268 181.806L294.244 182.617L260.399 182.932C254.575 182.959 248.432 183.317 242.661 182.671C241.666 181.807 241.717 181.872 241.588 180.557C242.72 179.549 244.007 179.405 245.469 179.259C251.718 178.636 258.234 178.815 264.523 178.673Q280.969 178.208 297.419 177.99L401.825 176.734Z" data-index="10"></path>
	<path fill="#FEFEFE" d="M321.913 199.709C341.399 197.872 363.321 200.612 382.005 205.927C365.908 206.037 349.988 205.856 333.878 206.577C315.691 208.895 292.865 208.901 274.604 208.307C288.829 202.383 306.638 200.871 321.913 199.709Z" data-index="11"></path>
	<path fill="#FEFEFE" d="M319.848 212.722C335.282 212.21 352.59 213.192 367.772 216.203C369.544 216.554 371.442 216.95 372.485 218.509C370.169 219.725 341.687 219.288 336.75 219.33C329.416 219.475 288.628 220.51 284.909 218.811C284.048 218.418 284.324 218.65 283.988 217.745C284.112 217.604 284.22 217.447 284.361 217.322C288.474 213.694 313.809 212.957 319.848 212.722Z" data-index="12"></path>
	<path fill="#FEFEFE" d="M322.75 226.71C339.43 225.908 367.758 226.251 383.205 231.295C373.456 232.058 363.529 231.842 353.75 231.926C333.514 232.292 312.51 233.658 292.656 229.138C302.337 227.374 312.906 227.344 322.75 226.71Z" data-index="13"></path>
	<path fill="#FEFEFE" d="M307.326 236.715C321.561 236.103 336.473 237.373 350.557 239.496C346.933 239.916 343.266 240.076 339.625 240.312C325.008 240.606 311.046 240.193 296.555 237.985C300.056 236.964 303.707 236.921 307.326 236.715Z" data-index="14"></path>
	<path fill="#010101" d="M631.603 825.239C642.909 825.079 653.479 825.229 662.321 833.354C669.314 839.778 671.518 847.829 671.823 856.992C672.569 879.367 672.576 901.763 673.079 924.145L673.613 952.345C673.687 957.202 674.064 962.319 673.61 967.146C673.462 968.721 673.109 969.827 671.924 970.956C666.514 976.108 593.566 978.543 581.298 978.508C565.939 978.464 550.451 977.674 535.124 976.681C523.816 976.238 501.819 975.882 492.674 970.112C491.668 956.894 491.828 943.334 491.564 930.069L490.408 871.184C490.256 857.582 490.327 844.383 500.606 834.053C504.288 830.353 508.873 827.755 513.997 826.689C525.457 824.304 542.836 825.566 554.962 825.545L631.603 825.239Z" data-index="15"></path>
	<path fill="#FEFEFE" d="M546.104 839.121C551.686 838.151 557.593 839.881 563.222 840.111C570.363 840.402 601.164 840.096 605.308 841.75C606.099 842.066 605.847 842.026 606.172 842.96L605.569 843.645C600.059 845.794 583.025 844.51 576.38 844.556C565.787 844.413 525.015 848.975 518.106 845.819L517.968 845.014C520.23 841.643 540.3 840.421 545.201 839.328L546.104 839.121Z" data-index="16"></path>
	<path fill="#FEFEFE" d="M509.372 855.338C510.518 855.318 511.38 855.402 512.484 855.712C513.174 856.534 513.511 856.858 513.624 857.975C513.895 860.655 512.923 863.781 512.921 866.57C512.917 873.884 513.281 881.234 513.07 888.542C512.864 895.711 512.154 902.863 512.071 910.038C511.898 925.012 513.875 940.224 513.06 955.198C512.923 957.71 512.443 958.829 510.858 960.775C510.402 960.494 510.083 960.398 509.82 959.939C509.702 959.733 509.611 959.51 509.551 959.281C509.014 957.218 509.277 954.02 509.168 951.823C508.946 947.344 508.578 942.772 508.773 938.289C509.149 929.645 510.574 921.019 510.573 912.363C510.572 904.734 509.123 897.57 508.441 890.037C508.001 885.175 508.429 880.208 508.374 875.329C508.317 870.133 507.719 864.623 508.254 859.47C508.404 858.022 508.845 856.688 509.372 855.338Z" data-index="17"></path>
	<path fill="#010101" d="M573.497 136.481Q664.739 143.434 755.754 152.909C762.571 153.611 792.022 155.762 796.049 157.791C797.378 158.461 798.509 159.583 798.854 161.077C799.319 163.091 798.482 164.325 797.328 165.824C794.589 166.979 792.612 167.075 789.661 166.811C779.907 165.939 770.118 164.263 760.402 162.999C737.012 159.957 713.602 156.703 690.168 154.039Q648.477 149.545 606.845 144.528C598.369 143.513 581.451 142.428 573.867 139.999C572.965 138.656 573.317 138.052 573.497 136.481Z" data-index="18"></path>
	<path fill="#010101" d="M753.487 71.7033C755.491 71.4823 757.592 71.2375 759.507 72.0461C760.88 72.626 762.057 73.909 762.489 75.3451C762.986 77.0007 762.574 78.7184 761.516 80.0469C760.092 81.8336 756.71 82.1705 754.567 82.4412C746.863 83.4142 738.964 83.6715 731.21 84.2396L694.156 87.1611Q637.79 91.3711 581.533 96.8577C579.267 97.0928 576.547 97.6244 574.303 97.3948C572.927 97.2541 572.275 96.9818 571.415 95.9303L571.657 94.6216C579.125 89.5495 729.108 74.2946 753.487 71.7033Z" data-index="19"></path>
	<path fill="#010101" d="M549.984 156.99C558.568 156.667 568.593 159.309 577.106 160.654L634.31 169.843C664.272 174.721 694.678 178.004 724.487 183.585C725.869 183.844 727.21 184.179 728.474 184.812C730.132 185.643 731.559 186.833 732 188.726C732.509 190.911 731.608 192.696 730.602 194.567C730 194.824 729.682 194.983 729.011 195.15C726.502 195.774 723.12 194.941 720.615 194.505C686.042 188.488 651.639 180.832 617.224 173.95Q594.953 169.691 572.735 165.16C565.994 163.83 559.068 162.863 552.409 161.201C551.631 161.007 551.13 160.713 550.48 160.264C549.753 159.012 549.866 158.374 549.984 156.99Z" data-index="20"></path>
	<path fill="#010101" d="M720.798 37.168C721.806 37.107 722.788 37.2108 723.675 37.7566C724.738 38.4109 725.467 39.5069 725.85 40.6727C726.321 42.1028 726.234 43.7193 725.47 45.0379C725.08 45.7116 724.761 46.0009 724.157 46.4926C722.608 47.7516 719.817 48.2702 717.874 48.6323C703.634 51.2862 689.222 53.0659 674.943 55.5025Q613.22 65.8448 552.012 78.8926C550.648 79.1579 549.33 79.3244 547.946 79.4532C546.685 78.9209 546.599 79.0288 546.046 77.7999L546.506 76.6028C547.778 75.3964 549.241 75.0457 550.915 74.6129C568.452 70.0781 586.374 66.5206 604.075 62.6814L664.737 49.3684L700.296 41.5561C707.081 40.0268 713.913 38.1305 720.798 37.168Z" data-index="21"></path>
	<path fill="#010101" d="M708.976 109.283C712.826 108.967 716.799 108.409 720.432 110.005C722.353 110.848 723.363 111.921 724.083 113.861C723.993 115.275 723.794 115.934 722.82 116.998C721.182 118.789 718.357 119.502 716.038 119.739C711.872 120.164 707.397 119.842 703.192 119.857Q688.017 119.926 672.844 119.678L587.75 118.501C585.076 118.53 582.392 118.579 579.718 118.511C577.461 118.453 573.724 118.23 572.107 116.491L572.702 115.706C574.546 114.88 576.43 114.524 578.433 114.352C585.226 113.767 592.214 113.865 599.041 113.664L637.177 112.488C661.125 111.749 685.031 110.155 708.976 109.283Z" data-index="22"></path>
	<path fill="#010101" d="M462.447 116.715C466.977 116.476 471.328 116.196 475.837 116.879L476.563 118.258L477.198 117.577L475.919 116.944L476.28 118.458C471.35 120.598 466.123 120.194 460.875 120.156C457.509 120.273 449.748 121.148 447.344 118.93L447.465 118.168C450.326 116.152 458.874 116.876 462.447 116.715Z" data-index="23"></path>
	<path fill="#010101" d="M522.857 151.825C526.399 151.988 538.701 153.022 541.107 155.153C542.29 156.203 541.966 157.215 541.981 158.662C537.572 158.551 527.431 157.559 523.982 155.072C522.676 154.13 522.942 153.267 522.857 151.825Z" data-index="24"></path>
	<path fill="#010101" d="M561.165 95.2078C561.361 95.1936 561.556 95.1722 561.752 95.1653C563.553 95.1019 564.046 95.5016 565.345 96.644L565.381 97.4997C562.813 99.752 553.701 99.95 550.118 100.386C547.907 100.615 546.727 100.763 544.866 99.5459L544.851 98.8136C548.272 95.8355 556.848 95.6452 561.165 95.2078Z" data-index="25"></path>
	<path fill="#010101" d="M559.339 114.727C560.47 114.647 561.558 114.699 562.688 114.744C564.067 115.625 564.079 115.633 564.611 117.179C562.325 119.492 553.711 118.848 550.382 118.901C549.619 118.904 548.75 118.964 548 118.836C546.515 118.583 546.356 118.412 545.491 117.283C545.494 116.707 545.309 116.264 545.799 115.856C547.761 114.221 556.624 114.852 559.339 114.727Z" data-index="26"></path>
	<path fill="#010101" d="M529.308 115.256C532.518 115.078 537.433 114.199 540.327 115.828C540.913 117.01 541.127 116.847 540.715 118.193C539.107 119.23 537.106 119.081 535.25 119.151C532.9 119.287 530.397 119.579 528.051 119.424C526.235 119.305 523.992 118.659 522.759 117.286L523.677 115.921C525.542 115.084 527.307 115.228 529.308 115.256Z" data-index="27"></path>
	<path fill="#010101" d="M533.797 78.084C534.271 78.0097 534.743 77.9257 535.22 77.8834C536.768 77.7461 537.617 78.1755 538.779 79.1381L538.843 80.1469C536.231 82.873 530.002 83.2212 526.355 83.8614C524.841 84.2239 523.554 84.4198 521.994 84.4134C521.058 83.5642 521.223 83.4861 521.16 82.2011C523.565 79.6304 530.329 78.867 533.797 78.084Z" data-index="28"></path>
	<path fill="#010101" d="M508.516 83.6297C509.606 83.4858 510.841 83.2336 511.936 83.2748C513.122 83.3194 513.752 83.7664 514.598 84.5286L514.596 85.0593C512.027 87.8019 505.378 88.4283 501.688 89.1927C499.876 89.4723 497.954 89.8917 496.246 89.0793L495.991 87.4559L495.805 87.6216C499.06 85.0399 504.503 84.4679 508.516 83.6297Z" data-index="29"></path>
	<path fill="#010101" d="M524.513 132.391C528.492 132.834 538.887 132.371 541.853 134.932C542.497 135.488 542.226 136.396 542.232 137.179C537.445 138.222 529.932 137.675 525.394 135.823C524.198 134.465 524.47 134.141 524.513 132.391Z" data-index="30"></path>
	<path fill="#010101" d="M461.279 94.1214C461.741 94.041 462.522 93.8806 462.975 93.9162C464.171 94.0103 464.534 94.4342 465.203 95.2867C465.035 95.6821 464.974 95.899 464.659 96.2448C462.346 98.7782 454.571 99.4242 451.119 100.022C449.656 99.9355 448.872 100.064 447.639 99.2357L447.734 98.5126C451.351 95.5848 456.844 94.9322 461.279 94.1214Z" data-index="31"></path>
	<path fill="#010101" d="M549.45 135.055C553.791 135.234 558.913 134.857 563.108 135.976C564.509 136.349 564.995 136.615 565.731 137.848L565.224 139.723C560.852 139.555 554.33 140.048 550.326 138.344C549.242 137.883 549.197 137.673 548.776 136.647L549.45 135.055Z" data-index="32"></path>
	<path fill="#010101" d="M486.089 88.6231C486.739 88.6476 487.311 88.882 487.929 89.0734C488.437 90.196 488.32 90.1445 487.879 91.3153C484.679 93.9341 479.594 94.1735 475.616 94.8324C474.952 94.934 474.363 94.8581 473.696 94.8054C473.094 93.6512 473.298 93.681 473.534 92.4755C476.346 89.8801 482.364 89.387 486.089 88.6231Z" data-index="33"></path>
	<path fill="#010101" d="M534.29 98.6751C535.702 98.3843 537.65 98.2104 538.988 98.7758C539.533 99.9073 539.643 99.9089 539.32 101.103C536.327 102.504 532.216 102.702 528.93 103.273C528.708 103.31 528.487 103.357 528.263 103.385C526.49 103.613 524.931 103.736 523.484 102.677L523.506 101.562C525.79 99.1189 531.14 99.1086 534.29 98.6751Z" data-index="34"></path>
	<path fill="#010101" d="M507.276 115.708C510.069 115.579 513.48 115.274 516.151 116.168C517.053 116.47 517.263 116.514 517.686 117.385C517.473 117.797 517.326 118.141 516.998 118.493C516.029 119.535 514.432 119.446 513.125 119.497C510.102 119.568 506.764 119.819 503.776 119.296C502.53 119.078 501.915 118.877 501.158 117.829L501.628 116.683C503.004 115.562 505.554 115.795 507.276 115.708Z" data-index="35"></path>
	<path fill="#010101" d="M482.327 116.199C485.637 116.051 493.843 114.817 496.434 116.81C496.553 118.095 496.381 118.231 495.729 119.369C492.521 119.503 483.995 120.754 481.527 118.719C481.428 117.384 481.574 117.332 482.327 116.199Z" data-index="36"></path>
	<path fill="#010101" d="M503.028 130.521C506.802 130.755 513.616 130.392 516.627 132.599C517.049 133.942 516.858 133.946 516.23 135.234C512.225 135.271 506.663 135.594 503.111 133.579C502.422 132.252 502.708 131.94 503.028 130.521Z" data-index="37"></path>
	<path fill="#010101" d="M480.093 143.813C483.022 143.651 490.797 144.244 493.121 146.19C494.221 147.111 493.968 147.788 493.993 149.119C490.943 149.405 483.437 148.985 481.045 146.945C479.821 145.9 480.084 145.31 480.093 143.813Z" data-index="38"></path>
	<path fill="#010101" d="M481.615 128.918C485.813 128.968 490.701 128.549 494.619 130.187C495.661 131.481 495.432 131.755 495.365 133.361C492.255 133.443 484.392 133.907 482.038 131.635C481.496 131.112 481.655 129.66 481.615 128.918Z" data-index="39"></path>
	<path fill="#010101" d="M514.601 101.204C516.256 101.321 516.409 101.254 517.653 102.318L517.547 103.29C514.644 105.531 509.546 105.604 506.02 106.057C504.715 105.949 503.965 105.86 502.788 105.214L502.914 104.528C503.73 103.504 504.432 103.194 505.627 102.777C505.845 102.701 506.066 102.631 506.285 102.556C509.006 101.621 511.756 101.449 514.601 101.204Z" data-index="40"></path>
	<path fill="#010101" d="M500.848 148.514C501.078 148.48 501.309 148.442 501.54 148.412C504.737 147.996 512.794 148.615 515.177 150.786C515.808 151.36 515.708 152.547 515.8 153.362C512.255 153.689 505.96 152.667 502.823 151.207C501.403 150.547 501.31 149.951 500.848 148.514Z" data-index="41"></path>
	<path fill="#010101" d="M452.328 108.216C453.633 108.082 454.922 108.19 456.003 108.902L455.908 109.831C453.566 112.363 449.811 112.225 446.619 112.437C445.592 112.43 444.517 112.533 443.598 112.005C442.987 111.654 442.988 111.005 442.794 110.378L443.407 109.484C446.098 108.278 449.411 108.41 452.328 108.216Z" data-index="42"></path>
	<path fill="#010101" d="M471.086 106.712C472.131 106.562 472.937 106.699 473.969 106.89C474.876 107.73 475.123 107.609 475.235 108.902C473.05 110.927 468.219 110.524 465.374 110.634C463.698 110.757 462.688 110.726 461.121 110.089L461.333 109.415C463.737 106.972 467.886 106.929 471.086 106.712Z" data-index="43"></path>
	<path fill="#010101" d="M461.988 127.479C465.195 127.539 471.117 126.996 473.954 128.729C475.151 129.459 475.036 130.302 475.214 131.55C472.2 131.726 465.792 132.355 463.253 130.549C461.969 129.636 462.161 128.944 461.988 127.479Z" data-index="44"></path>
	<path fill="#010101" d="M492.24 104.205C493.149 104.103 494.083 104.168 494.997 104.18C495.794 104.698 495.814 105.214 496.175 106.07C493.724 108.15 488.668 107.932 485.605 108.162C484.722 108.317 483.893 108.301 483 108.307C482.224 107.379 482.178 107.689 482.291 106.361C484.457 104.302 489.374 104.471 492.24 104.205Z" data-index="45"></path>
	<path fill="#010101" d="M460.757 140.123C464.371 140.515 468.268 140.504 471.478 142.35C472.195 143.706 471.982 144.184 471.824 145.678C469.092 145.074 466.288 144.551 463.596 143.794C462.077 143.367 460.966 142.933 460.208 141.526L460.757 140.123Z" data-index="46"></path>
	<path fill="#010101" d="M443.444 136.887C446.272 137.05 451.173 136.837 453.462 138.653C454.612 139.565 454.615 140.241 454.956 141.608C451.89 141.521 446.371 141.486 443.994 139.425C443.321 138.841 443.5 137.733 443.444 136.887Z" data-index="47"></path>
	<path fill="#010101" d="M446.199 126.318C449.022 126.359 452.754 125.958 455.171 127.597C455.67 128.953 455.479 128.959 454.896 130.31C452.629 130.22 450.07 130.353 447.851 129.957C446.552 129.726 446.045 129.322 445.368 128.248L446.199 126.318Z" data-index="48"></path>
</svg>