<svg xmlns="http://www.w3.org/2000/svg" xmlns:xlink="http://www.w3.org/1999/xlink" width="1024" height="1024">
	
	<path d="M563.893 22.0857C566.864 21.8854 569.745 21.9526 572.538 23.1119C576.899 24.9218 578.957 28.449 580.62 32.6085C574.603 72.1991 569.751 112.052 564.415 151.745L542.825 312.685Q538.976 344.256 535.471 375.866C534.22 386.953 533.217 398.098 531.547 409.13C534.062 409.32 536.597 409.378 539.118 409.488C541.425 403.925 543.08 398.068 544.975 392.354Q550.403 376.183 555.534 359.915C562.293 338.963 569.68 318.214 576.639 297.327L659.158 50.5015C660.724 45.9452 662.309 39.7893 667.128 37.6801C668.943 36.886 670.962 36.9464 672.78 37.6959C676.49 39.2257 677.966 41.8943 679.347 45.4399C678.45 55.3567 668.401 81.5501 664.938 92.8057C648.92 144.876 631.183 196.303 613.917 247.959L569.337 383.774C567.9 388.149 559.12 407.645 559.852 410.385C561.195 410.699 562.108 410.928 563.486 410.555C566.83 407.928 568.462 403.594 570.391 399.912C582.291 377.211 595.389 355.151 608.019 332.852L680.198 205.499C696.384 176.766 713.135 148.346 729.117 119.505C737.289 104.76 745.853 90.2617 754.107 75.5729C759.892 65.2785 765.239 54.4328 771.685 44.5344C774.002 40.9755 776.204 37.7854 780.499 36.5859C783.722 35.686 787.068 36.358 789.883 38.1023C794.396 40.8991 796.239 44.9528 797.42 49.8792C795.169 58.8356 782.511 78.4355 777.168 87.888L746.841 142.137Q669.69 278.294 593.929 415.23C608.713 418.115 631.713 423.174 642.773 433.679C645.39 436.164 647.118 438.926 647.994 442.431C649.834 449.794 649.126 458.674 649.263 466.275C649.557 482.535 649.526 498.795 649.907 515.055C678.752 521.294 726.832 535.895 748.346 555.335C756.241 562.469 762.467 570.927 762.98 581.889C763.936 602.358 763.232 622.94 763.553 643.43L764.982 812.646L765.512 883.084C765.633 896.584 766.77 910.959 764.973 924.326C763.788 933.137 759.551 940.611 753.544 947.071C718.098 985.189 622.968 998.798 573.255 1000.57C561.893 1001.8 550.141 1001.73 538.712 1002.02C474.377 1003.66 365.074 997.59 308.744 965.431C295.897 958.097 279.322 945.093 275.526 929.892C272.731 918.701 274.073 900.776 273.91 888.846Q273.373 835.306 273.425 781.761L272.627 655.501L272.36 610.533C272.267 601.669 271.732 592.67 272.145 583.821C272.429 577.76 273.735 572.851 276.864 567.627C293.693 539.541 340.381 528.765 370.192 521.323L398.032 514.115C399.319 497.737 398.801 480.839 399.118 464.392C399.231 458.497 398.763 452.051 399.792 446.253C400.408 442.789 401.811 439.696 403.767 436.786C411.94 424.629 430.212 419.089 443.815 416.656C432.246 387.292 419.415 358.467 406.991 329.462L323.173 138.703C310.845 111.124 297.23 83.9867 285.967 55.9472C284.955 53.4278 284.414 50.8194 284.887 48.1113C285.494 44.6338 287.634 41.5258 290.522 39.5327C293.068 37.7756 296.155 36.9634 299.217 37.5714C301.447 38.014 304.014 39.2011 305.241 41.1901C311.269 50.9619 315.759 62.0677 320.522 72.5119L344.48 125.628Q388.766 222.38 431.227 319.947C441.692 344.11 451.529 368.532 462.126 392.64C464.944 399.052 467.082 405.902 470.229 412.135L470.557 412.09C469.619 405.768 467.401 399.415 465.805 393.218C461.419 376.195 456.561 359.313 452.019 342.334L400.908 147.736Q390.247 109.445 380.072 71.0225C377.556 61.6632 374.178 52.3161 372.126 42.8624C371.453 39.7647 371.073 36.7775 372.705 33.8944Q372.946 33.4755 373.228 33.0831Q373.51 32.6907 373.83 32.3288Q374.15 31.9669 374.505 31.6392Q374.86 31.3115 375.247 31.0213Q375.633 30.7312 376.047 30.4816Q376.461 30.232 376.898 30.0255Q377.335 29.819 377.79 29.6577Q378.246 29.4964 378.715 29.3819Q379.146 29.2793 379.584 29.2204Q380.023 29.1616 380.466 29.1471Q380.908 29.1326 381.35 29.1626Q381.792 29.1926 382.228 29.2669Q382.665 29.3411 383.092 29.4588Q383.518 29.5765 383.931 29.7365Q384.344 29.8964 384.739 30.097Q385.133 30.2977 385.506 30.5369C388.521 32.4437 390.104 35.6762 391.234 38.9438C393.213 44.6685 394.149 50.9365 395.666 56.8266L404.862 91.394L431.008 187.494L464.946 311.537C473.968 344.735 483.069 377.668 489.583 411.475C493.796 410.888 498.073 410.563 502.306 410.128C504.92 398.969 505.184 387.098 506.62 375.727L516.164 302.428L544.611 90.7561C546.037 79.9843 550.388 34.3955 553.928 28.4852C556.17 24.741 559.805 23.072 563.893 22.0857Z" data-index="1" style="opacity: 1;"></path>
	<path fill="#FEFEFE" d="M289.562 604.802C292.873 607.393 295.523 611.163 298.724 613.974C304.425 618.981 311.34 622.812 317.763 626.801C316.957 636.701 314.251 646.972 312.773 656.863C307.859 689.747 303.69 721.919 305.683 755.248C306.204 763.95 306.838 772.723 308.706 781.253C313.284 758.524 314.493 735.188 315.965 712.103C317.768 683.818 319.431 655.682 318.447 627.327C340.821 636.363 363.389 643.661 387.106 648.319C401.877 651.22 416.783 652.948 431.581 655.596C427.952 664.621 423.63 673.459 419.552 682.294Q407.738 708.35 395.182 734.057C387.195 750.831 379.779 767.952 372.056 784.855C361.536 781.067 350.429 775.777 341.238 769.45C343.122 758.895 346.418 747.918 351.418 738.403C353.417 734.6 362.183 723.792 362.403 721.192C362.007 720.012 361.615 719.044 360.743 718.125C360.009 717.351 358.989 716.903 357.912 716.977C354.85 717.189 351.871 720.497 350.039 722.672C343.612 730.3 339.267 739.374 336.58 748.932C329.302 774.821 329.799 828.051 332.115 854.603C333.161 866.599 335.059 890.453 344.656 898.172C355.491 906.888 377.085 910.517 390.738 913.276C460.871 927.448 533.735 932.17 604.879 923.465C631.183 920.246 657.753 914.011 682.324 904.002C687.508 901.891 694.847 899.395 698.247 894.743C702.637 888.737 704.335 878.658 705.236 871.45C708.268 847.188 706.544 821.556 705.829 797.144C705.45 784.19 705.8 770.938 703.995 758.089C702.2 745.301 698.195 734.014 691.85 722.772C690.47 720.327 688.49 716.531 686.059 715.069C684.97 714.414 684.064 714.244 682.816 714.481C681.283 714.772 679.964 715.598 679.239 717.025C678.59 718.304 678.649 719.46 679.05 720.799C679.994 723.948 682.701 727.465 684.28 730.417C686.514 734.595 688.368 738.898 690.127 743.292C693.419 753.332 694.612 763.408 694.872 773.922C678.416 782.096 663.054 788.369 645.483 793.813C632.954 764.572 619.333 735.693 605.713 706.946C597.938 690.537 589.235 674.074 582.749 657.118Q591.141 656.429 599.517 655.557C638.494 651.387 718.257 638.977 744.054 607.038Q744.664 637.445 744.733 667.858L745.938 774.888L746.81 866.791C746.954 883.895 747.706 901.337 747.046 918.407C746.935 921.273 746.745 925.764 745.103 928.148C743.329 930.725 741.478 933.188 739.309 935.451C700.222 976.225 582.929 983.878 528.619 984.936C472.676 986.026 343.171 979.334 301.799 939.106C297.559 934.983 292.575 928.97 291.695 922.946C290.461 914.502 291.414 902.748 291.398 893.899Q291.3 865.924 290.908 837.951L289.562 604.802Z" data-index="2"></path>
	<path d="M335.605 918.102C344.465 919.253 353.802 924.201 362.358 926.978C376.834 931.677 391.262 935.375 406.184 938.305C479.255 952.653 564.184 956.787 637.506 942.606Q656.353 938.862 674.822 933.56C682.003 931.491 689.053 929.087 696.298 927.23C693.702 928.906 690.998 930.417 688.327 931.971C675.468 939.177 661.203 943.917 647.08 947.926C602.616 960.55 557.199 963.816 511.124 961.335C468.435 959.037 426.898 954.325 385.971 941.326C375.778 938.088 365.56 934.61 355.838 930.125C349.616 927.254 340.196 923.217 335.605 918.102Z" data-index="3"></path>
	<path d="M357.138 938.055C363.686 940.48 369.881 944.087 376.477 946.567C395.488 953.717 416.238 959.226 436.106 963.302Q454.292 967.167 472.631 970.222Q483.826 972.012 494.977 974.056C497.888 974.577 501.371 974.847 504.146 975.816C505.164 976.172 506.194 976.4 507.243 976.645L507.506 977.077C472.31 978.469 431.722 972.745 398.512 960.806C386.101 956.345 374.918 950.917 363.883 943.657C361.669 942.201 358.257 940.429 357.138 938.055Z" data-index="4"></path>
	<path d="M314.156 792.32C315.473 795.925 314.651 805.633 314.702 809.727C315.098 841.417 314.628 872.593 309.043 903.893C308.074 909.326 307.374 915.797 305.18 920.865C300.717 907.567 308.036 807.67 314.156 792.32Z" data-index="5"></path>
	<path d="M731.733 633.897C733.415 636.925 735.134 731.859 736.14 743.601L733.914 738.409C725.485 709.877 722.098 681.306 727.371 651.769C728.42 645.895 729.495 639.426 731.733 633.897Z" data-index="6"></path>
	<path d="M626.894 958.212L627.011 958.238L626.812 958.752C595.283 973.365 571.27 976.333 537.123 977.923L536.637 977.455L536.984 976.797C546.041 974.172 555.298 972.945 564.481 970.946C585.18 966.441 606.102 962.297 626.894 958.212Z" data-index="7"></path>
	<path d="M720.128 929.399L720.803 929.781C720.684 930.592 720.483 931.22 720.104 931.949C713.644 944.373 696.098 950.779 683.61 955.047L682.911 954.977C683.838 952.3 715.061 932.722 720.128 929.399Z" data-index="8"></path>
	<path fill="#FEFEFE" d="M397.273 531.495C398.029 531.424 397.565 531.408 398.637 531.784C399.974 538.077 398.915 554.37 398.985 561.75C400.102 563.789 401.412 565.672 403.077 567.306C424.528 588.354 492.368 592.662 521.883 592.747C556.44 592.847 593.165 589.872 625.975 578.334C632.745 575.953 640.963 572.946 646.046 567.635C653.038 560.328 650.314 544.78 650.181 535.269C671.294 540.343 692.573 546.337 712.465 555.155C723.045 559.845 738.684 567.913 742.861 579.644C744.954 585.521 743.916 592.504 741.091 597.971C731.038 617.424 696.673 627.975 676.805 633.981Q646.622 641.926 615.724 646.333Q596.911 648.76 578.001 650.239Q559.09 651.718 540.129 652.246Q521.168 652.774 502.204 652.35Q483.24 651.925 464.322 650.549C430.404 648.216 397.422 644.255 364.49 635.513C351.207 631.987 337.717 627.949 325.196 622.224C312.445 616.393 294.986 606.628 290.039 592.448C288.277 587.397 288.677 582.696 291.102 577.952C305.365 550.057 368.735 540.34 397.273 531.495Z" data-index="9" style="opacity: 1;"></path>
	<path d="M656.318 570.657C669.227 574.243 687.496 574.142 697.844 583.919C700.697 586.614 702.486 590.088 702.491 594.058C702.497 598.623 700.246 602.72 697.097 605.897C682.389 620.735 653.352 623.661 633.467 623.53C630.53 623.554 627.607 623.312 624.679 623.107C644.217 619.519 663.58 616.473 681.748 607.997C686.735 605.67 693.127 601.556 694.904 596.113C699.233 582.853 659.887 580.319 656.426 571.157C656.366 570.998 656.354 570.824 656.318 570.657Z" data-index="10"></path>
	<path d="M668.16 554.021C672.555 554.24 677.137 555.518 681.429 556.456C695.557 559.543 714.02 563.23 724.074 574.371C727.532 578.202 730.113 583.183 729.67 588.469C729.16 594.564 724.895 599.349 720.508 603.184C717.753 605.172 714.856 606.627 711.721 607.9C714.107 601.257 718.157 596.932 716.972 589.25C713.647 567.708 682.713 565.461 668.514 554.309C668.395 554.215 668.278 554.117 668.16 554.021Z" data-index="11"></path>
	<path d="M338.675 587.158L340.436 587.62C342.122 590.054 339.443 599.087 342.151 603.836C350.037 617.664 384.528 622.87 399.316 625.007C404.463 625.751 409.893 625.854 414.928 627.13L414.604 627.644L412 628.007C392.681 630.502 363.71 630.031 346.646 620.59C341.205 617.58 336.461 613.041 334.8 606.875C332.932 599.939 335.346 593.179 338.675 587.158Z" data-index="12"></path>
	<path d="M352.287 557.617L352.306 558.336C348.03 561.233 343.646 564.102 339.65 567.381C332.61 573.159 326.111 580.192 325.295 589.739C325.208 590.757 325.291 590.986 324.747 591.878L323.01 591.843C322.857 591.547 322.699 591.254 322.551 590.955C320.745 587.307 320.683 582.978 322.178 579.21C326.611 568.035 341.967 561.87 352.287 557.617Z" data-index="13"></path>
	<path d="M319.303 567.96C319.79 568.244 320.013 568.585 320.361 569.02C319.557 570.584 317.293 571.478 315.923 572.665C310.44 577.414 308.002 584.028 307.154 590.994C306.948 592.69 306.742 592.865 305.375 593.916C304.98 593.473 304.691 593.178 304.359 592.658C302.869 590.326 302.932 587.132 303.655 584.551C305.779 576.977 312.753 571.602 319.303 567.96Z" data-index="14"></path>
	<path fill="#FEFEFE" d="M419.933 467.044C431.468 471.356 442.73 474.587 454.818 476.893C503.288 486.138 582.044 485.861 628.103 467.493C627.964 498.733 628.93 530.125 628.083 561.34C627.307 561.743 626.546 562.118 625.744 562.467C614.97 567.154 602.136 569.652 590.572 571.667C541.972 580.137 467.606 581.147 421.057 562.781L419.933 467.044Z" data-index="15" style="opacity: 1;"></path>
	<path fill="#FEFEFE" d="M514.9 659.655Q529.052 659.446 543.205 659.389C547.091 674.978 549.9 690.947 552.963 706.721C559.529 740.539 565.468 774.506 572.339 808.261Q559.511 809.694 546.625 810.448C527.334 810.784 508.508 812.019 489.216 810.079C491.324 799.637 492.674 789.009 494.537 778.516L514.9 659.655Z" data-index="16"></path>
	<path fill="#FEFEFE" d="M564.495 30.7729C565.065 30.8098 565.962 30.7982 566.528 30.9786C567.656 31.3384 568.418 31.8607 568.913 32.9722C569.542 34.386 569.43 36.5707 569.261 38.0654C568.832 41.8653 567.839 45.6759 567.281 49.4753Q565.344 63.2714 563.568 77.0889L544.263 221.611L522.12 398.004C520.818 408.676 514.974 465.299 512.842 469.668L511.625 469.954C509.708 470.025 507.869 470.026 505.957 469.844L505.626 469.259C509.077 449.621 511.051 430.038 513.335 410.252L521.452 344.14L549.168 135.935L558.259 66.7578C559.631 56.4793 560.49 45.8881 562.417 35.7086C562.778 33.8018 563.394 32.3639 564.495 30.7729Z" data-index="17"></path>
	<path fill="#FEFEFE" d="M784.066 44.2576C784.56 44.3707 784.781 44.408 785.294 44.5963C786.542 45.0544 786.991 45.3928 787.588 46.5591C787.517 50.5214 738.198 137.082 732.475 147.138L603.308 376.147L567.685 439.715L557.649 457.578C555.996 460.529 554.355 464.276 552.214 466.864C551.005 468.326 550.272 468.299 548.521 468.518C547.258 468.478 546.036 468.376 544.782 468.236C546.173 462.047 568.634 425.198 573.533 416.408L718.154 161.088Q739.244 123.014 760.779 85.1893C767.878 72.4277 775.719 55.8267 784.066 44.2576Z" data-index="18"></path>
	<path fill="#FEFEFE" d="M486.241 695.358C487.291 699.385 479.042 739.883 477.827 747.103Q474.95 765.138 472.264 783.202C470.94 791.646 469.177 800.127 468.35 808.632C455.835 808.115 442.869 805.58 430.656 802.876C428.3 802.446 425.969 801.83 423.64 801.276C428.993 791.063 435.462 781.291 441.42 771.407C456.613 746.204 472.32 721.303 486.241 695.358Z" data-index="19"></path>
	<path fill="#FEFEFE" d="M296.611 47.2345C297.872 48.0008 298.531 48.8813 299.242 50.1595C301.33 53.9102 302.852 58.0764 304.594 62.0025L313.704 82.203L345.364 152.118Q402.553 278.33 456.992 405.752C465.899 426.496 474.112 447.537 483.01 468.273L482.439 469.099C480.861 469.041 479.488 469.213 478.109 468.378C472.248 458.281 467.178 443.154 462.517 432.029L432.953 362.242Q388.015 257.828 341.207 154.24C335.54 141.479 330.068 128.612 324.28 115.908C320.469 107.543 295.573 55.1918 295.169 50.4562C295.025 48.7791 295.633 48.4149 296.611 47.2345Z" data-index="20"></path>
	<path fill="#FEFEFE" d="M587.786 425.953C603.536 429.872 625.678 432.286 636.549 445.654C629.585 453.672 617.017 456.973 607.159 459.961C593.269 463.655 579.198 465.473 564.955 467.162C571.299 453.455 580.083 438.987 587.786 425.953Z" data-index="21"></path>
	<path fill="#FEFEFE" d="M486.646 658.87L495.074 658.99C489.544 670.265 482.214 680.81 475.959 691.711C455.249 727.8 433.345 763.143 411.927 798.805C409.226 797.979 406.481 797.546 403.701 797.081C408.079 788.239 413.481 779.999 418.665 771.623Q426.335 759.113 433.755 746.454C451.083 717.193 467.783 687.162 486.646 658.87Z" data-index="22" style="opacity: 1;"></path>
	<path fill="#FEFEFE" d="M442.407 656.424C445.664 656.675 448.774 657.134 451.979 657.763C442.225 680.147 431.773 702.264 421.719 724.518L391.878 791.354C389.593 791.945 385.694 790.136 383.468 789.442C387.998 776.312 394.252 763.623 399.959 750.966Q409.148 730.166 418.724 709.541C426.891 691.975 435.291 674.45 442.407 656.424Z" data-index="23"></path>
	<path fill="#FEFEFE" d="M446.02 427.694L447.604 427.645C451.161 431.435 462.718 460.311 465.736 467.212C456.52 466.073 447.789 464.32 438.875 461.709C431.844 459.416 424.92 456.495 418.842 452.22C416.657 450.683 413.164 447.93 412.977 444.98C412.881 443.462 413.397 442.261 414.326 441.102C420.262 433.699 436.905 428.714 446.02 427.694Z" data-index="24"></path>
	<path fill="#FEFEFE" d="M565.972 658.245C567.66 658.086 569.213 657.851 570.879 658.298C575.181 664.472 578.145 672.436 581.28 679.268Q589.022 695.878 596.565 712.579C608.527 739.04 621.379 765.218 632.873 791.878C633.396 793.091 634.446 795.004 633.955 796.216L632.356 796.6C630.412 797.125 628.424 797.444 626.443 797.803C626.361 797.666 626.276 797.53 626.197 797.391C620.562 787.555 616.767 776.04 612.11 765.657L580.411 695.089Q575.451 683.871 570.158 672.806C568.391 669.156 565.705 665.074 564.533 661.267C564.196 660.173 564.24 659.754 564.535 658.698L565.972 658.245Z" data-index="25"></path>
	<path fill="#FEFEFE" d="M557.422 672.886C560.738 676.661 570.245 697.401 571.864 702.901C573.507 708.484 573.924 714.842 575.031 720.614Q579.499 743.039 583.502 765.551L588.714 792.227C589.568 796.473 590.838 800.919 591.218 805.226L582.962 806.734C580.621 790.311 576.834 773.965 573.59 757.693Q568.483 731.212 563.682 704.674C561.724 694.29 558.214 683.358 557.422 672.886Z" data-index="26"></path>
	<path fill="#FEFEFE" d="M380.926 36.8532L382.16 37.605C383.553 39.8208 384.345 42.4379 385.085 44.9363C390.56 63.4341 395.155 82.26 400.164 100.895Q413.719 150.054 426.533 199.412C437.712 241.93 449.683 284.191 460.54 326.8L474.611 380.408C477.319 390.699 481.259 402.149 482.013 412.756C481.672 412.611 481.375 412.502 481.067 412.281C479.872 411.42 479.039 407.101 478.663 405.681L407.925 135.342Q398.512 100.213 388.724 65.1862L383.686 47.043C382.727 43.6749 381.351 40.334 380.926 36.8532Z" data-index="27"></path>
	<path fill="#FEFEFE" d="M670.005 44.6482C670.554 45.0803 670.727 45.3841 671.077 45.9743C670.888 51.2029 668.129 57.6128 666.58 62.6709Q660.395 82.8182 653.791 102.832L591.694 292.003L568.306 364.351C565.161 374.333 561.74 384.206 558.445 394.137C556.784 399.142 555.425 404.897 553.233 409.659C552.965 410.239 552.596 410.609 552.166 411.069L551.12 409.691C551.88 403.871 557.758 389.745 559.871 383.287C567.618 359.609 575.029 335.87 582.98 312.249L639.166 142.652L655.125 92.7831C660.282 76.8449 665.71 60.8416 670.005 44.6482Z" data-index="28"></path>
	<path fill="#FEFEFE" d="M589.053 739.909C591.723 743.995 614.527 796.938 614.746 800.42L613.884 801.176C609.953 801.812 606.035 802.576 602.116 803.284C599.561 792.076 597.786 780.665 595.487 769.397C593.475 759.542 590.911 749.788 589.053 739.909Z" data-index="29"></path>
	<path fill="#FEFEFE" d="M499.497 421.226C500.042 421.139 500.433 421.221 500.973 421.305C502.395 424.758 499.019 441.63 498.25 446.356L497.809 446.529L497.324 444.867C495.34 437.274 493.375 429.625 492.076 421.882C494.539 421.598 497.027 421.439 499.497 421.226Z" data-index="30"></path>
</svg>