<svg xmlns="http://www.w3.org/2000/svg" xmlns:xlink="http://www.w3.org/1999/xlink" width="1024" height="1024">
	
	<path fill="#010101" d="M308.384 406.214C311.364 405.983 314.508 405.888 317.501 405.953Q319.563 405.991 321.598 406.325Q323.633 406.66 325.598 407.284C340.257 411.831 354.719 418.718 368.904 424.589L444.711 455.939Q565.952 504.625 685.864 556.502Q730.484 575.25 774.567 595.227C799.268 606.149 824.134 616.945 848.386 628.841C864.694 636.841 879.668 646.84 895.033 656.452C900.866 660.101 908.808 663.69 913.574 668.584C913.403 671.021 912.987 673.294 912.472 675.671C916.094 679.093 919.247 683.334 919.303 688.531C919.372 695.025 913.573 701.791 909.151 706.209C906.853 708.505 904.841 709.502 901.596 709.456C894.397 709.355 898.074 711.484 893.594 713.893C889.957 715.849 886.684 714.012 882.948 714.259C880.59 714.415 879.329 716.313 876.625 715.969C872.845 715.488 868.665 713.607 864.947 712.559C863.601 713.669 862.216 714.92 860.708 715.803C852.216 720.776 838.494 710.546 829.996 709.23C817.483 707.292 804.536 707.944 791.961 705.723C779.14 703.457 766.46 700.321 753.745 697.543L684.035 682.212L491.29 639.882Q426.824 626.031 362.523 611.427C340.018 606.259 317.57 600.695 294.988 595.881L179.524 570.271L146.678 562.989C140.015 561.522 133.155 560.277 126.633 558.276C121.623 556.739 117.897 555.252 114.452 551.105C107.786 543.082 104.781 529.126 105.819 518.919C107.287 517.389 108.81 516.036 110.562 514.835C122.941 506.352 150.347 496.998 165.964 496.829C174.447 496.736 183.733 499.081 192.095 500.497Q219.108 505.1 246.051 510.099C331.623 525.654 416.553 544.426 502.124 559.98C442.812 533.333 384.356 504.808 325.181 477.86Q309.555 470.715 293.78 463.907C288.25 461.541 264.401 452.474 261.027 449.541C257.047 446.082 255.169 439.8 254.703 434.675C254.118 428.245 255.512 420.98 259.801 415.998C262.146 413.274 265.221 411.374 268.599 410.202C277.644 407.062 297.972 406.918 308.384 406.214Z" data-index="1" style="opacity: 1;"></path>
	<path fill="#FEFEFE" d="M165.304 504.183C170.99 503.501 202.435 510.187 210.203 511.531Q348.282 536.532 485.791 564.496Q499.39 567.065 513.047 569.311C518.279 570.212 523.788 570.864 528.83 572.572C540.778 576.621 552.425 582.943 564.052 587.914Q611.01 607.916 657.286 629.448C672.812 636.557 688.104 644.472 703.933 650.866C702.528 662.067 704.974 671.025 710.942 680.448L304.343 590.398L181.345 563.083L144.759 555.057C137.751 553.535 130.54 552.277 123.672 550.239L119.587 545.686C126.93 547.992 134.622 549.243 142.139 550.851C158.013 554.246 173.864 557.345 189.806 560.378L254.525 573.047Q285.866 578.841 317.077 585.296C319.032 585.612 320.999 585.713 322.973 585.84C317.044 583.78 310.512 582.562 304.417 581L264.373 570.986C229.222 562.341 194.191 553.395 158.836 545.578C147.608 543.096 133.614 539.254 122.637 537.697C120.674 537.419 117.684 537.584 115.981 536.593C115.02 536.033 114.755 535.352 114.505 534.34C114.17 532.989 113.718 530.952 114.432 529.697C174.978 544.745 237.108 552.951 298.014 566.334C312.419 569.499 327.118 572.485 341.365 576.268C364.987 582.54 388.245 589.749 412.059 595.362Q515.464 618.909 619.977 636.911C626.572 638.046 633.208 639.085 639.765 640.418C642.629 641.001 662.525 645.58 663.749 645.491C663.967 645.475 664.183 645.442 664.4 645.418L663.538 645.902L662.917 644.597C632.768 636.609 602.393 629.837 572.038 622.683Q496.586 604.721 420.63 589.029C391.119 583.091 361.254 579.142 331.801 572.835C320.907 570.502 310.162 567.333 299.341 564.673Q258.267 554.294 217.03 544.58C194.228 539.157 171.487 533.381 148.644 528.144C137.245 525.53 125.309 524.027 114.112 520.744L113.492 520.556Q116.529 518.999 119.628 517.57Q122.727 516.142 125.883 514.844Q129.04 513.547 132.248 512.383Q135.456 511.219 138.71 510.191Q141.964 509.163 145.258 508.272Q148.552 507.381 151.881 506.629Q155.209 505.877 158.567 505.265Q161.924 504.653 165.304 504.183Z" data-index="2" style="opacity: 1;"></path>
	<path fill="#010101" d="M331.854 589.06C336.73 589.553 341.759 590.907 346.605 591.762Q361.224 594.299 375.883 596.599C426.814 604.837 477.178 616.124 527.514 627.357L585.067 639.892L657.992 655.534C666.574 657.432 675.876 658.572 684.19 661.398C676.641 661.752 653.92 656.789 645.263 655.379Q579.399 644.882 513.998 631.808Q448.597 618.734 383.759 603.104L355.496 596.124C347.694 594.187 339.146 592.496 331.854 589.06Z" data-index="3" style="opacity: 1;"></path>
	<path fill="#FEFEFE" d="M305.509 414.284C311.444 414.001 318.053 413.148 323.811 414.81C328.949 416.293 334.06 418.531 339.044 420.469C351.029 425.128 362.827 430.18 374.698 435.117L457.797 469.265Q607.832 529.785 755.816 595.163Q744.167 597.763 732.687 601.03C723.033 603.876 710.95 608.73 706.065 618.241C702.481 625.218 704.034 632.737 706.428 639.761C707.095 641.471 708.044 643.133 708.861 644.781C692.92 638.58 677.447 630.781 661.934 623.582C648.536 617.365 634.988 611.639 621.494 605.654C614.321 602.472 607.306 598.942 600.123 595.777C572.372 583.551 544.401 571.645 516.843 559.001L363.189 487.113Q330.84 472.179 298.272 457.731C287.284 452.882 276.086 448.456 265.184 443.424C263.503 440.596 262.353 437.588 262.109 434.282C261.759 429.545 262.668 424.054 266.004 420.461C267.777 418.553 270.051 417.357 272.548 416.685C279.984 414.683 296.964 414.765 305.509 414.284Z" data-index="4" style="opacity: 1;"></path>
	<path fill="#010101" d="M508.439 536.485C514.318 537.167 520.592 539.936 526.338 541.586C540.53 545.662 554.362 550.841 568.191 555.995C610.09 571.609 650.827 590.306 691.366 609.123C685.319 608.558 673.501 603.513 667.276 601.391C639.93 592.066 612.603 582.628 585.89 571.585C570.786 565.341 556.101 558.293 541.256 551.485C530.508 546.555 518.444 542.729 508.439 536.485Z" data-index="5" style="opacity: 1;"></path>
	<path fill="#010101" d="M524.648 554.936C529.995 555.38 547.019 563.161 552.958 565.428C568.144 571.224 583.663 576.231 598.742 582.3C615.181 588.916 631.24 596.664 647.649 603.425C658.972 608.09 670.687 612.001 681.862 616.984C672.802 616.061 662.715 611.797 654.083 608.938Q628.522 600.749 603.579 590.834Q578.636 580.918 554.428 569.324C544.445 564.637 534.329 560.23 524.648 554.936Z" data-index="6"></path>
	<path fill="#FEFEFE" d="M874.031 653.276C882.681 657.549 891.013 662.372 899.288 667.322C892.747 667.57 884.984 669.244 880.429 674.326C877.162 677.971 876.571 682.213 876.886 686.934C873.727 686.351 870.566 685.767 867.367 685.458C863.059 685.042 857.098 684.909 853.691 687.963C848.54 692.579 853.488 696.041 853.346 700.219C853.286 701.97 850.656 704.745 850.487 707.752C850.784 708.161 850.624 707.88 850.788 708.675C850.225 708.685 850.142 708.711 849.504 708.576C841.716 706.931 830.367 697.896 826.221 691.14C824.737 688.723 822.536 684.752 823.604 681.862C825.751 676.054 841.919 676.519 847.281 675.697C852.127 674.954 857.324 673.796 861.637 671.389C868.826 667.378 871.911 660.798 874.031 653.276Z" data-index="7"></path>
	<path fill="#FEFEFE" d="M764.263 600.027C771.454 600.983 779.72 605.777 786.393 608.741C775.7 611.563 764.488 613.723 753.637 615.924C747.052 617.26 740.081 618.212 733.797 620.658C730.884 621.793 727.986 623.266 726.146 625.888C724.314 628.499 723.896 631.637 724.403 634.733C726.206 645.736 737.142 655.287 745.676 661.351C747.556 662.45 749.336 663.575 751.077 664.885C746.611 663.434 742.039 660.866 737.796 658.82C727.217 653.722 716.198 647.329 712.295 635.493C710.74 630.779 710.53 625.787 712.986 621.338C718.741 610.915 736.793 607.792 747.36 604.903Q755.828 602.521 764.263 600.027Z" data-index="8"></path>
	<path fill="#FEFEFE" d="M880.96 693.358C888.662 688.44 880.103 687.002 884.898 680.225C885.816 678.927 886.882 677.711 888.499 677.406L889.999 678.468L890.507 678.049C890.115 676.813 890.24 677.426 890.108 676.213C892.432 674.925 895.071 674.459 897.709 674.639L898.215 675.505C897.695 677.418 897.549 678.532 898.203 680.437C898.257 680.594 898.318 680.749 898.375 680.904C897.642 680.845 897.18 680.848 896.438 680.968C897.267 682.148 898.385 682.977 899.717 683.536C900.852 684.012 901.428 683.993 902.537 683.54C902.408 682.822 902.248 682.247 901.979 681.56C901.89 681.332 901.793 681.106 901.7 680.878L902.485 680.575C903.885 681.369 903.814 683.103 904.295 684.635L905.318 685.051L905.842 684.919C907.263 684.573 908.995 684.04 910.294 684.974C911.446 685.803 911.833 686.787 911.935 688.179C912.264 692.677 906.026 698.471 903.322 701.858C900.752 699.342 898.345 697.605 895.197 695.909C894.929 693.348 893.84 688.195 894.565 685.863C894.806 685.088 895.975 683.808 896.469 683.086L896.533 683.295L896.007 682.123C894.729 681.232 892.842 680.514 891.265 680.768L891.391 681.576C892.18 682.11 892.686 682.392 893.217 683.199L891.956 684.393C890.559 684.564 889.567 685.389 888.181 685.34L888.158 684.634L890.104 683.719L890.321 682.949L889.69 682.374L888.194 682.624C886.77 683.696 886.192 684.81 885.822 686.529C885.357 688.685 884.929 693.971 886.179 695.777L887.318 693.133C887.413 693.261 887.505 693.393 887.605 693.518C889.259 695.57 891.264 696.079 893.544 697.138C894.255 697.468 894.671 697.926 895.133 698.541C895.282 699.689 895.324 700.351 894.627 701.398C894.06 702.249 892.982 703.029 892.185 703.679C891.962 703.859 891.759 704.066 891.516 704.218C890.385 704.929 890.057 704.739 888.882 704.366C887.104 702.395 886.273 699.299 885.1 696.904C883.142 696.622 881.1 695.862 879.13 695.816C876.517 695.754 874.776 697.582 872.978 699.21C874.056 700.814 875.725 702.791 875.483 704.849C875.461 705.037 875.403 705.219 875.363 705.404C874.274 705.898 874.07 705.889 872.891 705.366C871.318 704.668 869.555 702.493 869.216 700.832C869.175 700.634 869.095 699.395 869.085 699.256C868.517 697.52 868.033 696.668 866.821 695.3L866.468 695.345C866.364 697.066 866.619 699.626 865.867 701.149C865.545 701.802 865.135 701.744 864.501 701.949L863.846 701.478C864.027 700.734 864.356 699.783 864.36 699.025C864.369 697.283 860.477 696.665 859.099 695.261C858.763 693.951 858.706 693.887 859.218 692.648C863.152 690.876 875.432 693.541 880.96 693.358Z" data-index="9"></path>
	<path fill="#010101" d="M902.319 685.472L903.297 685.983C905.174 685.935 906.252 686.526 907.731 687.619C908.578 688.245 909.18 688.927 909.294 689.997C909.516 692.078 908.245 693.402 907.023 694.901C905.941 695.06 904.756 695.289 903.663 695.169C902.237 695.013 900.63 694.077 899.77 692.917C898.963 691.827 898.566 690.795 898.841 689.425C899.256 687.351 900.645 686.479 902.319 685.472Z" data-index="10"></path>
	<path fill="#FEFEFE" d="M711.355 655.614C716.061 657.022 720.235 658.836 724.502 661.274C725.109 663.488 725.687 665.74 726.452 667.904C731.262 681.524 745.03 684.397 756.615 689.971C749.457 689.499 731.511 685.867 725.087 683.128C722.321 681.949 720.003 680.258 718.025 677.994C712.345 671.497 710.916 664.005 711.355 655.614Z" data-index="11"></path>
	<path fill="#FEFEFE" d="M883.086 700.288C883.116 700.288 883.148 700.278 883.176 700.287C884.255 700.649 884.46 700.918 885.196 701.719C885.545 702.824 885.725 704.218 885.157 705.311C884.412 706.748 883.351 706.767 881.933 707.22C880.954 706.682 879.789 706.148 879.016 705.331C878.263 704.535 878.289 704.523 878.35 703.389C879.184 702.508 879.563 702.096 880.717 701.626C881.918 701.137 881.418 701.463 882.488 700.73C882.692 700.59 882.887 700.436 883.086 700.288Z" data-index="12"></path>
	<path fill="#FEFEFE" d="M891.001 684.979C891.348 685.172 891.902 685.464 892.193 685.714C894.489 687.691 891.795 691.144 891.89 693.689C891.902 694.008 891.93 694.325 891.951 694.644L888.492 690.775C889.177 688.699 889.861 686.85 891.001 684.979Z" data-index="13"></path>
	<path fill="#FEFEFE" d="M898.872 674.588Q899.399 674.522 899.927 674.469C901.604 674.302 902.928 674.199 904.267 675.3C904.695 676.802 904.139 677.933 903.644 679.337C902.682 679.42 902.488 679.624 901.645 679.055C900.097 678.011 899.212 676.378 898.872 674.588Z" data-index="14"></path>
	<path fill="#010101" d="M846.507 308.204C846.712 308.322 846.926 308.427 847.123 308.559C854.749 313.647 861.598 330.227 863.238 339.055C866.79 358.179 860.436 378.052 850.221 394.18C846.339 400.309 841.65 405.909 837.54 411.887C831.785 420.259 825.812 430.884 826.067 441.393C826.358 453.387 835.091 464.409 841.165 474.169Q847.27 483.913 852.956 493.907C859.227 505.137 865.081 518.035 867.393 530.713C870.391 547.157 865.417 562.607 856.113 576.147L855.906 576.252C855.374 575.299 858.723 566.833 859.209 565.338C863.055 553.508 864.376 542.791 861.048 530.647C855.634 510.892 842.311 493.51 830.589 477.007C824.93 469.04 818.763 460.979 815.804 451.544C805.987 420.245 835.957 399.033 848.537 374.386C856.546 358.695 859.105 342.445 853.287 325.533C851.334 319.857 848.513 314.507 846.687 308.786L846.507 308.204Z" data-index="15"></path>
	<path fill="#010101" d="M790.976 309.773C791.623 309.938 791.739 309.931 792.409 310.313C798.995 314.069 805.856 327.75 808.049 334.776C814.85 356.568 805.449 381.765 793.251 399.866C787.964 407.712 781.637 414.768 777.221 423.2C773.647 430.024 771.225 437.759 771.861 445.536C773.602 466.841 800.721 497.824 807.994 521.629C814.176 541.864 807.954 561.747 798.327 579.807L797.843 580.285C797.654 576.372 801.735 565.846 802.84 561.384Q803.852 557.305 804.344 553.132Q804.836 548.958 804.8 544.756C804.607 511.764 778.338 492.147 765.355 464.39C745.224 421.351 786.061 400.728 798.873 365.223C807.063 342.529 800.613 330.021 790.976 309.773Z" data-index="16"></path>
</svg>