<svg xmlns="http://www.w3.org/2000/svg" xmlns:xlink="http://www.w3.org/1999/xlink" width="1024" height="1024">
	
	<path d="M324.37 130.009L325.025 130.139C323.243 132.115 311.26 138.252 307.749 140.555C296.652 147.838 285.873 155.559 276.179 164.658C256.425 183.199 236.909 208.135 236.213 236.428C236.022 244.156 237.734 251.526 240.945 258.54C250.667 279.779 270.139 287.556 289.89 297.032Q303.4 303.654 316.528 311.005C334.955 321.557 352.509 334.748 367.156 350.134C381.394 365.09 398.902 387.217 398.228 408.894C397.845 421.193 391.544 432.083 383.386 440.948C372.103 453.209 356.898 463.062 342.58 471.419C319.831 484.696 295.979 495.649 272.024 506.537C254.792 514.369 237.291 522.079 220.766 531.332C210.565 537.043 201.267 543.6 192.714 551.605C174.167 568.967 162.28 591.165 161.542 616.858C160.655 647.753 176.124 674.941 196.877 696.729C209.008 709.465 222.57 719.515 237.986 727.931C240.3 729.194 243.827 731.708 246.412 731.771C246.141 730.854 246.31 730.965 245.783 730.409C244.68 729.243 243.45 728.155 242.304 727.027C217.561 702.665 187.644 671.494 187.604 634.439C187.585 617.1 194.42 602.476 205.581 589.485C233.538 556.945 292.218 530.643 330.997 511.443Q358.022 498.041 384.393 483.396C404.975 471.703 424.812 457.489 441.56 440.704C455.191 427.044 468.637 408.662 468.5 388.496C468.434 378.784 464.866 369.084 459.252 361.222C444.293 340.273 416.046 321.608 395.184 306.42C371.836 289.421 347.375 272.082 326.757 251.798C315.5 240.724 300.047 225.21 300.252 208.23C300.32 202.607 302.619 196.941 306.814 193.147C311.322 189.07 318.384 186.419 324.517 186.66C324.381 186.717 324.256 186.807 324.111 186.832C318.912 187.72 313.766 189.899 309.74 193.435C305.666 197.013 303.261 201.82 303.085 207.26C302.052 239.127 386.036 293.635 410.996 311.961C426.123 323.066 441.805 334.317 454.855 347.881C465.912 359.374 474.384 373.961 473.992 390.377C472.537 451.374 369.887 500.745 322.269 524.526Q298.971 536.031 276.033 548.239C256.37 558.903 235.887 570.786 219.569 586.291C205.352 599.801 194.808 613.855 194.392 634.174C193.668 669.589 225.512 706.256 248.908 730.643C259.562 724.868 269.845 717.8 280.323 711.627L354.34 668.616L458.205 608.152C480.492 595.23 503.195 582.629 525.137 569.153C533.515 564.008 540.496 555.534 548.03 549.156C558.205 540.542 569.319 533.099 580.483 525.843C598.141 514.365 616.784 504.003 635.023 493.467L722.499 443.005L825.05 384.343C843.399 373.94 861.672 362.461 880.637 353.266C886.681 350.336 892.604 348.114 899.346 347.571C907.262 346.934 915.815 349.032 921.88 354.336C926.22 358.132 928.99 363.517 929.151 369.317C929.382 377.632 924.63 384.582 919.097 390.284C911.376 397.493 901.027 402.266 891.817 407.294Q877.445 415.241 862.972 423.005L798.666 458.608L678.787 526C657.206 538.074 635.739 550.566 613.703 561.791C598.345 569.614 582.468 577.646 566.433 583.93Q556.884 587.678 547.185 591.02C542.153 592.75 536.775 594.22 532.007 596.58C526.35 599.381 520.909 603.119 515.466 606.351C506.692 611.562 497.813 616.562 488.974 621.658L380.314 685.003L294.588 734.987C278.263 744.449 260.465 753.302 245.285 764.471Q287.985 766.26 330.664 768.487L463.193 775.204L696.222 786.445L830.007 792.977Q850.819 793.75 871.611 794.958C879.906 795.371 891.976 794.738 899.637 797.406C906.294 799.723 911.066 804.961 914.072 811.146C919.707 812.96 925.675 814.068 931.395 815.65C947.249 820.036 964.591 826.797 977.454 837.103C984.055 842.392 990.506 849.69 991.279 858.486C991.746 863.792 989.926 868.741 986.44 872.722C972.26 888.918 932.672 891.294 912.266 892.982C837.174 899.193 761.344 897.388 686.094 895.144Q575.22 891.191 464.558 883.281Q353.896 875.372 243.587 863.515Q185.345 857.682 127.349 849.77C108.599 847.13 89.1332 845.035 70.7803 840.264C61.4838 837.847 51.4274 834.304 44.0396 827.945C37.9674 822.719 33.769 815.645 33.296 807.503C32.8419 799.685 36.2514 791.842 41.5248 786.169C48.8259 778.316 58.7546 773.648 68.6243 769.884C86.8556 762.932 107.802 759.272 127.308 759.116C140.577 759.01 153.995 760.171 167.255 760.807C176.978 761.274 186.84 761.996 196.568 761.6C212.165 751.287 228.632 742.228 244.782 732.817C242.414 732.314 240.191 731.529 237.945 730.635C207.458 718.498 174.517 686.116 161.77 656.265C152.988 635.698 151.088 613.636 157.438 592.081C173.99 535.901 229.316 515.684 277.413 493.519C306.523 480.105 336.414 466.205 361.904 446.549C371.584 439.084 382.176 430.309 386.794 418.647C392.166 405.082 386.695 391.456 379.47 379.766C360.833 349.614 329.349 326.101 298.229 309.966C284.036 302.607 268.496 295.943 255.714 286.334C246.902 279.71 240.116 271.5 235.729 261.35C228.568 244.782 229.703 227.284 236.282 210.746C250.486 175.033 289.927 144.745 324.37 130.009Z" data-index="1"></path>
	<path fill="#FEFEFE" d="M124.544 770.081C131.992 769.304 140.091 770.322 147.598 770.641C158.304 771.096 169.401 770.967 179.987 772.615L174.753 776.489C158.733 775.023 142.092 774.043 126.006 773.995C121.17 778.18 116.505 782.693 112.531 787.712C145.121 791.149 177.863 792.994 210.55 795.238L326.996 803.705L717.995 832.926L840.973 842.459C850.934 843.196 873.908 846.454 882.036 845.107C888.679 844.006 893.861 839.179 897.605 833.879C898.591 831.99 899.653 830.008 900.335 827.985C901.875 823.414 902.298 818.461 900.023 814.049C897.15 808.478 891.934 806.539 886.337 804.796C891.993 805.385 897.207 805.989 901.316 810.421C904.53 813.889 905.836 818.549 905.488 823.21C904.923 830.787 900.541 838.32 894.826 843.226C890.496 846.943 885.833 849.549 879.988 849.598C869.348 849.686 858.432 848.17 847.82 847.331L793.861 843.319L610.903 829.248L267.95 803.801C221.118 800.36 174.206 797.626 127.413 793.69C123.339 793.348 111.427 793.383 108.818 790.298C108.396 789.15 108.233 788.345 108.568 787.134C110.249 781.059 119.296 773.251 124.544 770.081Z" data-index="2"></path>
	<path fill="#FEFEFE" d="M223.52 774.059C227.834 773.687 232.43 774.194 236.761 774.393L260.167 775.523L340.788 779.544L646.46 794.277L753.795 799.44C759.028 799.722 778.832 799.777 782.842 801.482C783.59 802.492 783.564 802.446 783.448 803.701C782.586 804.732 782.438 804.718 781.122 805.064L413.913 787.401L289.344 781.27L246.547 779.266C238.053 778.862 229.45 778.713 221.001 777.761L220.559 777.339L220.141 777.438L220.033 777.1C220.835 775.648 222.175 774.945 223.52 774.059Z" data-index="3"></path>
	<path fill="#FEFEFE" d="M524.4 582.899C524.629 583.01 524.884 583.081 525.088 583.233C526.145 584.019 526.375 584.59 526.607 585.788C525.631 587.626 432.879 641.387 422.309 647.449C411.618 653.58 400.685 659.277 390.04 665.499L264.237 739.774C236.6 755.963 208.373 771.543 181.244 788.578C181.043 788.528 180.828 788.516 180.64 788.428C179.586 787.932 179.348 787.634 179.025 786.551C179.768 784.505 181.844 783.271 183.597 782.136C187.891 779.359 192.622 777.093 197.076 774.553Q210.002 767.217 222.696 759.486Q292.224 717.198 363.007 677.049C373.88 670.829 384.525 664.235 395.333 657.907L524.4 582.899Z" data-index="4"></path>
	<path fill="#FEFEFE" d="M832.422 395.966L833.775 396.87C834.031 397.438 834.434 397.852 834.173 398.477C833.689 399.634 832.467 400.401 831.416 400.999L639.741 510.084C621.328 520.474 603.273 531.519 584.712 541.651C583.954 541.702 583.322 541.521 582.584 541.365L582.233 540.649C582.304 540.454 582.358 540.253 582.445 540.065C583.519 537.763 587.096 535.918 589.216 534.659Q681.001 480.749 773.844 428.686Q791.674 418.621 809.392 408.359C816.651 404.166 824.508 398.677 832.422 395.966Z" data-index="5"></path>
	<path fill="#FEFEFE" d="M734.458 875.677C740.027 875.438 745.743 876.003 751.326 876.209L777.99 876.975Q810.14 877.981 842.274 879.397C864.074 880.342 886.047 881.52 907.856 880.278C914.914 879.877 922.323 879.342 929.309 878.259C932.821 877.715 936.252 876.768 939.78 876.298C941.37 876.086 943.383 875.801 944.797 876.66L945.002 877.856C944.344 879.285 944.248 879.365 942.894 880.174Q932.488 882.27 921.944 883.491Q911.4 884.713 900.791 885.052C882.676 885.665 864.379 884.572 846.276 883.879L779.747 881.64L750.464 880.758C745.508 880.574 739.555 880.921 734.773 879.578C733.609 879.251 733.196 878.942 732.65 877.894C733.087 876.631 733.386 876.513 734.458 875.677Z" data-index="6"></path>
	<path fill="#FEFEFE" d="M56.6374 816.719C60.665 817.981 64.5679 820.04 68.5434 821.518C76.976 824.653 85.8964 826.616 94.7826 827.926C100.419 828.757 106.191 829.448 111.878 829.78C115.998 830.021 120.236 829.757 124.317 830.364C125.444 830.531 126.219 830.76 127.157 831.443C127.551 832.895 127.335 833.175 126.844 834.625C107.961 835.003 76.7464 831.482 60.1186 822.931C58.4449 822.07 56.272 820.863 55.7788 818.895C55.5603 818.024 56.2096 817.446 56.6374 816.719Z" data-index="7"></path>
	<path fill="#FEFEFE" d="M799.033 801.596C806.224 801.353 831.543 802.363 838.101 803.817C838.74 805.264 838.492 805.843 838.268 807.382C831.053 807.738 805.885 806.812 799.463 804.967C798.719 803.716 798.957 803.026 799.033 801.596Z" data-index="8"></path>
	<path fill="#FEFEFE" d="M974.212 862.358C974.287 862.37 974.366 862.369 974.438 862.394C975.612 862.79 975.816 862.747 976.446 863.848C976.291 864.348 976.245 864.613 975.905 865.076C973.18 868.785 965.401 870.98 961.156 872.18L959.586 871.112L959.473 870.021C961.443 867.196 970.771 864.139 974.212 862.358Z" data-index="9"></path>
</svg>