<svg xmlns="http://www.w3.org/2000/svg" xmlns:xlink="http://www.w3.org/1999/xlink" width="1024" height="1024">
	
	<path fill="#010101" d="M513.464 169.813C515.005 169.883 516.226 169.978 517.569 170.861C525.07 175.791 542.191 219.691 543.645 229.973C543.967 232.246 543.383 234.23 542.058 236.058C541.162 236.493 540.648 236.946 539.639 236.472C538.497 235.936 537.253 234.796 536.763 233.628C534.334 227.831 532.932 221.083 531.036 215.031C527.438 203.541 522.712 192.042 516.775 181.546Q513.427 199.603 508.07 217.17C501.852 237.864 494.463 258.3 493.563 280.129C492.695 301.175 498.12 322.94 512.654 338.681C520.709 324.865 527.104 310.875 530.961 295.253C532.852 287.593 534.45 279.952 535.295 272.105C535.623 269.059 535.56 262.978 537.059 260.378C537.845 259.016 539.394 258.477 540.832 258.271C542.133 258.825 542.74 259.096 543.336 260.44C544.723 263.57 543.311 269.146 542.806 272.447C541.007 284.217 538.755 295.831 534.924 307.131C532.84 313.277 530.154 319.194 527.994 325.313C534.826 325.661 541.668 325.556 548.508 325.995C585.943 328.396 650.835 335.463 682.401 356.366C689.453 361.035 697.019 368.649 698.631 377.244C699.187 380.208 699.164 383.332 699.559 386.333C702.473 408.484 698.29 418.446 685.917 436.617C691.356 438.742 698.03 441.082 702.469 444.917C704.292 446.491 706.535 449.127 706.68 451.644C707.38 463.84 705.574 476.891 704.894 489.115Q703.15 523.466 701.76 557.834Q699.588 634.804 696.006 711.721L694.774 750.22C694.446 760.061 694.262 769.887 692.572 779.617C689.621 796.605 678.889 807.915 665.34 817.454C620.354 845.738 563.029 855.443 510.691 855.868C466.497 856.227 416.551 846.579 376.591 827.576C366.277 822.671 355.391 816.854 347.239 808.747C339.352 800.903 334.31 789.875 332.328 779.001C329.751 764.856 330.374 749.394 329.723 735.025L325.869 641.904L320.449 516.931C319.451 495.243 317.493 473.345 317.516 451.643C322.49 444.585 329.219 440.33 336.802 436.471C327.656 423.756 323.521 412.195 323.264 396.316C323.051 383.125 322.789 373.287 332.604 363.255C361.981 333.229 454.98 326.248 495.103 325.563C491.231 315.355 488.499 304.888 487.575 293.982C486.598 282.445 487.49 270.979 489.559 259.613C492.975 240.841 501.028 223.453 505.675 204.997C507.135 199.195 508.191 193.23 509.005 187.305C509.633 182.736 509.858 177.502 511.319 173.148C511.748 171.868 512.606 170.831 513.464 169.813Z" data-index="1"></path>
	<path fill="#FEFEFE" d="M336.533 471.715C339.596 473.513 342.111 476.154 345.285 477.97C344.831 485.175 345.508 492.757 345.718 499.993L347.313 547.73Q348.464 591.319 350.429 634.879C350.974 649.614 350.855 664.611 352.006 679.3C352.102 680.519 352.262 681.82 352.875 682.907C353.772 684.497 355.355 685.295 357.018 685.816C358.421 685.612 358.825 685.592 359.806 684.448C361.425 682.562 361.57 678.658 361.607 676.318C361.806 663.78 360.725 651.002 360.396 638.441L358.776 567.883C358.297 552.259 357.743 536.579 357.485 520.953C357.282 508.673 357.503 496.288 356.688 484.034C386.32 497.112 419.229 504.454 451.372 507.607C505.521 512.919 615.25 508.055 665.029 487.137C672.912 483.825 679.556 479.526 686.15 474.119C686.112 485.954 685.125 497.849 684.636 509.678Q683.593 537.542 682.933 565.418C681.129 588.556 681.241 612.146 680.366 635.35Q677.463 700.308 675.409 765.297C655.522 778.501 634.9 787.308 611.967 793.766L611.376 793.376C611.408 792.334 611.52 791.122 611.25 790.109C610.942 788.955 610.116 788.309 609.089 787.807C607.593 787.075 605.543 787.14 603.935 787.305C599.367 787.776 594.786 789.315 590.271 790.2C582.023 791.816 573.529 792.94 565.181 793.912C525.688 798.508 474.684 798.566 435.867 791.371C432.788 790.801 425.555 788.768 422.846 790.175C420.982 791.143 420.358 794.031 419.765 795.885C393.721 789.705 371.951 779.581 349.071 765.863Q343.555 618.757 336.533 471.715Z" data-index="2" style="opacity: 1;"></path>
	<path fill="#010101" d="M367.742 539.402C374.521 540.805 381.262 543.53 387.836 545.73Q400.639 550.102 413.806 553.213Q418.952 554.392 424.123 555.453Q429.295 556.515 434.489 557.457Q439.683 558.4 444.898 559.224Q450.113 560.047 455.345 560.751Q460.577 561.455 465.823 562.04Q471.07 562.624 476.329 563.088Q481.588 563.552 486.856 563.896Q492.124 564.24 497.398 564.463Q502.673 564.686 507.951 564.789Q513.229 564.891 518.508 564.873Q523.787 564.855 529.065 564.716Q534.342 564.577 539.615 564.317Q544.888 564.058 550.153 563.677Q555.419 563.297 560.674 562.797Q565.93 562.296 571.172 561.676Q576.415 561.055 581.642 560.315Q601.899 557.612 621.65 552.361C627.661 550.716 649.844 542.158 653.054 542.051C654.452 542.004 655.632 542.362 656.584 543.454C657.415 544.407 657.46 545.611 657.461 546.805C657.472 559.355 656.708 572.002 656.4 584.556Q655.518 626.963 654.087 669.355L652.719 717.564C652.481 726.404 652.537 735.263 651.907 744.087C650.486 746.31 647.27 747.46 644.901 748.427C619.241 758.906 592.496 764.746 565.063 768.018C515.343 773.948 472.496 771.375 423.568 761.05C407.809 757.724 388.411 753.234 373.613 747.097C372.388 739.798 372.293 732.243 371.89 724.858Q370.726 705.974 370.256 687.061L367.986 581.499C367.841 573.251 366.014 544.798 367.742 539.402Z" data-index="3" style="opacity: 1;"></path>
	<path fill="#010101" d="M354.651 697.025C356.901 696.866 358.58 696.66 360.544 697.97C362.496 701.137 363.021 727.95 363.235 733.532C363.336 736.188 363.469 737.475 361.584 739.512Q360.452 739.697 359.313 739.824C357.754 739.984 356.269 739.847 355.071 738.701C354.01 737.686 353.989 735.21 353.909 733.813C353.507 726.805 352.217 705.956 353.088 699.946C353.274 698.662 353.831 697.955 354.651 697.025Z" data-index="4"></path>
	<path fill="#FEFEFE" d="M694.901 397.012C694.939 397.059 694.988 397.097 695.013 397.151C695.791 398.826 695.036 402.18 694.788 404.011Q694.57 405.626 694.251 407.225Q693.933 408.824 693.515 410.399Q693.097 411.975 692.581 413.521Q692.065 415.068 691.454 416.579Q690.843 418.09 690.138 419.56Q689.434 421.03 688.639 422.453Q687.844 423.876 686.961 425.247Q686.078 426.617 685.112 427.93C682.31 431.789 677.869 436.329 676.719 440.996C677.433 445.034 682.229 447.713 684.793 450.713C687.828 454.264 686.412 462.251 686.182 466.724C680.781 471.389 675.471 475.734 669.139 479.122C647.629 490.63 613.59 495.142 589.453 498.05Q562.878 501.133 536.158 502.477C483.743 505.437 431.863 503.671 381.518 487.337C367.951 482.935 352.736 477.273 341.469 468.286C338.407 465.843 335.438 462.623 335.121 458.523C334.837 454.844 336.641 452.29 338.972 449.665C341.965 447.017 345.345 445.826 348.802 443.949C349.138 443.316 349.385 443.074 349.342 442.317C349.171 439.303 345.054 437.273 343.066 435.271C333.768 425.909 329.596 412.947 329.641 399.977C337.827 407.643 346.485 413.961 356.53 419.008C372.942 427.255 390.656 431.816 408.403 436.107C443.577 444.613 475.749 450.119 512.084 450.107C555.997 450.092 637.824 436.156 675.447 413.393C682.863 408.906 688.825 403.1 694.901 397.012Z" data-index="5" style="opacity: 1;"></path>
	<path fill="#010101" d="M636.149 439.098C637.332 439.319 638.242 439.923 639.261 440.525L639.466 441.539C638.823 442.597 637.972 443.316 636.879 443.884C629.329 447.809 610.983 451.332 602.209 453.093C535.367 466.51 456.392 465.134 390.769 446.393C389.527 445.754 388.946 445.263 388.109 444.144C387.857 442.652 387.849 442.504 388.462 441.127C389.583 440.464 390.242 440.112 391.579 440.333C396.479 441.142 402.662 443.487 407.841 444.621Q428.843 449.112 450.132 451.941C496.253 457.958 544.787 458.037 590.619 449.708C606.541 446.815 620.629 442.583 636.149 439.098Z" data-index="6"></path>
	<path fill="#FEFEFE" d="M348.945 771.7C353.858 774.234 358.183 777.89 363.079 780.499C382.249 790.714 404.019 798.41 425.262 802.897C480.077 814.474 566.3 812.832 620.308 796.947C639.698 791.244 657.69 783.191 674.635 772.164C673.647 779.885 671.511 785.846 667.089 792.239C646.592 817.571 588.737 830.976 557.188 835.165C505.298 842.055 444.563 836.892 396.127 816.674C385.411 812.202 374.369 806.879 365.155 799.76C355.012 791.921 350.52 784.364 348.945 771.7Z" data-index="7"></path>
	<path fill="#010101" d="M577.918 813.675C579.173 813.569 580.001 813.809 581.192 814.146C582.305 815.096 582.762 815.612 583.334 817.014C583.033 818.351 582.766 818.933 581.655 819.791C577.374 823.094 567.751 823.45 562.385 824.229C521.169 830.215 486.022 828.339 445.065 821.949C442.827 821.3 440.496 820.54 439.106 818.521C438.626 817.824 438.852 817.551 438.966 816.778C441.202 813.715 447.215 814.364 450.507 814.818C493.518 820.743 535.024 820.729 577.918 813.675Z" data-index="8"></path>
	<path fill="#010101" d="M645.061 796.066C647.043 796.413 647.454 797.016 648.58 798.484C648.627 799.364 648.789 799.567 648.28 800.347C644.993 805.39 606.956 815.041 599.315 816.783C598.004 816.487 596.816 816.254 595.942 815.099C595.111 814 595.217 813.493 595.397 812.241C596.17 811.241 596.725 810.683 597.963 810.232C604.269 807.935 611.196 806.682 617.653 804.749C626.823 802.003 635.839 798.582 645.061 796.066Z" data-index="9"></path>
	<path fill="#010101" d="M379.434 796.212C382.998 797.357 386.377 799.528 389.731 801.18Q397.708 805.113 406.2 807.76C410.373 809.037 422.004 810.343 424.257 811.73C424.97 812.169 425.465 812.505 425.632 813.343C426.027 815.321 424.938 817.068 423.857 818.623C414.402 818.54 389.654 810.3 381.41 804.803C379.381 803.449 377.965 802.267 377.48 799.803C377.748 798.091 378.248 797.452 379.434 796.212Z" data-index="10"></path>
	<path fill="#FEFEFE" d="M514.574 346.649Q528.112 346.505 541.642 346.99Q555.173 347.474 568.666 348.588Q582.159 349.701 595.586 351.44Q609.013 353.179 622.344 355.54C637.346 358.201 669.688 366.227 678.053 379.056C679.1 380.661 679.678 382.547 679.234 384.452C678.143 389.139 672.405 392.558 668.661 395.068C661.427 399.401 653.424 402.545 645.684 405.849C620.292 393.478 545.674 388.561 515.346 388.087C515.169 374.236 515.79 360.474 514.574 346.649Z" data-index="11"></path>
	<path fill="#FEFEFE" d="M499.789 346.719C502.632 346.628 505.511 346.73 508.357 346.746L508.211 388.017C477.888 388.71 447.754 390.306 417.727 394.892C402.297 397.249 387.239 400.643 372.008 403.949C367.829 402.532 363.996 400.499 360.1 398.457C356.675 396.519 353.427 394.432 350.485 391.8C348.08 389.649 344.975 386.537 344.954 383.086C344.94 380.735 346.438 378.428 348.003 376.79C352.002 372.602 358.209 369.905 363.396 367.572C402.647 349.921 457.231 348.356 499.789 346.719Z" data-index="12"></path>
	<path fill="#FEFEFE" d="M525.418 330.462C564.172 330.901 658.822 338.792 686.681 367.082C692.47 372.96 694.496 379.48 694.49 387.553C693.005 390.187 691.505 392.625 689.581 394.971C664.044 426.12 588.762 435.161 549.997 438.826C492.419 444.269 385.202 439.455 339.374 401.107C334.294 396.856 328.954 391.202 328.532 384.245C328.18 378.436 331.186 373.012 334.939 368.786C359.616 341.001 444.747 333.724 480.676 331.644Q489.776 331.383 498.879 331.295C501.042 333.942 503.326 336.466 505.622 338.997C460.873 338.946 414.882 341.659 372.448 357.054C363.481 360.307 353.894 364.005 346.546 370.228C343.023 373.212 339.815 377.124 339.542 381.929C339.313 385.946 341.271 389.606 343.812 392.579C364.725 417.049 436.28 427.941 467.103 430.482C525.099 435.264 590.08 431.65 645.147 411.91C656.136 407.971 668.406 403.308 677.319 395.649C680.699 392.744 684.828 388.312 685.01 383.662C685.188 379.087 682.21 374.942 679.117 371.859C672.932 365.695 664.382 362.111 656.399 358.911C615.506 342.522 564.297 338.293 520.536 338.454C522.25 335.844 523.82 333.144 525.418 330.462Z" data-index="13" style="opacity: 1;"></path>
	<path fill="#FEFEFE" d="M502.29 393.73C504.014 393.689 505.442 393.745 507.124 394.146C508.193 395.16 508.128 395.063 508.173 396.54C507.335 398.097 506.178 398.329 504.615 399.117C504.225 399.313 503.829 399.496 503.451 399.715C501.699 400.729 500.519 403.053 500.142 405.001C499.815 406.685 500.146 408.337 501.136 409.742C503.149 412.599 507.232 413.847 510.53 414.266C515.645 414.916 523.76 414.355 527.809 410.977C529.091 409.908 529.923 408.487 530.035 406.796C530.644 397.603 519.067 400.019 515.171 395.596L515.282 394.645C519.536 392.867 530.491 394.32 535.279 394.584C561.222 396.012 587.112 398.211 612.726 402.694C620.934 404.13 629.895 405.51 637.666 408.564C611.724 416.571 585.9 421.771 558.882 424.6C545.467 426.535 531.45 426.573 517.91 426.607C481.883 426.7 446.293 424.283 411.076 416.334C401.15 414.093 391.3 411.738 381.781 408.082C417.451 397.546 464.777 394.921 502.29 393.73Z" data-index="14"></path>
	<path fill="#010101" d="M541.494 242.296C542.524 242.828 543.515 243.282 544.114 244.299C544.841 245.533 544.976 246.936 544.519 248.287C543.789 250.441 542.544 251.383 540.585 252.397C539.948 251.904 539.329 251.439 538.838 250.792C537.935 249.601 537.48 248.14 537.846 246.646C538.34 244.63 539.854 243.39 541.494 242.296Z" data-index="15"></path>
</svg>